<?xml version="1.0" encoding="utf-8"?>
<!-- Generator: Adobe Illustrator 28.0.0, SVG Export Plug-In . SVG Version: 6.00 Build 0)  -->
<svg version="1.1" id="Layer_1" xmlns="http://www.w3.org/2000/svg" xmlns:xlink="http://www.w3.org/1999/xlink" x="0px" y="0px"
	 viewBox="0 0 2829.1 2144.3" style="enable-background:new 0 0 2829.1 2144.3;" xml:space="preserve">
<style type="text/css">
	.st0{fill:#2B3289;}
	.st1{fill:#FFFFFF;}
</style>
<g>
	<path class="st0" d="M1821,927.5c30.6,0,64.1-0.8,97.5,0.3c15.3,0.6,25.1-3.8,30.4-18c0.6-1.7,2.2-3.2,2.8-4.9
		c9.3-31.4,30.6-39.9,61.5-35.6c19.7,2.7,40,0.5,62.6,0.5c-4.4,18.6-8.7,35.8-13.2,54.8c83.7,0,165.6,0,250.5,0
		c-11,73.9-21.7,145.9-32.8,219.2c-27.4,0-53.9,0-82.6,0c2.4,5,3.6,8.2,5.4,11c20,32.6,40.3,64.9,59.9,97.9
		c3.2,5.4,4.9,13.2,3.9,19.4c-9.9,65.9-20.3,131.7-31.4,197.4c-2.2,13.2-0.5,22.1,12.8,28c3.6,1.6,7.7,8.8,6.9,12.6
		c-9.6,47.9-20,95.8-30.3,143.6c-0.3,1.7-1.3,3.3-1.9,5c-427.8,0-855.2,0-1283.6,0c2.2-27.7,4.3-54.7,6.5-81.5
		c2-23.6,5.2-47.3,6.5-71.1c0.6-12.3,5.5-16.5,17.2-14.8c3.5,0.5,7.1-0.6,13.1-1.3c-6-11.2-9.9-21.9-16.7-30.3
		c-25.2-31.4-25.1-65.2-18-103.2c26-138.4,49.3-277.2,73.1-415.8c2-11.8,7.7-13.4,17.8-13.4c132.5,0.2,265.2,0,397.7,0
		c2.4,0,4.7,0.3,6.9,0c15.3-3,19.9,4.7,21.7,18.8c9.6,73.3,70.8,134.7,144.2,146.1c79.6,12.3,156.9-26,188.5-95.2
		C1807.8,975.6,1813,952.2,1821,927.5z M1459.8,1413.3c0-36.2,0-70.6,0-105.1c0-104,0-208,0-312c0-23.3-5.4-28.7-28.8-28.7
		c-23.3,0-46.6,0.5-70-0.2c-13.6-0.3-20.3,6-24.1,18.4c-42.7,137.4-85.6,274.8-128.3,412.2c-1.4,4.7-2.7,9.5-4.3,15.8
		c22.5,0,42.9,0.3,63.3-0.3c3.9-0.2,8.4-3.6,11.7-6.6c16.2-14,33.4-27.3,47.7-42.9c16.1-17.3,34.7-16.1,56.4-13.2
		c0,21.1,0,41.8,0,62.6C1409.6,1413.3,1433.7,1413.3,1459.8,1413.3z M2064,1348.4c3.2-18.8,5.8-35.8,8.7-52.6
		c2.7-15.3-2.5-22.4-17.6-22.7c-13.1-0.3-26.2-0.3-39.2,0c-16.2,0.3-23.5,6.6-26.3,23c-6.1,35.3-12.1,70.8-18,106
		c-3.3,19.7,0.9,25.1,20.3,25.1c57.4,0,114.7,0,172.2-0.2c24,0,26.3-2.4,30.6-26.5c8-44,16.7-87.8,23.6-132
		c1.3-8.4-1.9-19.9-7.2-26.6c-23.3-29.6-46.5-59.7-73-86.5c-26.8-27.1-38.8-55.6-24.9-92.5c0.6-1.7-0.2-4.1,0.8-5.5
		c1.4-2,3.8-4.7,5.8-4.7c18.4-0.3,36.9-0.2,56.6-0.2c-3,17.2-5.7,32.1-8.2,47.3c-1.6,9.9,2.4,15.3,12.8,15.1c16.9,0,33.6,0.2,50.4,0
		c11.7,0,17.5-6.1,19.2-17.8c5.2-35,11-70,16.5-104.9c2.5-15.9-0.3-19.2-16.4-19.4c-60.7,0-121.3,0.2-182,0
		c-14.2,0-21.3,6.5-23.8,20c-8,45.4-16.2,90.8-24.9,136.1c-2.2,12,0.3,21.3,8.4,30.7c33.1,38.6,65.7,77.5,98,116.8
		c4.1,4.9,7.6,12.4,7.1,18.3c-1.3,15.3-4.6,30.4-7.9,45.4c-0.6,3-4.6,7.4-7.2,7.6C2101,1348.9,2083.4,1348.4,2064,1348.4z
		 M1042.6,1414.7c8.8,0,17.8-0.3,26.6,0.2c10.2,0.5,15.1-3.3,16.5-14c3-21.1,6.5-42.4,11.5-63.2c1.9-7.9,6.6-16.5,12.6-21.7
		c44.8-39.4,90.1-78,135.7-116.6c8.4-7.1,13.1-14.7,14.8-25.5c10.1-62.1,20.8-124,31.4-185.9c2.8-16.9,0.3-20-16.7-20
		c-59.7,0-119.4,0.3-179-0.2c-13.2-0.2-18.8,3.9-21.1,17.5c-18.8,110.6-38.4,221.1-57.8,331.7c-4.6,26.2-9.5,52.3-14,78.5
		c-2.8,16.5-0.5,19.2,15.8,19.5C1026.7,1414.9,1034.7,1414.7,1042.6,1414.7z M1539.6,1097.5c-0.8,2.8-2.2,6.6-3,10.6
		c-18.9,95.5-37.8,191-56.6,286.5c-2.8,14.2,1.9,19.4,17.3,19.4c49.5,0.2,99,0,148.3,0c26.8,0,73.4-31,83.7-55.6
		c1.3-3,1.9-6.1,2.7-9.5c16.7-81.6,33.4-163.4,50-245c3.2-15.4,6-30.9,8.8-46.3c-27.9,24.1-56.9,43-90.8,53.9
		c-3.2,0.9-6.3,5.5-7.1,9c-3.6,15.9-6.5,32-9.6,47.9c-10.7,52.9-21.4,105.9-32.6,158.7c-0.9,4.1-6,10.4-9.3,10.6
		c-19.4,0.9-38.9,0.5-60.4,0.5c14.7-73.3,29.2-145,43.2-214.5C1594.1,1114.4,1567.3,1106,1539.6,1097.5z M1856.9,1338
		c-0.2-3.2-0.5-5-0.3-6.8c12.3-76.4,24.4-152.7,36.7-229.1c6-37.7,12.4-75.5,18-113.3c2.4-16.7-2.2-21-19.1-21.1
		c-15.9-0.2-31.8,0.5-47.6-0.2c-13.7-0.6-18.9,6-21,18.6c-16.1,98.3-32.6,196.7-49,295c-6,36.4-12.4,72.6-18,109
		c-3,19.7,0.8,23.6,20.2,23.6c35.5,0,70.9-0.2,106.4,0.2c11.7,0.2,17.3-4.6,17.8-16.2c0.5-16.4,0.8-32.6,2.2-48.8
		c0.8-9.3-3.3-11.2-11.3-11C1880.4,1338.3,1868.9,1338,1856.9,1338z M1935.6,1048.2c20.6-2,35.8-3.9,51.1-4.9
		c9.1-0.6,12.3-4.9,14-13.6c7.1-32.8,14.8-65.4,22.7-97.9c3.3-13.4,7.7-26.3,11.8-39.7c-32.1-3.8-37.7-0.8-49.6,26
		c-2.2,5-4.7,10.1-6.8,15.3C1964.7,970.4,1951,1007.2,1935.6,1048.2z M1276.6,1641.8c24.6,3.2,25.4,2.5,28.8-18.1
		c4.7-28,9.5-56.1,14-84.1c1.6-9.9,3-20,4.4-29.6c-16.5-6.5-25.7-1.7-27.1,12.8c-4.9-3.8-9.6-7.4-14.3-11.2
		c-12.3-9.9-27.3-4.6-29.9,10.9c-4.6,26.2-9,52.5-13.4,78.6c-2.2,13.6-4.3,27.1-6.5,40.7c24,3,25.2,2,28.4-18.6
		c2.2-13.9,4.3-27.6,6.6-41.4c2.5-14.7,5.5-29.3,8.4-45.2c14.8,10.7,14.3,23.3,12,36.7C1284.1,1596,1280.5,1618.5,1276.6,1641.8z
		 M2065.4,1641.6c23.2,3.6,24,3.3,27.6-16.5c5.4-29,10.4-58.1,15.9-89.2c9.8,9.5,15.8,16.9,13.1,30.1c-5,24.9-8.4,50.1-12.4,75.2
		c21.7,4.7,24.9,3,28-15.8c5.2-30.7,10.1-61.5,15.1-92.3c1.3-8,2.2-16.1,3.3-23.8c-16.1-5.5-25.1-1.1-27.1,16.4
		c-5-5.4-8.2-10.9-12.8-12.9c-6.8-2.8-14.7-4.6-22.1-4.1c-3,0.2-7.6,6.6-8.2,10.9C2078.7,1560,2072.2,1600.4,2065.4,1641.6z
		 M1398.7,1641.2c22.4,5.5,25.1,3.9,28.5-16.9c3-17.5,5.7-35,8.5-52.3c3.5-21,6.9-41.8,10.4-63.2c-13.9-1.4-26.9-4.6-29.2,17.3
		c-4.7-3.3-6.1-9.3-9.6-10.9c-7.4-3.5-16.1-6.8-23.8-6c-3.8,0.5-7.2,10.1-9.5,16.1c-2,5.5-2,11.8-3,17.8
		c-5.5,32.8-10.9,65.7-16.4,98.5c23.5,3.8,24.3,3.2,28-18c2.8-16.1,5.5-32.1,8.4-48.2c2.2-12.6,4.6-25.1,7.1-38.6
		c14.5,13.7,15.3,16.1,12.6,31.5C1406.7,1592.6,1402.6,1616.9,1398.7,1641.2z M1520.8,1563.3c-7.9-0.5-14.8-2.4-20.5-0.5
		c-3.9,1.3-9.5,10.9-8.7,11.7c9,9.8,3.5,20.3,2.4,30.3c-1.9,15.9-4.1,16.9-21.7,11.2c3.6-24.7,6.6-49.6,11.5-74.4
		c0.8-4.1,9.8-6.6,16.5-10.9c1.9,8.2,2.8,12,4.4,19.1c7.1-2.8,17.2-3.9,18.6-8c3.8-10.4,3.8-22.2,5.4-35.3
		c-20.6,0-39.2-0.5-57.8,0.5c-3.2,0.2-7.7,5.7-8.5,9.3c-3.3,15.4-5.4,31.2-7.7,46.8c-3.9,26.2-7.9,52.3-12,79.3
		c23.2,0,44.8,0,67.1,0C1513.6,1616,1517,1590.4,1520.8,1563.3z M1984.6,1643.4c16.5,0,29.9,0.6,43.3-0.2
		c12.1-0.8,21.7-7.7,24.1-19.7c6.9-34.7,12.6-69.5,18.9-104.3c1.6-8.8-2.2-11.8-10.7-11.5c-9.3,0.3-18.6,0-27.9,0
		c-15.6,0-26.3,8.4-29.2,23.8c-4.9,26.9-9.6,54-14.2,81C1987.4,1622.1,1986.3,1631.6,1984.6,1643.4z M2178.4,1619.6
		c-0.8-4.9-0.9-5.8-1.1-6.8c-0.8-6.5,4.6-15.8-8.2-16.7c-11-0.8-16.5,3.5-17.5,14.7c-0.6,7.4-2.5,14.7-3.6,22.1
		c-1.1,6.8,0.9,10.6,8.8,10.4c15.4-0.3,30.7,0.8,46-0.5c4.3-0.3,10.6-5.7,11.8-9.8c11-38.3,10.1-40.8-15.9-71.1
		c-1.9-2-4.7-3.9-5.2-6.5c-1.4-6.8-3.5-14.2-1.9-20.6c0.6-2.5,9.8-3,16.1-4.7c0,8,0,13.4,0,18.4c20.8,4.1,22.8,2.7,25.5-16.2
		c0.8-5,1.4-10.1,2.5-15.1c1.6-8-1.7-11-9.6-10.9c-15,0.3-29.8-0.3-44.8,0.5c-3.8,0.2-10.2,3.3-10.7,6c-4.6,23.3-16.7,47.9,8.4,67.9
		c5.4,4.3,10.1,10.2,12.8,16.4c2.4,5.2,2.8,12.4,1.1,17.6C2191.8,1617.4,2184.1,1617.9,2178.4,1619.6z M1869.2,1507.1
		c-21.6,0-41-0.3-60.4,0.5c-2.5,0.2-6,5.2-6.9,8.7c-10.4,40.5-10.2,40.5,16.2,72.3c0.6,0.8,1.1,1.4,1.9,2
		c7.9,7.6,10.1,16.2,5.2,26.8c-5,0-10.1,0-15.3,0c0-7.2,0-13.1,0-18.9c-20.2-4.7-22.7-3.3-25.8,15.6c-0.9,6-1.4,12.1-2.8,18
		c-1.9,8,1.1,11.3,9.1,11.3c15.4-0.2,30.9,0.5,46.2-0.5c3.6-0.2,9.1-4.4,10.1-7.9c11.8-39.6,11-42.1-15.8-73.4
		c-2-2.5-5.8-4.6-6.3-7.2c-1.1-6.5-2.4-13.9-0.2-19.5c0.9-2.7,9.6-2.5,11.2-2.8c4.6,8.5,6.5,17,10.2,18c5.2,1.3,15.8-1.9,17-5.5
		C1866.7,1533.1,1867.2,1520.8,1869.2,1507.1z M1716.4,1506.6c-15.4,0-28.5,0.2-41.4,0c-23.5-0.2-26.8-2-28.4,22.5
		c-0.3,5-1.7,10.1-3.2,15c-3,9.8-1.4,17.8,6,25.5c7.7,8,15.4,16.5,21.1,26c3,5,3.6,13.2,1.9,18.9c-0.8,2.8-9.5,3.2-15.9,5
		c0.3-6,1.1-8.8,0.5-11.5c-0.9-3.9-3-11.2-4.1-11.2c-6.5,0.5-17,1.3-18.1,4.7c-4.4,12.6-5.7,26.5-8.4,41.6c21.3,0,39.1,0.6,56.6-0.5
		c4.1-0.3,10.1-6.3,11-10.6c9.6-39.4,9.3-39.4-16.4-70.9c-0.6-0.8-1.1-1.6-1.9-2c-9-8-9.9-17-3.3-27.9c4.4,0.3,8.8,0.5,14,0.8
		c0,3.3-0.8,6,0.2,7.7c2,3.8,5,9.9,7.4,9.9c5.5-0.3,14.5-2.5,15.8-6.1C1713.5,1532.6,1714.2,1520.5,1716.4,1506.6z M1893.7,1619.6
		c1.4-22.5,0.2-24-13.1-23.3c-10.6,0.6-10.9,8.2-12.3,15.6c-6.6,37.5-7.6,31.2,24.4,31.5c36.7,0.3,36.4,0,43.5-36.6
		c2.2-11,0.9-19.7-7.2-27.9c-7.6-7.6-14.8-15.8-20-24.9c-3-5.2-3.2-13.6-1.3-19.4c0.8-2.5,9.9-2.5,15.8-3.8
		c-1.1,18.9,2.2,22.8,15.6,19.2c3.8-1.1,8.4-7.1,9-11.3c1.6-10.1,1.1-20.6,1.1-30.9c0-0.5-4.3-1.3-6.5-1.3
		c-15.4-0.2-30.7-0.3-46.2,0.2c-3.2,0.2-8.7,2.4-9.1,4.4c-3.5,15-7.4,30.1-7.9,45.2c-0.2,6.3,7.6,13.2,12.3,19.4
		c5,6.8,12,12.3,15.6,19.5c2.8,5.5,3.8,13.4,2,19.4C1908.5,1617.5,1899.6,1618,1893.7,1619.6z M1163.9,1641.6
		c22.4,3.8,22.8,3.5,22.8-16.7c0-32.1,0.2-64.4-0.3-96.6c-0.2-8.2,4.9-19.9-10.2-21.6c-20.8-2.5-24.3-0.8-29.5,15.6
		c-9.6,31.2-19.4,62.4-29,93.4c-2.7,8.7-5.2,17.3-7.4,24.6c24.4,14.2,31.2-20.3,51.7-16.1
		C1162.8,1631.1,1163.4,1636.4,1163.9,1641.6z M1102.5,1642.9c0-5.8-0.3-10.4,0-15c1.6-21.9-7.1-46,13.4-64.1c1.6-1.4,1.4-5.2,1.4-8
		c0.2-11.7,0-23.3,0.2-35c0.2-9.6-4.3-13.4-13.6-13.1c-9.8,0.3-19.5,0.8-29.3-0.2c-11.8-0.9-16.7,4.1-18.3,15.4
		c-4.3,31.8-9.1,63.5-13.7,95.3c-1.1,7.9-2,15.9-3,24.1c8.7,0,15,0,21.6,0c4.4-14.5,1.9-31.8,21.3-39.6c0,14,0,26.8,0,39.9
		C1089.4,1642.9,1094.9,1642.9,1102.5,1642.9z M1736.9,1623.4c1.6-11.3,2.8-20.2,4.1-29.2c9-0.6,16.4-1.1,24.3-1.6
		c0-8.7,0-16.2,0-24.4c-7.1-0.6-13.4-1.3-21.3-2c1.9-10.4,1.7-21,6.3-28.8c2.2-3.8,14-0.8,20.6-3.3c3.8-1.4,7.1-6.9,8.5-11.2
		c4.1-12.3,0-18.3-13.9-16.7c-7.9,0.9-15.9,0.8-23.6,0.2c-11-0.9-14.5,4.3-15.6,14.3c-3.2,28.7-7.4,57.2-10.9,85.9
		c-1.4,11.8-2.4,23.6-3.5,35.9c18.9,0,35.9,0,53.1,0c0-6.6,0-12.3,0-19.2C1755.6,1623.4,1747.4,1623.4,1736.9,1623.4z
		 M1050.8,1507.7c-21.4,0-41.3-0.3-61.1,0.3c-2.8,0.2-6.6,4.4-8,7.6c-6.1,15.4,5.2,16.1,17.8,16.5c-6.5,37.3-12.6,73.7-18.8,109.8
		c24.9,5.2,25.5,4.6,29.3-17.5c4.6-27.6,9.3-55,14.5-82.4c0.8-3.9,5.5-10.4,8.2-10.2C1049.4,1533.1,1050,1522.4,1050.8,1507.7z
		 M1242.9,1508.8c-23.8-4.9-25.5-3.6-29.2,17c-6,34.5-12,68.9-18,103.4c-1.1,6-5.2,14,6,14.5c8.2,0.3,18.4,3.8,20-10.4
		c1.1-10.2,3.3-20.2,5-30.3C1232.1,1572,1237.5,1540.8,1242.9,1508.8z M1958.4,1644c9.3,1.6,12.9-3.2,14.5-12.1
		c6-36.7,12.8-73.3,18.8-110c0.9-5.5,4.9-14-6.1-15c-8.7-0.8-17.3-2.7-19.4,11c-5.8,37.7-12.8,75.2-19.7,112.7
		C1944.2,1641.5,1947.5,1645.6,1958.4,1644z M1314.7,1641.5c23.5,5.7,25.8,4.1,29.5-16.1c3-17.3,6.1-34.8,9-52.2
		c3.5-21.4,6.8-42.9,10.1-64c-22.4-5.8-25.7-3.8-28.5,16.5c-0.8,5-1.4,10.1-2.4,15.1C1326.5,1574.2,1320.7,1607.6,1314.7,1641.5z"/>
	<path class="st0" d="M260.2,852.8c8,1.3,16.2,3.3,24.3,3.5c21.4,0.3,42.9,0.2,64.1-0.9c6.6-0.3,13.7-3.5,19.4-7.2
		c23-15.1,44.9-31.8,68.4-46.2c26.5-16.2,54.4-30.3,81.2-46.2c7.6-4.4,13.6-11.7,20-17.8c3-2.8,4.7-7.1,8-9.3
		c32.3-22.1,63.5-45.9,97.4-65.1c31-17.6,47.6-44.8,53.6-76.3c6.6-35,4.4-71.4,8.2-107c1.3-12.6,6.3-26.6,14-36.6
		c14.8-18.9,42.5-21.1,63.5-8.8c21.6,12.6,40.8,26.5,43.5,54.2c0.5,4.3,3.6,8.4,5.5,12.4c-15,3.8-24.3,28.8-20.6,46.6
		c-7.2,16.7-12.6,29.3-19.9,46c14-3.8,23.8-5.8,33.2-9.1c16.7-5.5,32.6-4.3,46.6,5.8c25.7,18.4,50.7,37.8,76.3,56.4
		c7.4,5.4,15.4,9.9,23.8,13.6c29.5,12.6,58.9,25.5,89,36.7c30.1,11,60.8,20.6,91.6,29.9c15.3,4.6,22.2,18,14.5,32
		c-4.6,8.5-15.8,9.8-22.1,2.5c-24.3-28.2-55.9-37.5-91.9-38c-16.7-0.2-33.6-2.5-49.8-6.1c-12.4-2.8-24.1-9.1-36.1-14.5
		c-6.3-2.8-11.8-7.7-18.4-9.8c-20.8-6.5-41.8-12.1-65.6-18.9c18,32.5,30.9,65.9,66.3,81.3c9.8,4.3,17,9,18.6,21.4
		c1.4,11.2,11.3,16.1,22.4,17.8c53.7,8.4,107.6,9.6,161.8,6.1c15.8-0.9,31.7-0.2,48.2-0.2c2.8,29.6,27.7,32.9,49.3,37.7
		c23.5,5,47.7,7.6,71.7,8.5c42.2,1.6,81.2,15.9,121,27.1c7.6,2.2,15.1,4.3,24.3,6.9c-1.4,9.6-2.7,19.2-4.3,30.7
		c-56.6-4.1-114.1,10.2-167.8-17.5c-4.7-2.4-10.9-2.7-16.2-2.7c-16.9,0-33.7-0.3-50.3,1.6c-8.5,0.9-16.2,6.5-24.6,9.5
		c-3.6,1.3-7.7,2.4-11.5,1.9c-26.6-4.3-52.9-3.8-78.8,4.6c-5.7,1.9-11.8,2-17.8,2.2c-27.9,0.2-55.8,0.2-85.6,0.2
		c-4.7,28.7-9.1,56.6-13.9,84.5c-6.6,39.1-13.2,78.2-20.6,117.1c-0.9,4.6-6.1,10.1-10.6,11.7c-2.7,0.9-9.8-4.1-11.5-7.9
		c-19.2-41.9-37.3-84.3-56.7-126.1c-11.5-24.9-24.7-49-37.8-73.1c-2-3.9-7.7-9.1-11-8.7c-13.2,1.9-16.4-7.9-23.2-15.4
		c-21.6-24.3-43.8-47.6-67.3-69.3c-26-24.1-53.6-46.3-80.5-69.3c-17.3-14.8-34.2-15.3-53.9-4.1c-21.7,12.4-44.4,23.3-66.7,34.8
		c-5.8,3-12.1,5.4-17.2,9.5c-43.2,34.8-93.9,50.3-147.2,60.4c-8.5,1.6-17.6,4.1-24.6,8.8c-20.8,14.7-42.2,14.7-65.1,6.9
		c-14-4.7-28.2-9.1-42.4-13.7C259.3,856.3,259.7,854.5,260.2,852.8z"/>
	<path class="st0" d="M1634.8,974.9c-21.3,6.1-35.5-4.9-48.1-27.9c-10.9-19.9-11-33.2-0.8-53.7c14.7-29.5,32.8-42.4,65.9-37.5
		c13.1,1.9,22.5,3,28.4,16.4c6.3,14,15.4,26.6,22.2,40.3c2,4.1,1.4,10.4,0,15c-1.7,5.7-5.8,10.6-8.7,15.9
		C1676,974.9,1676,974.9,1634.8,974.9z"/>
	<path class="st0" d="M1580.6,810.7c3.6,9.5,8.5,20.2,11.8,31.2c1.3,4.3,0.5,10.1-1.6,14.2c-5.7,11.2-14.5,21.1-18.4,32.8
		c-8,23.8-26.2,29.3-47.6,30.1c-4.1,0.2-9.9-2.5-12.1-5.8c-8-12-15-24.7-21.7-37.3c-1.6-3-1.3-6.9-1.4-10.6c0-1.7,1.1-3.6,2-5
		c10.2-16.5,17-39.1,32-47.7C1537.7,804.3,1560.2,810.7,1580.6,810.7z"/>
	<path class="st0" d="M1732.1,809.2c26-8.7,35.5,13.6,47.3,32.6c10.9,17.6,14.8,34.8-0.8,52c-0.3,0.3-0.3,0.8-0.6,1.3
		c-15.4,26.9-15.4,27.3-45.9,20.2c-5.5-1.3-11.5-5.5-14.8-10.2c-7.9-11.5-12.8-25.4-21.7-35.8c-17.8-20.5-4.4-38.1,2.8-56.4
		c0.8-1.9,5-3.3,7.7-3.5C1713.7,808.9,1721.3,809.2,1732.1,809.2z"/>
	<path class="st0" d="M1642.5,1076.7c-5.4,0-7.7,0-10.1,0c-17.8-0.2-30.9-5.4-39.9-23.3c-15.9-31.7-17.3-31,7.2-56.9
		c2.8-3,7.7-5.4,11.7-5.5c18.6-0.5,37.3-1.4,55.8,0.5c6.8,0.6,14.2,7.4,19.2,13.1c17.3,19.5,17,19.9,3.9,41.9
		c-0.5,0.8-1.1,1.6-1.4,2.4C1680.9,1073.3,1662,1078.3,1642.5,1076.7z"/>
	<path class="st0" d="M1137.9,788.2c-45.9-2.8-91.9-5.7-137.7-8.5c-11-0.6-16.9-5-19.7-17.2c-1.7-7.2-10.7-14.5-18.1-18.4
		c-17.5-9.5-33.9-19.1-44.1-42.5c13.2,5,24.4,7.1,33.1,13.1c21.6,15,45.5,21,70.8,23.8c21.3,2.4,42.7,4.4,64,6.3
		c20.6,1.7,30.6,19.5,45.5,29.8c3.2,2.2,5,6.3,7.6,9.6C1138.7,785.5,1138.4,786.9,1137.9,788.2z"/>
	<path class="st0" d="M1483.2,890.8c23.6,25.2,29.6,54.4,28.4,85.1c-0.2,5.5-5.5,10.7-10.2,15.4C1482.7,959.7,1477,927,1483.2,890.8
		z"/>
	<path class="st0" d="M1796.1,891.3c6.8,35.8-0.2,67.8-16.4,102.3c-4.7-5.7-10.4-9.5-10.9-13.7
		C1765.4,947.4,1772,917.6,1796.1,891.3z"/>
	<path class="st0" d="M1504.4,1000.6c7.2-1.1,12.3-3.6,16.2-2.4c27.3,9.3,52.2,35.8,64.1,68.2
		C1550.8,1054,1525.4,1033.2,1504.4,1000.6z"/>
	<path class="st0" d="M1775,1000.3c-20.6,32.6-46.2,53.3-79.7,65.7c9.5-34.4,34.4-52.8,62.9-67.4
		C1761.8,996.8,1767.8,999.5,1775,1000.3z"/>
	<path class="st0" d="M1646.9,758.9c35.1,2,65.4,13.7,93.4,35.9C1697.9,802.5,1644.7,781.9,1646.9,758.9z"/>
	<path class="st0" d="M1539.7,794.8c27.1-22.7,57.4-33.1,95.8-36.4c-3.6,7.1-4.7,13.6-8.5,16.1C1601,791,1573.9,803.3,1539.7,794.8z
		"/>
	<path class="st0" d="M1284.8,911c-20,0-40.2,0-60.2,0c0-0.3,0-0.6,0-0.9c20,0,40.2,0,60.2,0C1284.8,910.3,1284.8,910.6,1284.8,911z
		"/>
	<path class="st1" d="M1459.8,1413.3c-26.3,0-50.4,0-76.3,0c0-20.8,0-41.4,0-62.6c-21.7-2.7-40.3-4.1-56.4,13.2
		c-14.5,15.6-31.7,28.8-47.7,42.9c-3.3,3-7.7,6.5-11.7,6.6c-20.5,0.6-40.8,0.3-63.3,0.3c1.7-6.3,2.8-11,4.3-15.8
		c42.7-137.4,85.6-274.8,128.3-412.2c3.8-12.3,10.7-18.8,24.1-18.4c23.3,0.5,46.6,0,70,0.2c23.6,0,28.8,5.4,28.8,28.7
		c0,104,0,208,0,312C1459.8,1342.7,1459.8,1377.1,1459.8,1413.3z M1382.8,1075.2c-0.5-0.2-0.8-0.3-1.3-0.5
		c-11.8,64.6-23.6,129.2-35.5,194.1c13.4,0,24.7,0,36.7,0C1382.8,1203.4,1382.8,1139.3,1382.8,1075.2z"/>
	<path class="st1" d="M2064,1348.4c19.4,0,37,0.3,54.7-0.3c2.5-0.2,6.6-4.6,7.2-7.6c3.3-15,6.6-30.1,7.9-45.4c0.5-6-3-13.4-7.1-18.3
		c-32.3-39.2-64.9-78.2-98-116.8c-8-9.5-10.6-18.8-8.4-30.7c8.5-45.4,16.9-90.8,24.9-136.1c2.4-13.6,9.5-20.2,23.8-20
		c60.7,0.3,121.3,0,182,0c16.1,0,18.9,3.3,16.4,19.4c-5.4,35-11.2,70-16.5,104.9c-1.7,11.7-7.6,17.6-19.2,17.8
		c-16.9,0.2-33.6-0.2-50.4,0c-10.4,0-14.3-5.4-12.8-15.1c2.5-15.1,5.2-30.1,8.2-47.3c-19.7,0-38.1-0.2-56.6,0.2
		c-2,0-4.4,2.7-5.8,4.7c-0.9,1.3-0.2,3.8-0.8,5.5c-13.9,36.9-1.9,65.4,24.9,92.5c26.5,26.8,49.6,56.9,73,86.5
		c5.4,6.8,8.5,18.1,7.2,26.6c-6.9,44.1-15.6,88.1-23.6,132c-4.4,24.1-6.8,26.3-30.6,26.5c-57.4,0.2-114.7,0.2-172.2,0.2
		c-19.4,0-23.6-5.4-20.3-25.1c5.8-35.3,11.8-70.8,18-106c2.8-16.4,10.1-22.7,26.3-23c13.1-0.3,26.2-0.3,39.2,0
		c15.1,0.3,20.3,7.4,17.6,22.7C2069.8,1312.8,2067.2,1329.6,2064,1348.4z"/>
	<path class="st1" d="M1042.6,1414.7c-7.9,0-15.9,0.2-23.8,0c-16.2-0.3-18.6-3-15.8-19.5c4.6-26.2,9.5-52.3,14-78.5
		c19.4-110.5,38.9-221.1,57.8-331.7c2.4-13.6,7.9-17.6,21.1-17.5c59.7,0.5,119.4,0.2,179,0.2c17,0,19.5,3.2,16.7,20
		c-10.6,61.9-21.3,123.9-31.4,185.9c-1.7,10.9-6.5,18.6-14.8,25.5c-45.5,38.4-90.9,77.2-135.7,116.6c-6,5.4-10.7,13.9-12.6,21.7
		c-4.9,20.8-8.5,41.9-11.5,63.2c-1.4,10.7-6.5,14.5-16.5,14C1060.4,1414.4,1051.4,1414.7,1042.6,1414.7z M1202.8,1045.5
		c-16.1,0-30.4,0.5-44.6-0.2c-9.6-0.5-12.8,3.6-14.2,12.6c-4.9,31.7-10.7,63.2-16.1,94.9c-3.6,21.6-6.8,43.2-10.7,67.8
		c11.2-9.6,19.1-17.8,28.2-24c26.2-17.8,42.1-40.5,44.3-73.6C1191.3,1097.7,1198.1,1072.8,1202.8,1045.5z"/>
	<path class="st1" d="M1539.6,1097.5c27.7,8.5,54.7,16.9,84.6,26c-14,69.5-28.4,141.2-43.2,214.5c21.4,0,40.8,0.5,60.4-0.5
		c3.3-0.2,8.5-6.5,9.3-10.6c11.2-52.8,21.9-105.7,32.6-158.7c3.3-15.9,6-32,9.6-47.9c0.8-3.5,4.1-7.9,7.1-9
		c33.9-10.9,62.9-29.8,90.8-53.9c-3,15.4-5.8,30.9-8.8,46.3c-16.5,81.6-33.2,163.4-50,245c-0.6,3.2-1.4,6.5-2.7,9.5
		c-10.2,24.6-56.9,55.6-83.7,55.6c-49.5,0-99,0-148.3,0c-15.4,0-20.2-5.2-17.3-19.4c18.8-95.5,37.7-191,56.6-286.5
		C1537.2,1104.2,1538.6,1100.4,1539.6,1097.5z"/>
	<path class="st1" d="M1856.9,1338c12,0,23.5,0.3,35.1-0.2c7.9-0.2,12,1.7,11.3,11c-1.3,16.2-1.7,32.6-2.2,48.8
		c-0.3,11.7-6.1,16.4-17.8,16.2c-35.5-0.3-70.9-0.2-106.4-0.2c-19.2,0-23.2-3.9-20.2-23.6c5.5-36.4,12-72.6,18-109
		c16.4-98.3,32.9-196.7,49-295c2-12.6,7.2-19.2,21-18.6c15.8,0.6,31.7,0,47.6,0.2c16.9,0.2,21.4,4.4,19.1,21.1
		c-5.5,37.8-11.8,75.5-18,113.3c-12.3,76.4-24.6,152.7-36.7,229.1C1856.5,1333,1856.8,1334.8,1856.9,1338z"/>
	<path class="st1" d="M1935.6,1048.2c15.4-41,29.2-77.8,43.2-114.7c1.9-5.2,4.4-10.2,6.8-15.3c12-26.8,17.5-29.8,49.6-26
		c-3.9,13.4-8.5,26.5-11.8,39.7c-7.9,32.5-15.6,65.1-22.7,97.9c-1.9,8.5-5,12.9-14,13.6C1971.3,1044.3,1956.2,1046.2,1935.6,1048.2z
		"/>
	<path class="st1" d="M1276.6,1641.8c3.9-23.5,7.7-45.9,11.7-68.4c2.4-13.4,2.8-26-12-36.7c-3,15.8-5.8,30.4-8.4,45.2
		c-2.4,13.7-4.6,27.6-6.6,41.4c-3.3,20.6-4.4,21.6-28.4,18.6c2.2-13.6,4.3-27.1,6.5-40.7c4.4-26.2,8.8-52.5,13.4-78.6
		c2.7-15.4,17.5-20.8,29.9-10.9c4.7,3.8,9.5,7.4,14.3,11.2c1.4-14.5,10.4-19.2,27.1-12.8c-1.4,9.6-2.7,19.5-4.4,29.6
		c-4.6,28-9.3,56.1-14,84.1C1302,1644.5,1301.2,1645,1276.6,1641.8z"/>
	<path class="st1" d="M2065.4,1641.6c6.8-41.3,13.2-81.6,20.5-122c0.8-4.1,5.2-10.7,8.2-10.9c7.2-0.5,15.3,1.3,22.1,4.1
		c4.6,2,7.7,7.6,12.8,12.9c2-17.5,11-21.9,27.1-16.4c-1.1,7.7-2,15.8-3.3,23.8c-4.9,30.7-9.8,61.6-15.1,92.3
		c-3.2,18.8-6.3,20.5-28,15.8c4.1-25.1,7.4-50.3,12.4-75.2c2.7-13.2-3.3-20.6-13.1-30.1c-5.5,31-10.4,60-15.9,89.2
		C2089.4,1645.1,2088.6,1645.3,2065.4,1641.6z"/>
	<path class="st1" d="M1398.7,1641.2c4.1-24.3,8-48.5,12.1-72.8c2.7-15.4,1.9-17.8-12.6-31.5c-2.5,13.6-4.9,26.2-7.1,38.6
		c-2.8,16.1-5.5,32.1-8.4,48.2c-3.8,21.1-4.6,21.7-28,18c5.5-32.8,10.9-65.7,16.4-98.5c0.9-6,0.9-12.3,3-17.8
		c2.2-6,5.7-15.6,9.5-16.1c7.7-0.8,16.4,2.5,23.8,6c3.5,1.6,4.9,7.6,9.6,10.9c2.2-22.1,15.3-18.8,29.2-17.3
		c-3.6,21.4-7.1,42.4-10.4,63.2c-2.8,17.5-5.7,35-8.5,52.3C1423.6,1645.1,1421.1,1646.7,1398.7,1641.2z"/>
	<path class="st1" d="M1520.8,1563.3c-3.8,27.1-7.2,52.8-11,79.3c-22.4,0-44,0-67.1,0c4.1-27.1,7.9-53.3,12-79.3
		c2.4-15.6,4.6-31.4,7.7-46.8c0.8-3.6,5.5-9.1,8.5-9.3c18.4-0.9,37-0.5,57.8-0.5c-1.7,12.9-1.7,24.7-5.4,35.3
		c-1.4,4.1-11.3,5-18.6,8c-1.6-7.1-2.5-10.9-4.4-19.1c-6.9,4.3-15.8,6.8-16.5,10.9c-4.9,24.6-7.9,49.6-11.5,74.4
		c17.6,5.7,19.9,4.6,21.7-11.2c1.1-9.9,6.8-20.5-2.4-30.3c-0.8-0.8,4.7-10.2,8.7-11.7C1506,1560.8,1513,1562.9,1520.8,1563.3z"/>
	<path class="st1" d="M1984.6,1643.4c1.7-11.8,3-21.3,4.6-30.7c4.6-27.1,9.3-54,14.2-81c2.8-15.4,13.4-23.8,29.2-23.8
		c9.3,0,18.6,0.3,27.9,0c8.4-0.3,12.3,2.7,10.7,11.5c-6.3,34.8-12,69.6-18.9,104.3c-2.4,12-12,18.9-24.1,19.7
		C2014.5,1644,2001,1643.4,1984.6,1643.4z M2012.6,1618.5c12.9,3.2,18.4,0.2,19.5-12c1.3-14.3,4.9-28.4,7.4-42.5
		c1.7-10.2,3.3-20.5,4.9-30.7c-1.3-1.1-2.5-2.2-3.8-3.3c-4.6,2.8-12.6,5-13.4,8.7C2021.6,1564.9,2017.5,1591.4,2012.6,1618.5z"/>
	<path class="st1" d="M2178.4,1619.6c5.7-1.7,13.4-2.2,14.3-4.9c1.7-5.2,1.3-12.4-1.1-17.6c-2.7-6.1-7.6-12.1-12.8-16.4
		c-25.2-20-12.9-44.6-8.4-67.9c0.5-2.7,6.9-5.7,10.7-6c14.8-0.6,29.8-0.2,44.8-0.5c7.9-0.2,11.2,2.8,9.6,10.9
		c-1.1,5-1.7,10.1-2.5,15.1c-2.7,18.9-4.7,20.3-25.5,16.2c0-5.2,0-10.4,0-18.4c-6.3,1.7-15.4,2.2-16.1,4.7
		c-1.4,6.5,0.5,13.9,1.9,20.6c0.5,2.4,3.5,4.3,5.2,6.5c26.2,30.1,26.9,32.8,15.9,71.1c-1.3,4.3-7.6,9.5-11.8,9.8
		c-15.3,1.1-30.7,0.2-46,0.5c-7.9,0.2-9.9-3.6-8.8-10.4c1.3-7.4,3.2-14.7,3.6-22.1c0.9-11.2,6.5-15.4,17.5-14.7
		c12.8,0.9,7.4,10.2,8.2,16.7C2177.5,1613.8,2177.6,1614.7,2178.4,1619.6z"/>
	<path class="st1" d="M1869.2,1507.1c-2,13.7-2.5,26-6.5,37.2c-1.3,3.6-11.8,6.8-17,5.5c-3.8-0.9-5.7-9.5-10.2-18
		c-1.4,0.3-10.1,0.2-11.2,2.8c-2.2,5.8-0.9,13.1,0.2,19.5c0.5,2.7,4.1,4.9,6.3,7.2c26.9,31.5,27.6,33.9,15.8,73.4
		c-1.1,3.5-6.5,7.7-10.1,7.9c-15.3,0.9-30.7,0.3-46.2,0.5c-8,0-10.9-3.3-9.1-11.3c1.4-5.8,1.9-12,2.8-18
		c3.2-18.9,5.7-20.5,25.8-15.6c0,5.7,0,11.7,0,18.9c5.2,0,10.4,0,15.3,0c4.9-10.6,2.8-19.2-5.2-26.8c-0.6-0.6-1.3-1.4-1.9-2
		c-26.5-31.8-26.6-32-16.2-72.3c0.8-3.3,4.4-8.5,6.9-8.7C1828.3,1506.8,1847.6,1507.1,1869.2,1507.1z"/>
	<path class="st1" d="M1716.4,1506.6c-2.2,13.9-2.8,26-6.5,37.2c-1.1,3.6-10.1,5.8-15.8,6.1c-2.4,0.2-5.4-6.1-7.4-9.9
		c-0.9-1.7-0.2-4.4-0.2-7.7c-5.2-0.3-9.6-0.6-14-0.8c-6.6,10.9-5.7,19.9,3.3,27.9c0.6,0.6,1.3,1.4,1.9,2
		c25.7,31.5,26,31.5,16.4,70.9c-1.1,4.3-7.1,10.2-11,10.6c-17.6,1.1-35.3,0.5-56.6,0.5c2.7-15.1,3.9-29,8.4-41.6
		c1.1-3.5,11.8-4.3,18.1-4.7c1.1-0.2,3.2,7.1,4.1,11.2c0.6,2.5-0.2,5.5-0.5,11.5c6.5-1.9,15-2.4,15.9-5c1.7-5.8,1.1-13.9-1.9-18.9
		c-5.7-9.5-13.4-18-21.1-26c-7.4-7.6-8.8-15.8-6-25.5c1.4-4.9,3-9.9,3.2-15c1.4-24.6,4.9-22.8,28.4-22.5
		C1687.9,1506.6,1700.9,1506.6,1716.4,1506.6z"/>
	<path class="st1" d="M1893.7,1619.6c6-1.7,14.8-2.2,15.6-4.9c1.7-5.8,0.8-13.7-2-19.4c-3.8-7.2-10.6-12.9-15.6-19.5
		c-4.7-6.1-12.4-13.1-12.3-19.4c0.5-15.1,4.4-30.3,7.9-45.2c0.5-2.2,6-4.4,9.1-4.4c15.4-0.5,30.7-0.2,46.2-0.2
		c2.2,0,6.5,0.8,6.5,1.3c0,10.4,0.5,20.8-1.1,30.9c-0.6,4.3-5,10.2-9,11.3c-13.4,3.6-16.7-0.3-15.6-19.2c-6,1.3-15,1.3-15.8,3.8
		c-1.9,5.8-1.7,14.2,1.3,19.4c5.2,9.1,12.6,17.3,20,24.9c8.2,8.2,9.3,17,7.2,27.9c-7.2,36.6-6.9,36.9-43.5,36.6
		c-32-0.3-31,6.1-24.4-31.5c1.3-7.4,1.6-15,12.3-15.6C1893.8,1595.6,1895.1,1597.2,1893.7,1619.6z"/>
	<path class="st1" d="M1163.9,1641.6c-0.5-5.2-1.1-10.6-1.7-17.2c-20.5-4.4-27.4,30.3-51.7,16.1c2.2-7.4,4.7-16.1,7.4-24.6
		c9.6-31.2,19.2-62.4,29-93.4c5-16.4,8.7-18.1,29.5-15.6c15.1,1.9,10.2,13.4,10.2,21.6c0.5,32.1,0.3,64.4,0.3,96.6
		C1186.8,1645.1,1186.3,1645.4,1163.9,1641.6z M1160.9,1552.8c-2.4,14.8-4.9,29.6-7.7,46.8
		C1163.8,1593.4,1165.2,1581.6,1160.9,1552.8z"/>
	<path class="st1" d="M1102.5,1642.9c-7.6,0-13.1,0-20,0c0-13.1,0-25.8,0-39.9c-19.4,7.7-16.9,25.1-21.3,39.6c-6.5,0-12.8,0-21.6,0
		c0.9-8.2,1.9-16.2,3-24.1c4.6-31.8,9.5-63.5,13.7-95.3c1.6-11.3,6.3-16.5,18.3-15.4c9.8,0.8,19.5,0.5,29.3,0.2
		c9.3-0.3,13.9,3.6,13.6,13.1c-0.3,11.7,0,23.3-0.2,35c0,2.7,0.2,6.6-1.4,8c-20.5,18.1-11.7,42.2-13.4,64.1
		C1102.1,1632.5,1102.5,1637.1,1102.5,1642.9z M1092.2,1529c-5.8,3.9-12.4,6-13.4,9.5c-3.3,12.9-4.7,26.3-7.1,41.1
		C1090.3,1567.9,1097.1,1553.2,1092.2,1529z"/>
	<path class="st1" d="M1736.9,1623.4c10.6,0,18.8,0,28,0c0,6.8,0,12.4,0,19.2c-17.3,0-34.4,0-53.1,0c1.3-12.3,2-24.1,3.5-35.9
		c3.5-28.7,7.7-57.2,10.9-85.9c1.1-10.1,4.6-15.4,15.6-14.3c7.9,0.8,15.9,0.8,23.6-0.2c13.9-1.6,18,4.4,13.9,16.7
		c-1.4,4.4-4.7,9.9-8.5,11.2c-6.6,2.4-18.4-0.5-20.6,3.3c-4.6,7.7-4.4,18.3-6.3,28.8c7.9,0.8,14.2,1.3,21.3,2c0,8.2,0,15.8,0,24.4
		c-7.9,0.5-15.1,0.9-24.3,1.6C1739.7,1603,1738.4,1612,1736.9,1623.4z"/>
	<path class="st1" d="M1050.8,1507.7c-0.6,14.7-1.4,25.4-18.1,24.3c-2.5-0.2-7.4,6.3-8.2,10.2c-5.4,27.4-9.9,55-14.5,82.4
		c-3.8,22.1-4.4,22.7-29.3,17.5c6.1-36.1,12.4-72.3,18.8-109.8c-12.6-0.5-24-1.1-17.8-16.5c1.3-3.2,5.2-7.4,8-7.6
		C1009.3,1507.4,1029.3,1507.7,1050.8,1507.7z"/>
	<path class="st1" d="M1242.9,1508.8c-5.5,32-10.7,63-16.1,94.2c-1.7,10.1-3.9,20.2-5,30.3c-1.4,14-11.8,10.7-20,10.4
		c-11-0.5-6.9-8.5-6-14.5c6-34.5,12-68.9,18-103.4C1217.3,1505.2,1219.1,1504.1,1242.9,1508.8z"/>
	<path class="st1" d="M1958.4,1644c-10.9,1.6-14.2-2.5-12.1-13.6c7.1-37.5,13.9-75,19.7-112.7c2-13.7,10.7-11.7,19.4-11
		c11,0.9,7.1,9.3,6.1,15c-6,36.7-12.8,73.3-18.8,110C1971.3,1641,1967.7,1645.6,1958.4,1644z"/>
	<path class="st1" d="M1314.7,1641.5c6-34,11.8-67.3,17.5-100.7c0.9-5,1.6-10.1,2.4-15.1c3-20.3,6.1-22.4,28.5-16.5
		c-3.3,21.1-6.6,42.5-10.1,64c-2.8,17.5-5.8,34.8-9,52.2C1340.7,1645.7,1338.2,1647.2,1314.7,1641.5z"/>
	<path class="st0" d="M1382.8,1075.2c0,64.1,0,128.3,0,193.7c-12,0-23.3,0-36.7,0c11.8-64.9,23.6-129.5,35.5-194.1
		C1382,1074.8,1382.3,1075,1382.8,1075.2z"/>
	<path class="st0" d="M1202.8,1045.5c-4.9,27.4-11.5,52.3-13.1,77.5c-2,33.1-18.1,55.8-44.3,73.6c-9.1,6.3-17,14.3-28.2,24
		c3.9-24.6,7.1-46.2,10.7-67.8c5.4-31.7,11.2-63.2,16.1-94.9c1.4-9,4.6-13.1,14.2-12.6C1172.4,1046,1186.8,1045.5,1202.8,1045.5z"/>
	<path class="st0" d="M2012.6,1618.5c4.7-27.1,9-53.6,14.7-79.7c0.8-3.6,8.8-5.8,13.4-8.7c1.3,1.1,2.5,2.2,3.8,3.3
		c-1.6,10.2-3.2,20.5-4.9,30.7c-2.5,14.2-6,28.2-7.4,42.5C2031.1,1618.6,2025.6,1621.5,2012.6,1618.5z"/>
	<path class="st0" d="M1160.9,1552.8c4.3,28.7,2.8,40.7-7.7,46.8C1156,1582.6,1158.6,1567.7,1160.9,1552.8z"/>
	<path class="st0" d="M1092.2,1529c4.7,24.3-2,38.9-20.5,50.6c2.4-14.8,3.8-28.2,7.1-41.1C1079.8,1534.8,1086.5,1532.8,1092.2,1529z
		"/>
</g>
</svg>
