<?xml version="1.0" encoding="utf-8"?>
<!-- Generator: Adobe Illustrator 28.0.0, SVG Export Plug-In . SVG Version: 6.00 Build 0)  -->
<svg version="1.1" id="Layer_1" xmlns="http://www.w3.org/2000/svg" xmlns:xlink="http://www.w3.org/1999/xlink" x="0px" y="0px"
	 viewBox="0 0 1190.5 841.9" style="enable-background:new 0 0 1190.5 841.9;" xml:space="preserve">
<style type="text/css">
	.st0{fill:#D32A09;}
</style>
<g>
	<path d="M587.2,297.4c0-22,0-42.9,0-64.6c5.8,5.2,10.4,9.4,10.1,17.7c-0.6,18.8-0.2,37.5-0.2,56.3c0,1.8,0.1,3.8,1,5.3
		c9.8,17.3,20.9,33.7,32.8,49.8c11.8,15.9,39.9,15.9,53.3,5.7c0.8-0.6,1.6-1.2,2.3-1.9c7.3-7.9,7.3-7.9,18.6-7.1
		c-2.3,3.4-4,6.7-6.5,9.4c-20.3,22.1-57.7,22.1-77.4-0.4c-6-6.9-10.2-15.4-15.4-23.2c-8.1-12.1-15.4-24.8-24.6-36
		c-10.7-13-25.3-19.2-42.5-16.9c-17,2.2-28.2,12.6-33.4,28.3c-5.2,15.6-2.1,30.3,10,42.2c14.5,14.2,34.3,17.3,51,7.2
		c12.2-7.4,19.6-18.7,20.6-33.4c0.1-1.1,0.1-2.2,0.3-4.6c3.1,4.3,5.7,7.5,7.8,11c0.7,1.2,0.6,3.2,0.2,4.6
		c-5.8,18.5-17.6,31.2-36.6,35.8c-19.7,4.8-37.8,0.5-51.6-14.6c-16.8-18.3-17.8-43.4-5.9-62.7c7.4-12.1,18.3-18.7,31.4-22.8
		c18.8-6,34.3,1.8,49.6,11C583.4,294.5,584.8,295.7,587.2,297.4z"/>
	<path d="M548.9,504.4c-6.3,1.4-10.8,0.3-14.7-5.2c-9.5-13.2-19.7-25.8-29.6-38.7c-1.2-1.5-2.5-2.9-4.6-5.4c0,17.3,0,33.3,0,49.5
		c-4.2,0-7.8,0-11.7,0c0-23.2,0-46.2,0-69.2c7.8-2.2,10.7-1.5,15.3,4.5c9.8,12.6,19.4,25.2,29.2,37.8c1.1,1.4,2.3,2.8,4.2,5.2
		c0-16.6,0-32,0-47.9c4.3,0,8,0,12,0C548.9,458.1,548.9,481.1,548.9,504.4z"/>
	<path d="M693.3,506.2c-21.4,0-36.7-15.1-36.8-36.2c-0.1-21.1,15.7-36.6,37.1-36.6c21.2,0,37,15.3,36.8,36.2
		C730.2,490,715.9,506.1,693.3,506.2z M717.6,470.1c0.1-14-10.8-25.7-24.1-26c-13.3-0.3-24.2,11.2-24.2,25.7
		c-0.1,13.8,10.7,25.5,23.8,25.8C706.5,495.8,717.5,484.3,717.6,470.1z"/>
	<path d="M181.5,504.8c0-23.6,0-46.4,0-70.2c14.7,1,29.5-2.6,43.7,3.5c17.9,7.7,25.4,30.6,16.3,47.9c-6.5,12.3-16.9,17.9-30.1,18.7
		C201.6,505.3,191.8,504.8,181.5,504.8z M193.8,494.3c2.4,0,4.4,0,6.4,0c8.2-0.1,16.3,0.5,23.5-5.5c11.4-9.6,11.7-27.7,0.4-37.5
		c-9.2-8.1-19.7-5.4-30.3-6.1C193.8,461.8,193.8,477.7,193.8,494.3z"/>
	<path d="M633.9,442.6c-2.5,3.3-4.8,6.3-6.5,8.6c-5.4-2.3-10.1-5.3-15.2-6.4c-12.8-2.7-20,2.6-26,13.3c-5,9-2.8,22.5,4.3,29.7
		c8,8.1,20.5,10.2,30.6,4.5c1.9-1,3.2-3.9,3.7-6.2c0.6-2.8,0.2-5.9,0.2-9.5c-6,0-11.8,0-17.8,0c0-3.8,0-7.1,0-10.8
		c9.6,0,19.3,0,29.6,0c0,9.4,0,18.8-0.1,28.2c0,0.9-0.9,2.1-1.7,2.8c-12.4,11-36.6,12.3-50.1,2.7c-12.5-8.9-17.8-28-11.9-43
		C582.5,432.7,614.2,425.3,633.9,442.6z"/>
	<path d="M314.6,463.5c0,4.2,0,7.5,0,11.4c-11.7,0-23.2,0-35.1,0c0,6.7,0,12.8,0,19.4c13.3,0,26.5,0,40.1,0c0,3.7,0,6.7,0,10.2
		c-17.3,0-34.5,0-52.1,0c0-23.1,0-46.2,0-69.6c17.1,0,34.2,0,51.5,0c0,3.3,0,6.4,0,10.1c-13.2,0-26.2,0-39.5,0c0,6.4,0,12.2,0,18.5
		C290.9,463.5,302.5,463.5,314.6,463.5z"/>
	<path d="M395.9,504.5c2.3-5.6,4.3-10.8,6.5-15.9c7.4-16.9,14.9-33.6,22.1-50.6c1.6-3.7,3.8-4.3,7.2-4c3.2,0.3,6.2-0.6,8,3.8
		c9.1,21.5,18.6,42.9,27.9,64.3c0.3,0.7,0.5,1.5,0.8,2.8c-3.7,0-7,0.3-10.2-0.1c-1.3-0.2-2.8-1.5-3.4-2.7c-1.8-3.5-3.4-7.2-4.7-11
		c-0.8-2.4-1.9-3.4-4.5-3.4c-9.1,0.1-18.3-0.1-27.4,0.2c-1.4,0-3.1,1.7-4.1,3.1c-1.1,1.4-1.4,3.3-2.2,5
		C407.7,505.8,407.7,505.8,395.9,504.5z M444.5,477.2c-4.2-9.6-8.1-18.5-12.5-28.6c-4.4,10.4-8.2,19.2-12.2,28.6
		C428.3,477.2,435.9,477.2,444.5,477.2z"/>
	<path d="M849.2,444c-2.5,3.2-4.8,6.2-7.5,9.6c-7.2-7.3-15.3-10.9-25.3-8.9c-5.8,1.2-9.6,5-13,9.3c-7.5,9.5-6.5,24.9,1.8,33.5
		c10.7,11,20.2,10.7,37.3-1.8c2.4,2.7,4.8,5.5,7.2,8.2c-13.4,15.2-38.7,16.6-53.2,2.6c-14.3-13.9-15.2-37-1.4-52.2
		C808.6,429.7,834.7,429.6,849.2,444z"/>
	<path d="M973.2,434.7c4.6,0,8.6-0.3,12.4,0.2c1.4,0.2,2.9,2,3.8,3.4c5.8,8.9,11.4,17.8,17.6,27.6c5.2-8.2,10.6-15.4,14.5-23.3
		c4.2-8.6,10.7-8.9,18.9-7.3c-4,6.3-7.9,12.4-11.8,18.4c-4.6,7.1-9.4,14-13.9,21.2c-1.1,1.7-1.4,4-1.5,6.1
		c-0.2,7.8-0.1,15.5-0.1,23.6c-4.2,0-7.9,0-12.5,0c0-5-0.5-10.1,0.1-15.1c1.1-9-2.2-16.3-7.1-23.4c-6.5-9.4-12.7-19-19-28.6
		C974.2,436.9,974,436.1,973.2,434.7z"/>
	<path d="M937.9,504.7c-4.4,0-8,0-12.3,0c0-19.6,0-39.1,0-59.2c-7.9,0-15.1,0-22.5,0c0-3.8,0-6.9,0-10.4c19,0,37.8,0,57,0
		c0,3.3,0,6.5,0,10.4c-7.2,0-14.5,0-22.2,0C937.9,465.5,937.9,484.8,937.9,504.7z"/>
	<path d="M368.5,434.9c3.6,0,7.4,0,11.5,0c0.1,1.8,0.3,3.4,0.3,5c0,13.6,0,27.2,0,40.8c0,12.8-4.7,20.7-14.1,23.8
		c-11.9,3.9-24.5,0.2-31.8-9.5c2.4-2.8,4.9-5.6,7.9-9c1.5,1.8,2.7,3.2,3.8,4.6c3.6,4.4,8.5,5,13.5,4.1c5-0.9,6.9-5,7.5-9.4
		c0.7-4.4,0.6-8.9,0.7-13.4c0.1-11.9,0.1-23.9,0.2-35.8C367.9,435.8,368.2,435.5,368.5,434.9z"/>
	<path class="st0" d="M617.6,328c-2.3-4.2-5-7.6-5.9-11.4c-0.6-2.6,1-6,2.3-8.6c5.2-9.9,12.9-17.7,23.2-22.1
		c7.5-3.1,15.6-5.4,23.6-6.1c5.2-0.5,10.7,2.6,16.1,4c9.8,2.5,16.9,9.1,23.9,15.7c1.9,1.7,2.7,4.7,3.7,7.2c0.2,0.6-0.7,2.2-1.4,2.5
		c-3.8,1.7-8.7-0.7-11.7-3.6c-4.8-4.6-8.9-9.6-16.5-11.4c-4.2-1-8.6-2.2-12.9-2.8c-8.3-1.3-15.6,1.4-22.9,5
		c-8.2,4.1-13,11.3-17.2,18.7C619.9,318.8,619.2,323.2,617.6,328z"/>
	<path d="M882.3,504.7c-4,0-7.6,0-11.6,0c0-23.2,0-46.3,0-69.7c3.8,0,7.6,0,11.6,0C882.3,458.2,882.3,481.1,882.3,504.7z"/>
</g>
</svg>
