<?xml version="1.0" encoding="utf-8"?>
<!-- Generator: Adobe Illustrator 28.0.0, SVG Export Plug-In . SVG Version: 6.00 Build 0)  -->
<svg version="1.1" id="Layer_1" xmlns="http://www.w3.org/2000/svg" xmlns:xlink="http://www.w3.org/1999/xlink" x="0px" y="0px"
	 viewBox="0 0 1741.6 1389.9" style="enable-background:new 0 0 1741.6 1389.9;" xml:space="preserve">
<style type="text/css">
	.st0{fill:#2B3289;}
	.st1{fill:#FFFFFF;}
	.st2{fill:#B3F400;}
</style>
<path class="st0" d="M1431,641.5h-159c2.9-12.1,5.6-23,8.4-34.8c-14.3,0-27.2,1.4-39.7-0.3c-19.6-2.7-33.1,2.7-39,22.6
	c-0.4,1.1-1.4,2-1.8,3.1c-3.4,9-9.6,11.8-19.3,11.4c-21.2-0.7-42.5-0.2-61.9-0.2c-5.1,15.7-8.4,30.5-14.6,44.2
	c-20,43.9-69.1,68.2-119.6,60.4c-46.6-7.2-85.4-46.2-91.5-92.7c-1.2-8.9-4.1-13.8-13.8-11.9c-1.4,0.2-2.9,0-4.4,0
	c-84.1,0-168.3,0.1-252.4,0c-6.4,0-10,1-11.3,8.5c-15.1,88-29.9,176.1-46.4,263.9c-4.5,24.1-4.6,45.6,11.4,65.5
	c4.3,5.3,6.8,12.1,10.6,19.2c-3.8,0.4-6.1,1.1-8.3,0.8c-7.4-1.1-10.5,1.6-10.9,9.4c-0.8,15.1-2.8,30.1-4.1,45.1
	c-1.4,17-2.7,34.1-4.1,51.7h814.6c0.4-1.1,1-2.1,1.2-3.2c6.5-30.3,13.1-60.7,19.2-91.1c0.5-2.4-2.1-7-4.4-8
	c-8.4-3.8-9.5-9.4-8.1-17.8c7-41.7,13.6-83.5,19.9-125.3c0.6-3.9-0.5-8.9-2.5-12.3c-12.4-20.9-25.3-41.4-38-62.1
	c-1.1-1.8-1.9-3.8-3.4-7h52.4C1417.2,734.1,1424,688.4,1431,641.5z M1218.8,647.1c1.3-3.3,2.9-6.5,4.3-9.7
	c7.6-17,11.1-18.9,31.5-16.5c-2.3,7.4-4.7,14.7-6.7,22c-0.3,1.1-0.6,2.1-0.8,3.2c-5,20.6-9.9,41.3-14.4,62.1c-1,4.8-2.6,7.5-6.9,8.3
	c-0.3,0.1-0.6,0.1-0.9,0.2c-0.3,0-0.7,0.1-1,0.1c-9.7,0.6-19.3,1.8-32.4,3.1C1201.2,693.9,1209.9,670.5,1218.8,647.1z M1120.4,680.5
	c1-6.2,3.3-10.2,8.3-11.4c0.4-0.1,0.8-0.2,1.2-0.2c0.2,0,0.4-0.1,0.7-0.1c0.2,0,0.5,0,0.8-0.1c0.8,0,1.5,0,2.4,0
	c10,0.4,20.1,0,30.2,0.1c0.8,0,1.6,0,2.3,0.1c0.2,0,0.4,0,0.7,0c0.2,0,0.5,0,0.7,0.1c0.2,0,0.4,0,0.5,0.1c0.2,0,0.4,0,0.5,0.1
	c0.3,0,0.7,0.1,1,0.2c0.3,0,0.6,0.1,0.9,0.2c0.3,0.1,0.5,0.1,0.8,0.2c0.1,0,0.2,0.1,0.3,0.1c0.2,0.1,0.4,0.2,0.6,0.2
	c0.2,0.1,0.4,0.2,0.7,0.3c0.2,0.1,0.4,0.2,0.5,0.3c0.1,0.1,0.2,0.2,0.3,0.2c0.1,0.1,0.2,0.1,0.3,0.2c0.1,0.1,0.1,0.1,0.2,0.2
	c0.3,0.2,0.5,0.5,0.7,0.8c0.1,0.1,0.2,0.2,0.2,0.3c0,0,0,0,0,0c0.1,0.1,0.2,0.2,0.2,0.4c0,0,0,0,0.1,0.1c0.1,0.2,0.2,0.3,0.2,0.5
	c0,0,0,0,0,0c0,0.1,0.1,0.2,0.1,0.2c0.1,0.2,0.1,0.3,0.2,0.5c0,0.1,0.1,0.2,0.1,0.3c0.1,0.2,0.1,0.3,0.1,0.5c0,0.1,0,0.1,0,0.2
	c0,0.2,0.1,0.5,0.1,0.8c0,0.3,0.1,0.6,0.1,0.9c0,0.3,0,0.6,0,1c0,1.3-0.1,2.8-0.4,4.5c-3.5,24-7.6,48-11.4,71.9
	c-7.8,48.5-15.5,96.9-23.3,145.4c-0.1,0.6,0,1.3,0,2.1c0,0.1,0,0.2,0,0.4c0,0.1,0,0.3,0,0.4c0,0.4,0.1,0.9,0.1,1.4
	c7.6,0,14.9,0.2,22.3-0.1c0.4,0,0.8,0,1.1,0c0.2,0,0.3,0,0.5,0c0.2,0,0.3,0,0.5,0c0,0,0.1,0,0.1,0c0.2,0,0.4,0,0.5,0.1
	c0.2,0,0.4,0.1,0.7,0.1c0.1,0,0.3,0.1,0.4,0.1c0.1,0,0.1,0,0.2,0.1c0.3,0.1,0.6,0.2,0.8,0.3c0.1,0.1,0.2,0.1,0.4,0.2v0c0,0,0,0,0,0
	c0.1,0.1,0.2,0.1,0.3,0.2c1.4,1,1.9,2.8,1.7,5.9c-0.9,10.3-1.1,20.6-1.4,31c-0.3,6.8-3.4,9.9-9.7,10.3c-0.5,0-1,0-1.5,0
	c-22.5-0.2-45-0.1-67.5-0.1c-1.5,0-2.9,0-4.2-0.1c-8.8-0.6-10.4-3.9-8.7-14.9c3.5-23.1,7.6-46.1,11.4-69.2
	C1099.7,805.3,1110.2,742.9,1120.4,680.5z M812,678.9C812,678.9,812,678.9,812,678.9c2.2-6.1,5.7-9.6,12-10.2
	c0.9-0.1,1.8-0.1,2.8-0.1c14.8,0.4,29.6,0.1,44.4,0.1c2.8,0,5.2,0.1,7.2,0.4c1.3,0.2,2.4,0.4,3.4,0.8c0.2,0.1,0.5,0.2,0.7,0.2h0
	c0.2,0.1,0.4,0.2,0.6,0.3c0.2,0.1,0.4,0.2,0.7,0.3c0.2,0.1,0.3,0.2,0.5,0.3c0.5,0.3,0.9,0.6,1.2,0.9c0,0,0,0,0,0
	c0.3,0.2,0.5,0.5,0.8,0.8c0.2,0.2,0.3,0.4,0.5,0.5c0.2,0.2,0.3,0.5,0.5,0.8c0.2,0.3,0.3,0.5,0.4,0.8c0.1,0.3,0.3,0.6,0.4,0.9
	c0.2,0.4,0.3,0.9,0.4,1.3c0.1,0.2,0.1,0.5,0.2,0.7c0.1,0.2,0.1,0.5,0.2,0.7c0.1,0.5,0.2,1,0.2,1.5c0.2,1.3,0.3,2.7,0.3,4.3
	c0,0.8,0,1.7,0,2.6v264.7h-48.4v-39.7c-8.2-1.1-15.7-1.8-22.6,0.1c-0.4,0.1-0.9,0.2-1.3,0.4c-0.2,0.1-0.5,0.2-0.7,0.2
	c-0.6,0.2-1.1,0.4-1.7,0.7c-0.3,0.1-0.6,0.2-0.8,0.4c-0.6,0.3-1.3,0.7-1.9,1c-0.7,0.4-1.4,0.9-2.1,1.4c-0.5,0.3-0.9,0.7-1.3,1
	c-0.1,0.1-0.2,0.2-0.3,0.2c-0.3,0.3-0.7,0.6-1,0.9c-0.7,0.6-1.3,1.2-2,2c-9.1,9.9-20,18.3-30.3,27.2c-2.1,1.9-4.9,4.1-7.4,4.2
	c-13,0.4-25.9,0.2-40.2,0.2c0.9-3.5,1.6-6.2,2.4-8.9c0.1-0.4,0.2-0.8,0.3-1.1c27.1-87.2,54.3-174.4,81.4-261.6
	C811.7,679.8,811.8,679.4,812,678.9z M599,944.9c0-0.2,0-0.3,0-0.5c0-0.3,0.1-0.6,0.1-0.9c0,0,0,0,0,0c0.1-1,0.3-2,0.5-3.2
	c2.9-16.6,6-33.2,8.9-49.8c12.3-70.2,24.8-140.3,36.7-210.5c1.5-8.6,5-11.2,13.4-11.1c37.8,0.3,75.7,0.1,113.6,0.1
	c7.6,0,10.6,1,11.2,5.3c0,0.1,0,0.3,0,0.4c0,0.6,0,1.4,0,2.2c-0.1,1.3-0.3,2.9-0.6,4.8c-6.7,39.3-13.5,78.6-19.9,118
	c-1.1,6.9-4.1,11.7-9.4,16.2c-28.9,24.5-57.7,49-86.1,74c-3.8,3.3-6.8,8.8-8,13.8c-0.2,0.8-0.4,1.5-0.5,2.3
	c-0.2,0.9-0.4,1.9-0.6,2.8c-1.5,6.9-2.8,13.8-4,20.7c0,0.2-0.1,0.3-0.1,0.5c-0.2,1-0.3,2-0.5,3c0,0.2-0.1,0.5-0.1,0.7
	c-0.5,3.4-1,6.7-1.5,10.1c-0.9,6.8-4,9.2-10.5,8.9c-4.5-0.2-9-0.2-13.5-0.1c-1.1,0-2.2,0-3.4,0c-1.2,0-2.5,0-3.8,0
	c-3.8,0-7.6,0.1-11.3,0.1c-7.5-0.1-10.3-1.1-10.6-5.6C598.9,946.3,598.9,945.6,599,944.9z M620.8,1026.8c-0.2,0-0.5,0-0.8,0
	c-0.5,0-1.1,0-1.6-0.1c-1.7-0.1-4.7,4-5.2,6.5c-0.3,1.4-0.5,2.8-0.8,4.2c0,0,0,0.1,0,0.1c-2,10.6-3.9,21.2-5.7,31.8
	c-0.2,1.1-0.4,2.2-0.5,3.2c-0.7,4.3-1.5,8.6-2.2,13c-2.4,14-2.8,14.4-18.6,11.1c0,0,0,0,0,0c3.9-22.9,7.8-45.9,11.9-69.6
	c0,0,0-0.1,0-0.1c-6.3-0.2-12-0.5-12.4-5.3c0-0.2,0-0.3,0-0.5c0-0.3,0-0.6,0.1-0.9c0.1-1.1,0.5-2.3,1-3.8c0.9-2,3.3-4.7,5.1-4.8
	c7-0.2,14-0.3,21.1-0.2c5.8,0,11.6,0,17.7,0c0,0.3,0,0.6,0,0.8c0,0.3,0,0.5,0,0.8v0c0,0,0,0,0,0c0,0,0,0,0,0c0,0,0,0,0,0
	c0,0,0,0,0,0l0,0c0,0,0,0,0,0c-0.1,1-0.1,2-0.2,2.9c0,0.2-0.1,0.5-0.1,0.7c0,0.3-0.1,0.7-0.1,1c0,0.3-0.1,0.7-0.2,1
	c-0.1,0.4-0.2,0.8-0.2,1.2c-0.1,0.3-0.1,0.5-0.2,0.8c-0.1,0.2-0.1,0.4-0.2,0.6c-0.1,0.2-0.1,0.4-0.2,0.5c-0.1,0.3-0.2,0.5-0.4,0.8
	c0,0,0,0,0,0c-0.1,0.3-0.3,0.5-0.4,0.8c-0.1,0.1-0.1,0.2-0.2,0.3c-0.1,0.2-0.2,0.3-0.4,0.5c-0.1,0.2-0.2,0.3-0.4,0.4
	c-0.1,0.1-0.3,0.2-0.4,0.4l0,0c-0.2,0.2-0.4,0.3-0.6,0.4c-0.2,0.1-0.3,0.2-0.5,0.3c-0.2,0.1-0.3,0.2-0.5,0.2
	c-0.2,0.1-0.4,0.2-0.6,0.3c-0.3,0.1-0.7,0.2-1.1,0.3c-0.2,0.1-0.4,0.1-0.7,0.1C621.8,1026.8,621.3,1026.8,620.8,1026.8z
	 M662.7,1087.8L662.7,1087.8c-0.2,2.9,0,5.8,0,9.5c-4.8,0-8.3,0-12.7-0.1v-25.3c-12.3,4.9-10.7,15.9-13.5,25.1h-13.7
	c0.6-5.2,1.2-10.3,1.9-15.3c2.9-20.2,6-40.3,8.7-60.5c1-7.2,4.1-10.4,11.6-9.8c6.2,0.6,12.4,0.3,18.6,0.1c4.3-0.1,7,1.1,8.1,4.2
	c0,0,0,0.1,0.1,0.2c0.3,1.1,0.5,2.4,0.5,3.9v0.2c-0.1,7.2,0,14.4-0.1,21.5c0,0.2,0,0.4,0,0.6c0,0.7,0,1.6,0,2.4
	c-0.1,1.1-0.3,2.1-0.9,2.6C658.2,1058.6,663.7,1073.9,662.7,1087.8z M716.2,1085.9c0,6-0.1,9.2-1.6,10.7c-0.1,0.1-0.2,0.2-0.4,0.3
	c-0.1,0.1-0.3,0.2-0.4,0.2c-0.2,0.1-0.3,0.1-0.5,0.2c-0.2,0.1-0.4,0.1-0.7,0.2c-2.1,0.4-5.5-0.1-11-1.1c-0.1-0.9-0.2-1.8-0.2-2.6
	c0-0.3-0.1-0.6-0.1-1c0-0.3-0.1-0.6-0.1-0.8c0-0.2,0-0.5-0.1-0.8c-0.2-1.8-0.4-3.6-0.7-5.7c0,0,0-0.1,0-0.1
	c-13-2.7-17.3,19.1-32.7,10.3c0,0-0.1,0-0.1-0.1c1.4-4.6,3-10.1,4.7-15.6c6.1-19.7,12.3-39.5,18.4-59.3c3.3-10.4,5.5-11.5,18.7-9.9
	c2.8,0.3,4.6,1.2,5.6,2.4c0,0,0,0,0.1,0.1c2.3,2.9,0.8,7.6,0.8,11.2C716.3,1045,716.2,1065.5,716.2,1085.9z M741,1075.1
	c0,0.2-0.1,0.3-0.1,0.5c-0.2,1.2-0.5,2.4-0.7,3.6c-0.3,1.6-0.6,3.2-0.9,4.8c-0.3,1.6-0.5,3.2-0.7,4.8c-0.1,0.8-0.2,1.6-0.3,2.4
	c0,0.2,0,0.3-0.1,0.5c-0.2,1.2-0.4,2.1-0.8,2.9c-0.1,0.1-0.1,0.3-0.2,0.4c-0.1,0.1-0.1,0.2-0.2,0.4c-0.1,0.1-0.1,0.2-0.2,0.3
	c0,0.1-0.1,0.1-0.1,0.2c0,0.1-0.1,0.1-0.1,0.2c-0.1,0.1-0.2,0.2-0.3,0.4c-0.1,0.1-0.2,0.2-0.3,0.3c0,0,0,0-0.1,0.1
	c-0.1,0.1-0.2,0.2-0.3,0.2c-0.1,0.1-0.2,0.2-0.4,0.3c-0.2,0.1-0.3,0.2-0.5,0.3c-0.4,0.2-0.8,0.3-1.1,0.4c-0.3,0.1-0.5,0.1-0.8,0.2
	c-0.2,0-0.5,0.1-0.7,0.1c-0.3,0-0.7,0-1,0c-0.3,0-0.6,0-1,0c-0.4,0-0.7,0-1.1-0.1c-0.5,0-0.9-0.1-1.4-0.1c-0.2,0-0.5,0-0.7-0.1
	c-0.2,0-0.5,0-0.7,0c-0.2,0-0.5,0-0.7,0c-0.2,0-0.5,0-0.7-0.1c-0.2,0-0.3,0-0.5-0.1c-0.1,0-0.2,0-0.4-0.1c-0.1,0-0.2,0-0.3-0.1
	c-0.2,0-0.3-0.1-0.5-0.1c-0.2-0.1-0.3-0.1-0.4-0.2c-0.3-0.1-0.5-0.2-0.7-0.4c-2.5-1.7-0.8-5.4-0.3-8.3c3.8-21.9,7.6-43.7,11.4-65.6
	c0.1-0.6,0.2-1.1,0.3-1.6c0.1-0.4,0.1-0.7,0.2-1c0.1-0.4,0.1-0.7,0.2-1c0.1-0.3,0.1-0.6,0.2-0.8c0.1-0.3,0.1-0.6,0.2-0.9
	c0.1-0.3,0.1-0.6,0.2-0.9c0.1-0.2,0.1-0.4,0.2-0.6c0,0,0-0.1,0-0.1c0.1-0.2,0.1-0.4,0.2-0.6c0.1-0.3,0.2-0.5,0.3-0.8
	c0.1-0.3,0.3-0.6,0.4-0.8c0.3-0.6,0.7-1.2,1.2-1.6c2.3-2.2,6.4-1.7,14.9,0c-3.4,20.3-6.8,40.1-10.2,59.8
	C741.4,1073,741.2,1074.1,741,1075.1z M780.9,1097.4c-0.1,0-0.2,0-0.2,0s-0.2,0-0.2,0c-0.2,0-0.3,0-0.5,0c-0.2,0-0.3,0-0.5,0
	c-0.1,0-0.1,0-0.2,0c-0.2,0-0.4,0-0.5-0.1c-0.2,0-0.4,0-0.6-0.1c-0.2,0-0.4,0-0.6-0.1c-0.6-0.1-1.3-0.1-2-0.2
	c-0.5-0.1-1-0.1-1.5-0.2c-0.3,0-0.5-0.1-0.8-0.1c0.4-2.4,0.8-4.7,1.2-7.1c2.1-12.3,4-24.4,6-36.6c1.3-7.2,1.7-14-3.9-20.1
	c-0.2-0.2-0.5-0.5-0.7-0.7c-0.8-0.8-1.8-1.7-2.9-2.5c-1.8,10.1-3.7,19.4-5.3,28.7c-1.5,8.8-2.8,17.5-4.2,26.3
	c-2,13-2.8,13.7-17.8,11.8c-0.1,0-0.2,0-0.2,0c1.4-8.6,2.7-17.2,4.1-25.8c2.8-16.6,5.6-33.3,8.5-49.9c1.7-9.8,11.2-13.2,19-6.9
	c3,2.4,6,4.7,9.1,7.1c0.9-9.2,6.7-12.2,17.2-8.1c0,0,0,0.1,0,0.1c-0.9,6.1-1.8,12.4-2.8,18.7c-2.9,17.8-5.9,35.6-8.9,53.4
	C789.7,1095.6,789.1,1097.9,780.9,1097.4z M816.1,1086.2c-0.5,2.7-0.9,4.9-1.5,6.6c-0.1,0.4-0.2,0.8-0.4,1.1
	c-0.1,0.2-0.1,0.4-0.2,0.6c-0.1,0.2-0.2,0.3-0.2,0.5c0,0,0,0,0,0c-0.1,0.1-0.1,0.3-0.2,0.4c0,0,0,0,0,0c-0.2,0.3-0.3,0.5-0.5,0.7
	c-0.3,0.4-0.6,0.7-1,1c-0.1,0.1-0.3,0.2-0.4,0.3c-0.2,0.1-0.3,0.2-0.5,0.3c-0.1,0.1-0.3,0.1-0.4,0.2c-0.2,0.1-0.5,0.2-0.7,0.2
	c-0.1,0-0.2,0.1-0.3,0.1c-0.1,0-0.3,0-0.4,0.1c-0.1,0-0.2,0-0.3,0c-0.8,0.1-1.6,0.1-2.5,0c-0.3,0-0.5,0-0.8-0.1
	c-0.2,0-0.5-0.1-0.7-0.1c-0.5-0.1-0.9-0.1-1.4-0.2c-0.4-0.1-0.8-0.2-1.2-0.2c-0.4-0.1-0.9-0.2-1.3-0.3c-0.3-0.1-0.6-0.1-0.9-0.2
	c-0.1,0-0.1,0-0.2,0c-0.4-0.1-0.7-0.2-1.1-0.3c-0.4-0.1-0.9-0.2-1.4-0.3c0.5-2.7,0.9-5.4,1.4-8.1c3.3-18.7,6.5-37.3,9.8-55.7
	c0.6-3.2,1-6.4,1.5-9.6c1.8-12.9,3.9-14.2,18-10.5c0,0,0.1,0,0.1,0c-2.1,13.4-4.2,27-6.4,40.6C820,1064.1,818,1075.2,816.1,1086.2z
	 M872.8,1060.6c-1.3,8.3-2.6,16.6-4,24.9c-0.1,0.7-0.2,1.3-0.3,1.9c0,0.2-0.1,0.4-0.1,0.6c-0.6,3.5-1.3,6-2.5,7.5
	c-0.1,0.2-0.2,0.3-0.4,0.5c-0.1,0.1-0.2,0.3-0.4,0.4c-0.3,0.3-0.6,0.5-0.9,0.7c-0.1,0.1-0.2,0.1-0.3,0.2c-0.1,0.1-0.2,0.1-0.3,0.2
	c-0.2,0.1-0.3,0.1-0.5,0.2c-0.2,0-0.3,0.1-0.5,0.1c-0.1,0-0.2,0-0.2,0c-0.2,0-0.4,0.1-0.6,0.1c-0.2,0-0.3,0-0.5,0
	c-0.2,0-0.4,0-0.6,0c-0.6,0-1.2,0-1.9-0.1c-0.3,0-0.7-0.1-1.1-0.1h0c-0.4-0.1-0.8-0.1-1.2-0.2c-0.6-0.1-1.3-0.2-1.9-0.4
	c-0.4-0.1-0.9-0.2-1.3-0.3c-0.8-0.2-1.6-0.4-2.5-0.6c2.5-15.4,5.1-30.8,7.7-46.2c1.7-9.8,1.2-11.3-8-20c-1.6,8.6-3.1,16.6-4.5,24.5
	c-1.8,10.2-3.5,20.4-5.3,30.6c-2.4,13.4-2.9,13.8-17.8,11.4c3.5-20.8,6.9-41.7,10.4-62.5c0.6-3.8,0.6-7.8,1.9-11.3
	c1.4-3.8,3.6-9.9,6-10.2c4.9-0.5,10.4,1.6,15.1,3.8c2.2,1,3.1,4.8,6.1,6.9c0.1-1.1,0.3-2.2,0.5-3.1c0.1-0.3,0.1-0.6,0.2-0.9
	c0.1-0.5,0.2-0.9,0.4-1.3c2.1-5.8,6.4-6.6,11.5-6.3c0.6,0,1.3,0.1,1.9,0.2c0.5,0,1,0.1,1.5,0.2c0.8,0.1,1.6,0.2,2.5,0.3
	c-2.2,13.6-4.4,26.8-6.6,40.1C873.8,1055.1,873.3,1057.9,872.8,1060.6z M933.2,1010.9c-0.1,0.6-0.1,1.3-0.2,1.9c0,0.1,0,0.2,0,0.2
	c-0.6,6.1-0.9,11.8-2.2,16.9c0,0.1,0,0.2-0.1,0.3c-0.2,1-0.5,1.9-0.9,2.9c-0.9,2.6-7.3,3.3-11.8,5.1c-1-4.5-1.6-6.9-2.8-12.1
	c-4.3,2.7-10,4.3-10.5,6.9c-3.1,15.7-5,31.5-7.3,47.2c0,0,0,0,0,0c11.2,3.6,12.6,3,13.8-7.1c0.5-4.5,2.5-9.3,1.4-13.9
	c0-0.2-0.1-0.3-0.2-0.5c-0.4-1.6-1.3-3.2-2.7-4.8c0,0,0,0,0-0.1c0,0,0,0,0,0c-0.2-0.8,3.1-6.6,5.5-7.3c1.3-0.4,2.6-0.5,4.1-0.5
	c0.2,0,0.4,0,0.7,0c0.2,0,0.5,0,0.7,0c0.3,0,0.6,0.1,0.9,0.1c1,0.1,2,0.2,3.1,0.4c0.2,0,0.3,0,0.5,0c0.3,0,0.6,0.1,0.9,0.1
	c0.3,0,0.6,0.1,0.9,0.1c0.4,0,0.8,0.1,1.2,0.1c-1.2,8.6-2.4,17-3.5,25.3c-1.2,8.3-2.3,16.5-3.5,24.8h-42.6
	c0.8-5.3,1.6-10.7,2.4-15.9c0.1-1,0.3-2,0.5-3c1.3-8.4,2.5-16.8,3.8-25.2c0.1-0.4,0.1-0.8,0.2-1.1c0.3-1.7,0.5-3.4,0.8-5.1
	c1.5-9.9,2.8-19.9,4.9-29.7c0.5-2.3,3.4-5.8,5.4-5.9c11.8-0.6,23.6-0.3,36.7-0.3C933.2,1010.8,933.2,1010.8,933.2,1010.9z
	 M913.3,952c-9.8,0-12.8-3.3-11-12.3c11.9-60.6,23.9-121.2,35.9-181.8c0.5-2.5,1.4-4.9,1.9-6.7c5.9,1.8,11.8,3.6,17.7,5.4
	c4,1.2,8,2.5,12,3.7c1.1,0.3,2.2,0.7,3.3,1c2.5,0.8,5.1,1.5,7.6,2.3c0.9,0.3,1.7,0.5,2.6,0.8c3.4,1,6.9,2.1,10.5,3.2
	c-1.1,5.5-2.2,11-3.3,16.6c-7.9,38.9-15.9,78.8-24,119.5c13.6,0,25.9,0.3,38.3-0.3c0.1,0,0.1,0,0.2,0l0.1,0c0.1,0,0.2,0,0.3-0.1
	c0.3-0.1,0.6-0.2,0.9-0.4c1.9-1.2,3.9-4.1,4.4-6.1c7.1-33.5,13.9-67.1,20.7-100.7c1.8-8.8,3.3-17.8,5.3-26.6
	c0.3-1.3,0.5-2.5,0.8-3.8c0.1-0.3,0.2-0.6,0.3-0.8c0.7-2,2.5-4.3,4.2-4.9c21.5-6.9,39.9-18.9,57.6-34.2c-1.8,9.8-3.6,19.6-5.6,29.4
	c-10.5,51.8-21.1,103.7-31.7,155.5c-0.5,2.1-0.9,4.1-1.7,6c-6.5,15.6-36.1,35.3-53.1,35.3C976.1,952,944.7,952.1,913.3,952z
	 M1049.4,1029.8c-0.1,0.3-0.1,0.6-0.2,0.8c-0.1,0.6-0.3,1.2-0.5,1.9c-0.2,0.6-0.4,1.2-0.6,1.8c-0.8,2.3-6.5,3.7-10,3.9
	c-0.1,0-0.2,0-0.2,0c-0.1,0-0.2,0-0.2-0.1c-0.2-0.1-0.3-0.2-0.5-0.3c-0.1-0.1-0.2-0.1-0.2-0.2c-0.1-0.1-0.2-0.2-0.4-0.4
	c-0.1-0.1-0.2-0.3-0.4-0.5c-0.2-0.4-0.5-0.8-0.8-1.2c-0.8-1.2-1.4-2.6-2-3.7c-0.6-1.1-0.1-2.8-0.1-4.8v-0.1
	c-3.3-0.2-6.1-0.3-8.9-0.5c-3.5,5.7-3.7,10.6-0.4,15c0.2,0.3,0.4,0.5,0.6,0.8c0.5,0.7,1.2,1.3,1.9,1.9c0.5,0.3,0.8,0.8,1.2,1.3
	c0,0,0,0,0,0c16.3,20,16.5,20,10.4,45c-0.6,2.7-4.4,6.5-7,6.7c-11.1,0.7-22.3,0.3-35.8,0.3h-0.1c1.7-9.6,2.5-18.4,5.3-26.4
	c0.7-2.2,7.4-2.7,11.5-3c0.1,0,0.1,0,0.2,0.1c0,0,0,0,0,0c0.7,0.7,1.8,4.7,2.4,7c0.4,1.7-0.1,3.5-0.3,7.3c0,0,0.1,0,0.1,0
	c4.1-1.2,9.5-1.4,10-3.2c1.1-3.6,0.7-8.8-1.2-12c-2-3.3-4.3-6.4-6.9-9.4c-0.6-0.7-1.2-1.4-1.8-2.1c-0.4-0.4-0.7-0.8-1.1-1.2
	c-1.2-1.3-2.4-2.5-3.6-3.8c-0.6-0.6-1.2-1.2-1.6-1.9c-0.2-0.2-0.3-0.4-0.5-0.6c-3-4.2-3.4-8.6-1.8-13.8c0.9-3.1,1.8-6.3,2-9.5
	c1-15.6,3.1-14.4,18-14.3c2.1,0,4.1,0,6.2,0h0.9c6,0,12.2,0,19.2,0c-0.4,2.8-0.8,5.4-1.1,7.9c-0.1,0.7-0.2,1.4-0.3,2.1
	c-0.1,0.7-0.2,1.4-0.3,2c0,0,0,0,0,0c-0.1,0.7-0.2,1.3-0.3,2c-0.1,0.6-0.2,1.1-0.3,1.7c-0.1,0.4-0.2,0.8-0.2,1.2
	c0,0.1-0.1,0.2-0.1,0.4C1049.6,1028.7,1049.5,1029.2,1049.4,1029.8C1049.4,1029.7,1049.4,1029.8,1049.4,1029.8z M1091,1023.9
	c-0.2,0.3-0.3,0.6-0.5,0.9c-1,1.5-2.2,2.9-3.6,3.4c-4,1.5-11-0.1-12.8,1.8c0,0,0,0,0,0l-0.1,0.1c0,0,0,0,0,0
	c-0.1,0.1-0.1,0.1-0.1,0.2c-2.9,5-2.8,11.7-4,18.3c5,0.5,9,0.9,13.5,1.3v15.5c0,0-0.1,0-0.1,0c-5,0.3-9.6,0.6-15.3,1
	c0,0,0,0.1,0,0.1c-0.5,3.7-1,7.4-1.6,11.5c-0.2,1.4-0.4,2.8-0.6,4.3c-0.1,0.8-0.2,1.7-0.4,2.6c6.7,0,11.9,0,17.9-0.1v12.2h-33.7
	c0.7-7.8,1.3-15.3,2.2-22.8c2.2-18.2,4.9-36.3,6.9-54.5c0-0.2,0.1-0.5,0.1-0.7c0-0.2,0.1-0.4,0.1-0.5c0-0.1,0-0.3,0.1-0.4
	c0-0.2,0.1-0.5,0.1-0.7c0-0.1,0.1-0.3,0.1-0.4c0-0.1,0-0.2,0.1-0.3c0,0,0-0.1,0-0.1c0-0.2,0.1-0.4,0.2-0.5c0.1-0.2,0.1-0.4,0.2-0.5
	c0.1-0.2,0.1-0.3,0.2-0.5c0-0.2,0.1-0.3,0.2-0.4c0.1-0.2,0.2-0.4,0.3-0.6c0-0.1,0.1-0.1,0.1-0.2c0.2-0.3,0.3-0.5,0.5-0.8
	c0.1-0.2,0.2-0.3,0.4-0.4c0.1-0.1,0.2-0.2,0.3-0.4c0.1-0.1,0.2-0.2,0.4-0.3c0.1-0.1,0.3-0.2,0.4-0.3c0.1-0.1,0.2-0.1,0.3-0.2
	c0.2-0.1,0.3-0.2,0.5-0.2c1.4-0.6,3.1-0.8,5.4-0.6c4.9,0.4,10,0.5,15-0.1c8.8-1,11.4,2.8,8.8,10.6
	C1092,1022,1091.6,1023,1091,1023.9z M1134.5,1038.3c-0.3-0.1-0.7-0.3-0.9-0.5c-0.1-0.1-0.2-0.2-0.3-0.3c-1.7-1.8-2.9-6.2-5.3-10.6
	c0,0,0,0,0,0c-1.1,0.2-6.5,0.1-7.1,1.8c-1.4,3.6-0.6,8.3,0.1,12.4c0.3,1.7,2.7,3,4,4.6c1.3,1.5,2.4,2.9,3.5,4.2
	c0.6,0.7,1.1,1.4,1.7,2c0.5,0.6,0.9,1.2,1.4,1.7c0.5,0.6,0.9,1.1,1.3,1.7c0.4,0.6,0.8,1.1,1.2,1.6c0.2,0.3,0.4,0.5,0.5,0.8
	c0.2,0.3,0.4,0.5,0.5,0.8c0.2,0.2,0.3,0.5,0.5,0.7c0.6,0.9,1.1,1.7,1.5,2.6c0.1,0.2,0.2,0.3,0.3,0.5c0.3,0.6,0.6,1.2,0.8,1.9
	c0.1,0.2,0.2,0.4,0.2,0.6c0.1,0.2,0.2,0.5,0.2,0.7c2.1,6.5,0.4,13.2-3.7,26.8c-0.6,2.2-4.1,4.9-6.4,5c-9.7,0.6-19.5,0.2-29.3,0.3
	c-2.7,0-4.5-0.6-5.4-1.8c-0.1-0.1-0.2-0.2-0.2-0.3c-0.1-0.1-0.1-0.2-0.2-0.3c-0.5-1.1-0.5-2.7,0-4.7c0.9-3.7,1.2-7.6,1.8-11.4
	c2-12,3.6-12.9,16.3-9.9c0,0,0.1,0,0.1,0v12h9.7c1.1-2.4,1.7-4.7,1.6-6.8c0-0.2,0-0.4,0-0.6c0-0.1,0-0.3,0-0.4c0-0.1,0-0.3,0-0.4
	c0-0.3-0.1-0.7-0.2-1c0-0.1,0-0.2-0.1-0.3c0-0.1,0-0.2-0.1-0.3c0-0.1,0-0.1-0.1-0.2c0-0.2-0.1-0.3-0.1-0.5c-0.1-0.2-0.1-0.3-0.2-0.5
	c-0.2-0.4-0.3-0.8-0.5-1.2c-0.1-0.2-0.2-0.4-0.3-0.6c-0.1-0.2-0.2-0.4-0.4-0.6c-0.3-0.4-0.5-0.8-0.8-1.2c-0.1-0.2-0.3-0.4-0.5-0.6
	c-0.3-0.4-0.7-0.8-1.1-1.2c-0.2-0.2-0.4-0.4-0.6-0.6c-0.5-0.4-0.8-0.8-1.2-1.2c0,0,0,0,0-0.1c-16.8-20.2-16.9-20.2-10.3-45.9
	c0.6-2.2,2.8-5.4,4.4-5.5c7-0.3,14.1-0.3,21.4-0.3c5.5,0,11.1,0,16.9,0c-0.1,0.8-0.2,1.6-0.3,2.4c-0.1,0.8-0.2,1.6-0.3,2.4
	c-0.2,1.6-0.4,3.1-0.6,4.6c-0.6,5.1-1.3,9.8-2.8,14.3C1144.5,1037.1,1137.8,1039.1,1134.5,1038.3z M1193.6,1038.4
	c-1,0.3-1.8,0.5-2.6,0.6c-0.1,0-0.3,0.1-0.4,0.1h0c-0.3,0-0.6,0.1-0.8,0.1c-0.4,0-0.8,0.1-1.1,0c-0.1,0-0.2,0-0.3,0
	c-0.2,0-0.4,0-0.6-0.1c-0.2,0-0.3-0.1-0.5-0.1c-0.1,0-0.3-0.1-0.4-0.1c-0.1,0-0.2-0.1-0.4-0.2c0,0,0,0-0.1,0
	c-0.1-0.1-0.2-0.1-0.3-0.2c-0.1,0-0.2-0.1-0.2-0.2c-0.4-0.3-0.7-0.6-1-1.1c-0.1-0.1-0.1-0.2-0.1-0.2c-0.1-0.1-0.1-0.2-0.1-0.3
	c-0.2-0.4-0.4-0.8-0.5-1.3c0-0.2-0.1-0.3-0.1-0.5c-0.1-0.3-0.1-0.6-0.2-1c-0.1-0.5-0.1-1.1-0.2-1.8c0-0.3,0-0.6,0-0.9
	c0-1.4,0-3.1,0.1-4.9c0,0-0.1,0-0.1,0c-3.7,0.8-9.4,0.8-9.9,2.4c-1.2,3.7-1.1,9,0.8,12.3c3.3,5.8,7.9,11,12.7,15.8
	c5.2,5.2,6,10.7,4.6,17.7c-3.5,17.8-4.1,22.1-14.8,23c-0.2,0-0.4,0-0.6,0.1c-0.4,0-0.8,0.1-1.3,0.1c-0.2,0-0.5,0-0.7,0
	c-0.5,0-0.9,0-1.4,0.1c-0.4,0-0.8,0-1.2,0c-0.5,0-1,0-1.5,0c-1.9,0-4,0-6.3,0c-1.4,0-2.7,0-3.9,0c-0.4,0-0.8,0-1.2,0
	c-0.1,0-0.2,0-0.3,0c-0.3,0-0.6,0-0.9,0c-0.3,0-0.6,0-1,0c-0.3,0-0.5,0-0.8,0c-0.3,0-0.6,0-0.9,0c-0.2,0-0.4,0-0.6,0
	c-10.1,0.2-9.1-1.1-5.7-20.1c0.9-4.7,1.1-9.5,7.8-9.9c0.2,0,0.4,0,0.6,0c0.5,0,1.1,0,1.5,0c0.3,0,0.5,0,0.7,0c0.2,0,0.4,0,0.6,0h0
	c0.1,0,0.3,0,0.4,0c0.3,0,0.5,0.1,0.7,0.1c2.1,0.3,3.2,1.3,3.6,3.7c0,0.1,0.1,0.3,0.1,0.4c0,0.2,0.1,0.4,0.1,0.7c0,0.1,0,0.3,0,0.4
	c0,0.1,0,0.3,0,0.4c0.1,1,0.1,2.2,0.1,3.6c0,0.5,0,1.1-0.1,1.6c-0.1,1.2-0.1,2.4-0.2,3.8c3.8-1,9.4-1.3,10-3.1
	c1.1-3.8,0.5-8.8-1.3-12.3c-2.3-4.6-6.7-8.1-9.9-12.4c-3-3.9-7.9-8.3-7.8-12.3c0.3-9.6,2.8-19.2,5-28.7c0.3-1.3,3.8-2.7,5.8-2.8
	c2.3-0.1,4.7-0.1,7-0.1c7.4-0.1,14.8,0,22.2,0c0.3,0,0.8,0,1.2,0.1c0.1,0,0.2,0,0.3,0c1.3,0.1,2.6,0.5,2.6,0.7
	c0,6.5,0.3,13.2-0.7,19.6C1198.9,1033.9,1196,1037.7,1193.6,1038.4z M1213.3,1095.6c-0.3,0.4-0.5,0.7-0.8,1
	c-0.1,0.1-0.1,0.1-0.2,0.2c-0.1,0.1-0.1,0.1-0.2,0.2c-0.1,0.1-0.2,0.2-0.4,0.3c-0.1,0.1-0.3,0.2-0.4,0.2c-0.1,0.1-0.2,0.1-0.4,0.2
	c0,0,0,0-0.1,0c-0.2,0.1-0.4,0.2-0.6,0.2c-0.4,0.1-0.9,0.2-1.4,0.3c-0.9,0.1-1.8,0-2.9-0.2c-0.3,0.1-0.6,0.1-0.9,0.1
	c-0.3,0-0.6,0.1-0.8,0.1c-0.1,0-0.2,0-0.4,0c-0.4,0-0.7,0-1,0c-0.1,0-0.2,0-0.2,0c-0.1,0-0.2,0-0.3,0c-0.1,0-0.2,0-0.3,0
	c-0.2,0-0.4,0-0.5-0.1c-0.1,0-0.2,0-0.3-0.1c-0.1,0-0.2,0-0.2-0.1c-0.1,0-0.2-0.1-0.3-0.1c-0.2-0.1-0.4-0.2-0.6-0.3
	c-0.1,0-0.2-0.1-0.2-0.1c-0.1,0-0.2-0.1-0.2-0.2c-0.1,0-0.1-0.1-0.1-0.1c-0.2-0.2-0.4-0.4-0.6-0.6c-0.2-0.2-0.3-0.4-0.4-0.7
	c0-0.1-0.1-0.1-0.1-0.2c-0.6-1.4-0.6-3.5,0-6.2c4.4-23.8,8.8-47.6,12.5-71.5c1.3-8.7,6.8-7.5,12.3-7c1.9,0.2,3.1,0.7,3.8,1.4
	c0.1,0.1,0.1,0.1,0.2,0.2c1.7,2,0.3,5.4-0.1,7.9c-3.8,23.3-8.1,46.5-11.9,69.8C1214.7,1092.5,1214.2,1094.3,1213.3,1095.6z
	 M1250,1097.5c-4.3,0.2-8.6,0.3-13.2,0.2c-0.5,0-1.1,0-1.6,0c-0.5,0-1.1,0-1.7,0c-1.3,0-2.7,0-4.1-0.1c-1.4,0-2.8,0-4.2,0
	c-0.9,0-1.8,0-2.8,0c0.1-0.9,0.3-1.9,0.4-2.8c0.9-6.2,1.5-11.5,2.4-16.9c2.9-17.1,5.9-34.3,9-51.4c1.8-9.8,8.6-15.1,18.5-15.1
	c5.9,0,11.8,0.2,17.7,0c3.1-0.1,5.1,0.4,6.2,2c0.1,0.1,0.1,0.2,0.2,0.3c0.7,1.2,0.8,2.8,0.4,5.1c-4,22.1-7.6,44.2-12,66.2
	C1263.8,1092.6,1257.7,1097,1250,1097.5z M1301.8,1096.2C1301.8,1096.2,1301.8,1096.2,1301.8,1096.2c2.6-15.9,4.7-31.9,7.9-47.7
	c0.1-0.5,0.2-1,0.2-1.5c0,0,0,0,0-0.1c0-0.2,0.1-0.4,0.1-0.6c0-0.3,0.1-0.5,0.1-0.8c0-0.3,0-0.5,0-0.8c0-0.2,0-0.5,0-0.7
	c0-0.2,0-0.5-0.1-0.7c0-0.2,0-0.3-0.1-0.5c0-0.2-0.1-0.5-0.1-0.7c0-0.2-0.1-0.4-0.1-0.7c-0.1-0.3-0.2-0.7-0.3-1
	c-0.1-0.3-0.2-0.7-0.3-1c-0.1-0.3-0.3-0.6-0.4-0.9c-1.4-3.2-4-6-7.3-9.2c-3.5,19.7-6.7,38.2-10.1,56.6c-1.7,9.5-2.4,12-9,11.6
	c-0.1,0-0.1,0-0.2,0c-0.3,0-0.7-0.1-1-0.1c0,0-0.1,0-0.2,0c-0.3,0-0.6-0.1-0.9-0.1c-1.7-0.2-3.8-0.5-6.2-0.9
	c0.8-4.8,1.6-9.5,2.3-14.2c2.4-14.8,4.8-29.4,7.3-44c1.1-6.4,2.2-12.9,3.4-19.3c0.4-2.7,3.3-6.8,5.2-6.9c4.7-0.3,9.7,0.8,14,2.6
	c2.9,1.3,4.9,4.8,8.1,8.2c1.3-11.1,7-13.9,17.2-10.4c0,0,0,0.1,0,0.1c-0.7,4.9-1.3,9.9-2.1,15c-3.2,19.6-6.3,39.1-9.6,58.6
	C1317.6,1098.1,1315.6,1099.2,1301.8,1096.2z M1375.7,1010.6h0.4c0.3,0,0.6,0,0.8,0c0.2,0,0.4,0,0.6,0c0.2,0,0.4,0,0.6,0.1
	c3.3,0.5,4.6,2.5,3.8,6.8c-0.7,3.2-1.1,6.4-1.6,9.6c-1.2,8.1-2.1,11.1-6.7,11.5c-0.5,0-1.1,0-1.7,0c-0.2,0-0.4,0-0.5,0
	c-0.1,0-0.2,0-0.2,0c-1.9-0.2-4.2-0.5-7.1-1.1v-11.7c0,0-0.1,0-0.1,0c-4,1.1-9.7,1.4-10.1,3c-1,4.1,0.3,8.8,1.2,13.1
	c0.1,0.6,0.4,1.1,0.9,1.7c0.1,0.1,0.2,0.3,0.4,0.4c0.3,0.3,0.7,0.7,1,1l0.1,0.1c0.3,0.3,0.7,0.6,1,1c16.5,19.2,17.1,20.8,10.1,45.1
	c-0.8,2.6-4.8,6-7.5,6.2c-8.2,0.7-16.4,0.3-24.7,0.3c-1.5,0-3.1,0-4.6,0c-0.3,0-0.6,0-0.9,0c-0.2,0-0.4,0-0.6-0.1
	c-3.6-0.4-4.6-2.8-4-6.5c0.7-4.7,1.9-9.3,2.3-14c0.5-6.1,3.2-9,8.5-9.3c0.3,0,0.6,0,1,0c0.2,0,0.5,0,0.8,0c0.3,0,0.6,0,0.9,0.1
	c8.1,0.6,4.7,6.5,5.2,10.6c0.1,0.4,0.1,0.7,0.3,1.7c0.1,0.6,0.2,1.4,0.4,2.6c1.2-0.4,2.6-0.7,3.9-0.9c0.4-0.1,0.7-0.2,1.1-0.2
	c0.2-0.1,0.5-0.1,0.7-0.2c0.2-0.1,0.4-0.1,0.6-0.2c0.2,0,0.3-0.1,0.5-0.1c0.1,0,0.1,0,0.2-0.1c0.4-0.1,0.8-0.3,1.1-0.5
	c0.5-0.3,0.9-0.6,1-0.9c1.1-3.3,0.8-7.9-0.7-11.2c-1.7-3.9-4.7-7.7-8.1-10.4c-15.9-12.7-8.2-28.3-5.3-43.1c0.2-1,1.5-2,3.1-2.8
	c0.5-0.2,1-0.4,1.5-0.6c0.2-0.1,0.4-0.1,0.5-0.2c0.2-0.1,0.3-0.1,0.5-0.1c0.3-0.1,0.5-0.1,0.8-0.1c0.1,0,0.2,0,0.3,0
	c0.2,0,0.3,0,0.4,0c8.2-0.4,16.4-0.2,24.6-0.2C1373.5,1010.6,1374.6,1010.6,1375.7,1010.6z M1366.2,842.8c0.2,0.3,0.5,0.7,0.7,1
	c0.1,0.2,0.2,0.3,0.3,0.5c2.8,4.4,4.3,10.7,3.6,15.4c-4.4,28.1-9.9,55.9-15,83.8c-2.7,15.3-4.2,16.8-19.4,16.8
	c-36.5,0.1-72.9,0.1-109.3,0.1c-6.4,0-10.2-0.9-12.1-3.5c0-0.1-0.1-0.1-0.1-0.2c-1.6-2.5-1.7-6.3-0.7-12.2
	c3.7-22.4,7.5-44.9,11.4-67.3c1.8-10.4,6.4-14.4,16.7-14.6c8.3-0.2,16.6-0.2,24.9,0c5.1,0.1,8.4,1.4,10.2,4.1c0,0,0,0,0,0
	c1.5,2.4,1.8,5.7,1,10.2c-1.3,8-2.6,16.1-4.1,24.7c-0.5,2.8-0.9,5.8-1.4,8.7c1.5,0,3.1,0,4.6,0c4.5,0,8.9,0.1,13.2,0
	c0.8,0,1.6,0,2.4,0c4.9,0,9.6-0.2,14.3-0.5c1.7-0.1,4.2-2.9,4.6-4.8c2.1-9.5,4.2-19.1,5-28.8c0.2-3.1-1.2-6.8-3.2-9.8
	c-0.1-0.1-0.2-0.2-0.2-0.4c-0.3-0.5-0.7-1-1.1-1.4c-20.5-24.9-41.2-49.6-62.2-74.1c-0.7-0.8-1.2-1.5-1.8-2.3
	c-0.2-0.3-0.4-0.6-0.6-0.9c-3.2-5-4.1-10.1-2.9-16.3c5.5-28.8,10.7-57.6,15.8-86.4c1.6-8.6,6.1-12.7,15.1-12.7
	c38.5,0.1,77,0,115.5,0c5,0.1,8,0.6,9.6,2.3c0,0,0.1,0.1,0.1,0.1c1.5,1.8,1.5,4.8,0.7,9.8c-3.5,22.2-7.2,44.4-10.5,66.6
	c-1.1,7.4-4.8,11.3-12.2,11.3c-10.7,0.1-21.3,0-32,0c-3.1,0-5.3-0.7-6.7-2.1c0,0,0,0,0,0c-1.5-1.6-1.9-4.1-1.4-7.4
	c1.6-9.5,3.3-18.9,5.2-29.7c0-0.1,0-0.2,0-0.3c-12.5,0-24.2-0.1-35.9,0.1c-1.3,0-2.8,1.7-3.7,3c-0.6,0.9-0.1,2.4-0.5,3.5
	c-6.5,17.3-4.1,31.6,4.5,44.9c0.4,0.7,0.9,1.4,1.4,2.1c2.8,4,6.1,7.9,9.9,11.7C1336.7,804.9,1351.4,824,1366.2,842.8z"/>
<path class="st0" d="M128.2,595.9c5.1,0.8,10.3,2.1,15.4,2.2c13.6,0.2,27.2,0.1,40.7-0.6c4.2-0.2,8.7-2.2,12.3-4.6
	c14.6-9.6,28.5-20.2,43.4-29.3c16.8-10.3,34.5-19.2,51.5-29.3c4.8-2.8,8.6-7.4,12.7-11.3c1.9-1.8,3-4.5,5.1-5.9
	c20.5-14,40.3-29.1,61.8-41.3c19.7-11.2,30.2-28.4,34-48.4c4.2-22.2,2.8-45.3,5.2-67.9c0.8-8,4-16.9,8.9-23.2
	c9.4-12,27-13.4,40.3-5.6c13.7,8,25.9,16.8,27.6,34.4c0.3,2.7,2.3,5.3,3.5,7.9c-9.5,2.4-15.4,18.3-13.1,29.6
	c-4.6,10.6-8,18.6-12.6,29.2c8.9-2.4,15.1-3.7,21.1-5.8c10.6-3.5,20.7-2.7,29.6,3.7c16.3,11.7,32.2,24,48.4,35.8
	c4.7,3.4,9.8,6.3,15.1,8.6c18.7,8,37.4,16.2,56.5,23.3c19.1,7,38.6,13.1,58.1,19c9.7,2.9,14.1,11.4,9.2,20.3c-2.9,5.4-10,6.2-14,1.6
	c-15.4-17.9-35.5-23.8-58.3-24.1c-10.6-0.1-21.3-1.6-31.6-3.9c-7.9-1.8-15.3-5.8-22.9-9.2c-4-1.8-7.5-4.9-11.7-6.2
	c-13.2-4.1-26.5-7.7-41.6-12c11.4,20.6,19.6,41.8,42.1,51.6c6.2,2.7,10.8,5.7,11.8,13.6c0.9,7.1,7.2,10.2,14.2,11.3
	c34.1,5.3,68.3,6.1,102.7,3.9c10-0.6,20.1-0.1,30.6-0.1c1.8,18.8,17.6,20.9,31.3,23.9c14.9,3.2,30.3,4.8,45.5,5.4
	c26.8,1,51.5,10.1,76.8,17.2c4.8,1.4,9.6,2.7,15.4,4.4c-0.9,6.1-1.7,12.2-2.7,19.5c-35.9-2.6-72.4,6.5-106.5-11.1
	c-3-1.5-6.9-1.7-10.3-1.7c-10.7,0-21.4-0.2-31.9,1c-5.4,0.6-10.3,4.1-15.6,6c-2.3,0.8-4.9,1.5-7.3,1.2c-16.9-2.7-33.6-2.4-50,2.9
	c-3.6,1.2-7.5,1.3-11.3,1.4c-17.7,0.1-35.4,0.1-54.3,0.1c-3,18.2-5.8,35.9-8.8,53.6c-4.2,24.8-8.4,49.6-13.1,74.3
	c-0.6,2.9-3.9,6.4-6.7,7.4c-1.7,0.6-6.2-2.6-7.3-5c-12.2-26.6-23.7-53.5-36-80c-7.3-15.8-15.7-31.1-24-46.4c-1.3-2.5-4.9-5.8-7-5.5
	c-8.4,1.2-10.4-5-14.7-9.8c-13.7-15.4-27.8-30.2-42.7-44c-16.5-15.3-34-29.4-51.1-44c-11-9.4-21.7-9.7-34.2-2.6
	c-13.8,7.9-28.2,14.8-42.3,22.1c-3.7,1.9-7.7,3.4-10.9,6c-27.4,22.1-59.6,31.9-93.4,38.3c-5.4,1-11.2,2.6-15.6,5.6
	c-13.2,9.3-26.8,9.3-41.3,4.4c-8.9-3-17.9-5.8-26.9-8.7C127.6,598.1,127.9,597,128.2,595.9z"/>
<path class="st0" d="M1000.5,673.4c-13.5,3.9-22.5-3.1-30.5-17.7c-6.9-12.6-7-21.1-0.5-34.1c9.3-18.7,20.8-26.9,41.8-23.8
	c8.3,1.2,14.3,1.9,18,10.4c4,8.9,9.8,16.9,14.1,25.6c1.3,2.6,0.9,6.6,0,9.5c-1.1,3.6-3.7,6.7-5.5,10.1
	C1026.7,673.4,1026.7,673.4,1000.5,673.4z"/>
<path class="st0" d="M966.1,569.2c2.3,6,5.4,12.8,7.5,19.8c0.8,2.7,0.3,6.4-1,9c-3.6,7.1-9.2,13.4-11.7,20.8
	c-5.1,15.1-16.6,18.6-30.2,19.1c-2.6,0.1-6.3-1.6-7.7-3.7c-5.1-7.6-9.5-15.7-13.8-23.7c-1-1.9-0.8-4.4-0.9-6.7
	c0-1.1,0.7-2.3,1.3-3.2c6.5-10.5,10.8-24.8,20.3-30.3C938.9,565.1,953.2,569.2,966.1,569.2z"/>
<path class="st0" d="M1062.3,568.2c16.5-5.5,22.5,8.6,30,20.7c6.9,11.2,9.4,22.1-0.5,33c-0.2,0.2-0.2,0.5-0.4,0.8
	c-9.8,17.1-9.8,17.3-29.1,12.8c-3.5-0.8-7.3-3.5-9.4-6.5c-5-7.3-8.1-16.1-13.8-22.7c-11.3-13-2.8-24.2,1.8-35.8
	c0.5-1.2,3.2-2.1,4.9-2.2C1050.6,568,1055.4,568.2,1062.3,568.2z"/>
<path class="st0" d="M1005.4,738c-3.4,0-4.9,0-6.4,0c-11.3-0.1-19.6-3.4-25.3-14.8c-10.1-20.1-11-19.7,4.6-36.1
	c1.8-1.9,4.9-3.4,7.4-3.5c11.8-0.3,23.7-0.9,35.4,0.3c4.3,0.4,9,4.7,12.2,8.3c11,12.4,10.8,12.6,2.5,26.6c-0.3,0.5-0.7,1-0.9,1.5
	C1029.8,735.8,1017.8,739,1005.4,738z"/>
<path class="st0" d="M685.2,554.9c-29.1-1.8-58.3-3.6-87.4-5.4c-7-0.4-10.7-3.2-12.5-10.9c-1.1-4.6-6.8-9.2-11.5-11.7
	c-11.1-6-21.5-12.1-28-27c8.4,3.2,15.5,4.5,21,8.3c13.7,9.5,28.9,13.3,44.9,15.1c13.5,1.5,27.1,2.8,40.6,4
	c13.1,1.1,19.4,12.4,28.9,18.9c2,1.4,3.2,4,4.8,6.1C685.7,553.2,685.5,554.1,685.2,554.9z"/>
<path class="st0" d="M904.3,620c15,16,18.8,34.5,18,54c-0.1,3.5-3.5,6.8-6.5,9.8C904,663.7,900.4,643,904.3,620z"/>
<path class="st0" d="M1102.9,620.3c4.3,22.7-0.1,43-10.4,64.9c-3-3.6-6.6-6-6.9-8.7C1083.4,655.9,1087.6,637,1102.9,620.3z"/>
<path class="st0" d="M917.8,689.7c4.6-0.7,7.8-2.3,10.3-1.5c17.3,5.9,33.1,22.7,40.7,43.3C947.2,723.6,931.1,710.4,917.8,689.7z"/>
<path class="st0" d="M1089.5,689.5c-13.1,20.7-29.3,33.8-50.6,41.7c6-21.8,21.8-33.5,39.9-42.8
	C1081.1,687.3,1084.9,689,1089.5,689.5z"/>
<path class="st0" d="M1008.2,536.3c22.3,1.3,41.5,8.7,59.3,22.8C1040.6,564,1006.8,550.9,1008.2,536.3z"/>
<path class="st0" d="M940.2,559.1c17.2-14.4,36.4-21,60.8-23.1c-2.3,4.5-3,8.6-5.4,10.2C979.1,556.7,961.9,564.5,940.2,559.1z"/>
<path class="st0" d="M778.4,632.8c-12.7,0-25.5,0-38.2,0c0-0.2,0-0.4,0-0.6c12.7,0,25.5,0,38.2,0
	C778.4,632.4,778.4,632.6,778.4,632.8z"/>
<path class="st1" d="M884.3,671c0.5,0.3,0.9,0.6,1.2,0.9C885.2,671.5,884.8,671.2,884.3,671z M826.8,668.6
	c14.8,0.4,29.6,0.1,44.4,0.1C856.4,668.6,841.6,668.9,826.8,668.6z M818.5,912c6.9-1.9,14.4-1.2,22.6-0.1
	C832.9,910.8,825.4,910.1,818.5,912z"/>
<path class="st1" d="M1278.4,877c0.8-4.5,0.5-7.9-1-10.2c1.7,2.4,2,5.8,1.2,10.6c-1.5,7.9-2.8,15.8-4.2,24.4
	C1275.8,893.1,1277.1,885,1278.4,877z"/>
<path class="st1" d="M1290.6,910.5c-4.3,0-8.7,0-13.2,0C1282,910.4,1286.3,910.5,1290.6,910.5z"/>
<path class="st1" d="M1250.5,790.9c-0.7-0.9-1.4-1.7-2-2.6c0.5,0.8,1.1,1.5,1.8,2.3c21,24.5,41.7,49.2,62.2,74.1
	c0.4,0.4,0.7,0.9,1.1,1.4c-0.3-0.4-0.6-0.8-0.9-1.1C1292.2,840.1,1271.5,815.4,1250.5,790.9z"/>
<path class="st1" d="M1308.6,774.1c-8.6-13.3-11-27.6-4.5-44.9c0.4-1.1-0.1-2.6,0.5-3.5c0.9-1.3,2.4-3,3.7-3
	c11.7-0.2,23.4-0.1,35.9-0.1c0,0.1,0,0.2,0,0.3c-12.4,0-24-0.1-35.7,0.1c-1.3,0-2.8,1.7-3.7,3c-0.6,0.8-0.1,2.4-0.5,3.5
	C1297.9,746.6,1300.2,760.9,1308.6,774.1z"/>
<path class="st1" d="M1367.2,844.3c2.9,4.3,4.5,10.8,3.8,15.7c-4.4,28-9.9,55.9-15,83.8c-2.8,15.3-4.3,16.7-19.4,16.8
	c-36.4,0.1-72.8,0.1-109.3,0.1c-6.6,0-10.5-1-12.3-3.8c1.9,2.6,5.7,3.5,12.1,3.5c36.4,0,72.8,0,109.3-0.1c15.2,0,16.7-1.5,19.4-16.8
	c5.1-27.9,10.6-55.7,15-83.8C1371.5,855,1370,848.7,1367.2,844.3z"/>
<path class="st1" d="M1402,684.6c-3.4,22.2-7.1,44.4-10.5,66.6c-1.1,7.4-4.8,11.2-12.2,11.3c-10.7,0.1-21.3-0.1-32,0
	c-3.3,0-5.5-0.8-6.9-2.4c1.3,1.5,3.5,2.2,6.7,2.1c10.7,0,21.3,0.1,32,0c7.4,0,11.1-3.9,12.2-11.3c3.3-22.2,7-44.4,10.5-66.6
	c0.8-5,0.8-8-0.7-9.8C1402.8,676.3,1402.8,679.4,1402,684.6z"/>
<path class="st1" d="M654.3,929.4c1.2-7,2.5-13.9,4-20.7C656.7,915.5,655.4,922.5,654.3,929.4z M675.9,826
	c5.2-4.6,9.4-8.6,14.1-11.9C685.3,817.3,681.1,821.3,675.9,826z M703,803.2c0.3-0.3,0.5-0.6,0.8-0.9c0,0,0.1-0.1,0.1-0.1l0.3-0.4
	C703.8,802.3,703.4,802.7,703,803.2z M704.7,801.2c0.2-0.2,0.4-0.5,0.6-0.7c0.2-0.2,0.4-0.5,0.6-0.7c0.3-0.4,0.7-0.8,1-1.2
	c0.2-0.3,0.5-0.7,0.7-1c0.2-0.3,0.4-0.6,0.6-0.9c0.2-0.3,0.5-0.6,0.7-1c0.2-0.3,0.4-0.7,0.7-1c0.8-1.2,1.5-2.4,2.1-3.7
	c0.2-0.3,0.3-0.6,0.5-0.9c0.3-0.6,0.6-1.2,0.8-1.7c0.4-0.8,0.7-1.6,1-2.4c0.6-1.4,1.1-2.9,1.6-4.5c0.1-0.4,0.2-0.8,0.4-1.2
	c0.1-0.4,0.2-0.7,0.3-1c0,0,0-0.1,0-0.1c0.1-0.2,0.1-0.5,0.2-0.7c0-0.2,0.1-0.4,0.1-0.6c0.1-0.4,0.2-0.8,0.3-1.2
	c0.2-0.8,0.3-1.7,0.5-2.6c0.1-0.4,0.1-0.9,0.2-1.3c0.1-0.4,0.1-0.9,0.2-1.3c0.1-0.4,0.1-0.9,0.1-1.3
	C716.5,782.7,712,792.8,704.7,801.2z M772.2,668.8c-37.8,0-75.7,0.2-113.6-0.1c-8.4-0.1-11.9,2.5-13.4,11.1
	c-12,70.2-24.4,140.4-36.7,210.5c-2.9,16.6-6,33.2-8.9,49.8c-0.2,1.2-0.4,2.3-0.5,3.3c0.1-1,0.3-2,0.5-3.2c2.9-16.6,6-33.2,8.9-49.8
	c12.3-70.2,24.8-140.3,36.7-210.5c1.5-8.6,5-11.2,13.4-11.1C696.4,669.1,734.3,668.9,772.2,668.8c7.6,0.1,10.6,1.1,11.2,5.4
	C782.9,669.8,779.9,668.8,772.2,668.8z"/>
<path class="st1" d="M938.2,757.9c0.4-2.5,1.3-4.9,1.9-6.7C939.6,753,938.7,755.4,938.2,757.9z"/>
<path class="st1" d="M969.8,760.3c-4-1.2-8-2.5-12-3.7C961.7,757.9,965.7,759.1,969.8,760.3z"/>
<path class="st1" d="M983.3,764.5c-3.5-1.1-6.8-2.1-10.2-3.1C976.5,762.4,979.8,763.4,983.3,764.5z"/>
<path class="st1" d="M966.4,903.8c8.1-40.7,16.2-80.6,24-119.5C982.6,823.2,974.6,863.1,966.4,903.8z"/>
<path class="st1" d="M1062.2,910.7c-0.4,2-0.9,4.1-1.7,6C1061.3,914.8,1061.7,912.8,1062.2,910.7z"/>
<path class="st1" d="M1167.7,904.1c0.6,0.2,1.1,0.4,1.5,0.7C1168.8,904.5,1168.3,904.3,1167.7,904.1z"/>
<path class="st1" d="M1171,910.7c-0.8,10.3-1.1,20.7-1.4,31c-0.2,6.9-3.4,9.9-9.8,10.3c6.3-0.3,9.4-3.4,9.7-10.3
	C1169.8,931.3,1170,921,1171,910.7c0.2-3.1-0.4-4.9-1.8-5.9C1170.6,905.8,1171.2,907.6,1171,910.7z"/>
<path class="st1" d="M1176.1,682.2c-3.5,24-7.5,47.9-11.4,71.9c-7.8,48.5-15.6,96.9-23.3,145.4c-0.1,0.6-0.1,1.3-0.1,2.1
	c-0.1-0.8-0.1-1.5,0-2.1c7.8-48.5,15.5-96.9,23.3-145.4C1168.4,730.2,1172.5,706.2,1176.1,682.2c1.1-8.8-0.6-12.1-7.4-13.1
	C1175.6,670,1177.3,673.4,1176.1,682.2z"/>
<path class="st1" d="M1223.1,637.4c-1.4,3.2-3,6.4-4.3,9.7C1220,643.8,1221.6,640.6,1223.1,637.4z"/>
<path class="st1" d="M1254.6,620.9c-2.2,7.4-4.7,14.7-6.7,22C1249.9,635.6,1252.3,628.3,1254.6,620.9z"/>
<path class="st2" d="M772.8,1029.7c1.1,0.8,2.1,1.6,2.9,2.5c-0.8-0.8-1.7-1.5-2.7-2.3c-1.9,10-3.7,19.3-5.3,28.7
	c-1.5,8.7-2.9,17.5-4.2,26.3c-2.1,13.1-2.8,13.7-18,11.8c0-0.1,0-0.1,0-0.2c15,1.9,15.8,1.2,17.8-11.8c1.4-8.8,2.7-17.5,4.2-26.3
	C769.1,1049.1,771,1039.8,772.8,1029.7z"/>
<path class="st2" d="M803.4,1013.1c-0.9,6.1-1.7,12.4-2.8,18.8c-2.9,17.8-5.9,35.6-8.9,53.4c-1.9,10.4-2.6,12.7-10.8,12.1
	c8.2,0.5,8.9-1.8,10.6-12.3c3-17.8,6-35.6,8.9-53.4c1-6.3,1.9-12.6,2.8-18.7C803.2,1013,803.3,1013.1,803.4,1013.1z"/>
<path class="st2" d="M1273.8,1096.5c0.8-4.8,1.5-9.5,2.3-14.2C1275.4,1087,1274.6,1091.8,1273.8,1096.5z"/>
<path class="st2" d="M1301.4,1029.5c-3.5,19.7-6.6,38.1-10.1,56.6c-1.7,9.5-2.4,11.9-9,11.5c6.5,0.3,7.2-2.1,9-11.6
	C1294.7,1067.6,1297.9,1049.1,1301.4,1029.5c3.3,3.1,5.9,5.9,7.3,9.1C1307.2,1035.4,1304.7,1032.6,1301.4,1029.5z"/>
<path class="st2" d="M1331.3,1012.6c-0.7,4.9-1.3,10-2.1,15.1c-3.1,19.5-6.2,39.1-9.6,58.6c-2,11.9-4,13-17.8,10c0,0,0-0.1,0-0.1
	c13.8,3,15.8,1.9,17.8-10c3.3-19.5,6.4-39,9.6-58.6C1330,1022.5,1330.6,1017.5,1331.3,1012.6L1331.3,1012.6z"/>
<path class="st2" d="M874.9,1011.6c-5.1-0.3-9.5,0.4-11.5,6.3C865.5,1012,869.8,1011.3,874.9,1011.6z"/>
<path class="st2" d="M885.3,1052.8c-1.2,8.3-2.5,16.7-3.8,25.2C882.7,1069.5,884,1061.2,885.3,1052.8z"/>
<path class="st2" d="M912.4,1058.7c-0.5-1.5-1.3-3.1-2.7-4.6c0-0.1-0.1-0.1,0-0.3c0,0,0,0.1,0,0.1
	C911.1,1055.5,912,1057.1,912.4,1058.7z"/>
<path class="st2" d="M920,1046c2.2,0.1,4.5,0.5,7,0.7C924.5,1046.5,922.1,1046.1,920,1046z"/>
<path class="st2" d="M921.2,1096.9c1.2-8.3,2.3-16.5,3.5-24.8c-1.2,8.3-2.3,16.6-3.5,25h-42.6c0-0.1,0-0.1,0-0.2H921.2z"/>
<path class="st2" d="M929.8,1033.1c0.3-0.9,0.6-1.9,0.9-2.9c-0.2,1-0.5,2.1-0.9,3.1c-0.9,2.6-7.2,3.2-11.8,5.1
	c-1-4.5-1.6-6.9-2.8-12.1c-4.4,2.7-10,4.3-10.5,6.9c-3.1,15.5-5,31.4-7.3,47c0,0,0,0,0,0c2.3-15.7,4.2-31.5,7.3-47.2
	c0.5-2.6,6.2-4.2,10.5-6.9c1.2,5.2,1.8,7.6,2.8,12.1C922.5,1036.4,928.9,1035.7,929.8,1033.1z"/>
<path class="st2" d="M933.2,1010.9c-0.1,0.6-0.2,1.3-0.2,1.9C933,1012.2,933.1,1011.5,933.2,1010.9
	C933.2,1010.9,933.2,1010.9,933.2,1010.9z"/>
<path class="st2" d="M1276.9,1013.8c0.7,1.2,0.8,2.8,0.4,5.1c-4,22.1-7.6,44.2-12,66.2c-1.5,7.6-7.6,12-15.3,12.5
	c-4.3,0.2-8.6,0.3-13.2,0.2c4.6,0.1,8.9,0.1,13.3-0.1c7.7-0.5,13.8-4.9,15.3-12.5c4.4-22,8-44.1,12-66.2
	C1277.8,1016.6,1277.6,1014.9,1276.9,1013.8z M1260.5,1027.8c-1,6.5-2,12.9-3.1,19.4c-1.6,9-3.9,17.9-4.7,27c0,0.2,0,0.4-0.1,0.7
	c0-0.2,0-0.4,0.1-0.6c0.9-9.1,3.1-18,4.7-27C1258.5,1040.8,1259.5,1034.3,1260.5,1027.8L1260.5,1027.8z M1251.9,1078.3
	c0.4-0.9,0.6-2.1,0.7-3.4C1252.5,1076.2,1252.2,1077.3,1251.9,1078.3z M1251.1,1079.9c0.2-0.3,0.4-0.7,0.6-1.2
	C1251.5,1079.2,1251.3,1079.5,1251.1,1079.9z M1240.3,1081.8c2.3-12.9,4.4-25.6,6.8-38.1C1244.6,1056.2,1242.6,1068.9,1240.3,1081.8
	z"/>
<path class="st2" d="M1337,1067.6c-5.2,0.3-7.9,3.2-8.5,9.3c-0.4,4.7-1.6,9.3-2.3,14c-0.6,3.8,0.3,6.1,4,6.5
	c-3.7-0.4-4.7-2.7-4.1-6.5c0.8-4.7,2-9.3,2.3-14C1328.9,1070.7,1331.6,1067.9,1337,1067.6z"/>
<path class="st2" d="M1347.4,1010.9c-0.1,0-0.2,0-0.3,0C1347.2,1010.9,1347.2,1010.9,1347.4,1010.9L1347.4,1010.9z"/>
<path class="st2" d="M1354,1068.2c1.5,3.3,1.8,7.9,0.7,11.2c-0.2,0.4-0.5,0.7-1,0.9c0.5-0.3,0.8-0.6,0.9-0.9
	C1355.7,1076.1,1355.4,1071.5,1354,1068.2c-1.8-3.9-4.9-7.7-8.2-10.4c-16-12.7-8.2-28.3-5.3-43.1c0.2-1,1.6-2,3.2-2.8
	c-1.6,0.8-3,1.8-3.1,2.8c-2.9,14.8-10.6,30.4,5.3,43.1C1349.3,1060.5,1352.3,1064.3,1354,1068.2z"/>
<path class="st2" d="M1356.3,1043.9c0.3,0.3,0.7,0.7,1,1C1357,1044.6,1356.7,1044.2,1356.3,1043.9z"/>
<path class="st2" d="M1364.1,1037.4c2.9,0.6,5.2,1,7.1,1.1C1369.3,1038.4,1366.9,1038,1364.1,1037.4l-0.1-11.7c0,0,0.1,0,0.1,0
	V1037.4z"/>
<path class="st2" d="M1111.6,1069L1111.6,1069c-12.7-2.9-14.3-2-16.3,10c-0.6,3.8-0.9,7.7-1.8,11.4c-0.5,2-0.5,3.6,0,4.7
	c-0.6-1.1-0.6-2.7-0.1-4.8c0.9-3.7,1.2-7.6,1.8-11.4C1097.2,1066.9,1098.8,1065.9,1111.6,1069z"/>
<path class="st2" d="M1122.3,1070.1c1.2,3.3,1,6.9-0.9,11h-9.7v-0.1h9.6C1123.2,1077,1123.4,1073.4,1122.3,1070.1z"/>
<path class="st2" d="M1133.3,1037.5c-1.7-1.7-2.9-6.1-5.3-10.6c0,0,0,0,0,0C1130.4,1031.3,1131.6,1035.7,1133.3,1037.5z"/>
<path class="st2" d="M1116.8,1062.7c-16.8-20.2-16.9-20.3-10.3-45.9c0.5-2.1,2.8-5.4,4.4-5.5c7.1-0.2,14.2-0.3,21.5-0.2
	c-7.3,0-14.3,0.1-21.4,0.3c-1.6,0.1-3.8,3.3-4.4,5.5C1100,1042.6,1100.1,1042.6,1116.8,1062.7L1116.8,1062.7z"/>
<path class="st2" d="M1014.6,1075.2c-0.5-2.3-1.7-6.3-2.4-7c0.7,0.3,1.9,4.6,2.5,7.1c0.4,1.6-0.1,3.5-0.3,7.2c0,0-0.1,0-0.1,0
	C1014.5,1078.7,1015,1076.9,1014.6,1075.2z"/>
<path class="st2" d="M1024,1041.5c-3.3-4.4-3.1-9.3,0.4-15c2.8,0.2,5.6,0.3,8.9,0.5v0.1c-3.3-0.2-6-0.4-8.8-0.5
	C1021,1032.3,1020.8,1037.1,1024,1041.5z"/>
<path class="st2" d="M1027.8,1045.6c16.3,20,16.5,20,10.4,45c-0.7,2.7-4.5,6.5-7,6.7c-11.2,0.7-22.4,0.3-35.9,0.3c0,0,0-0.1,0-0.1
	c13.5,0,24.7,0.4,35.8-0.3c2.6-0.2,6.4-4,7-6.7c6.1-25,5.9-25-10.4-45C1027.7,1045.5,1027.8,1045.6,1027.8,1045.6z"/>
<path class="st2" d="M1048.1,1034.3c1.7-4.8,2.3-9.9,3.1-15.6C1050.5,1024.4,1049.8,1029.5,1048.1,1034.3c-0.6,2.4-6.3,3.8-9.9,4
	c-0.6,0-1.3-0.6-2-1.6c0.7,0.9,1.3,1.5,1.9,1.5C1041.6,1038,1047.3,1036.6,1048.1,1034.3z"/>
<path class="st2" d="M1033.1,1010.8c6,0,12.2,0,19.2,0C1045.3,1010.8,1039.1,1010.9,1033.1,1010.8z"/>
<path class="st2" d="M1148.7,1077.6c-3.4,19.4-4.5,20.3,6.3,20.1C1144.1,1098,1145.2,1097.2,1148.7,1077.6c0.7-4.7,0.9-9.5,7.7-9.9
	h0.1C1149.8,1068.1,1149.6,1072.9,1148.7,1077.6z"/>
<path class="st2" d="M1159.4,1067.7c-0.7,0-1.4,0-2.3,0C1158,1067.6,1158.7,1067.6,1159.4,1067.7z"/>
<path class="st2" d="M1165.1,1077.1c0,0.5,0,1.1-0.1,1.6C1165,1078.1,1165.1,1077.6,1165.1,1077.1z"/>
<path class="st2" d="M1173.5,1067.1c1.8,3.5,2.4,8.5,1.3,12.3c-0.6,1.8-6.2,2.1-10,3.1c3.8-1.1,9.4-1.4,9.9-3.1
	C1175.8,1075.7,1175.2,1070.7,1173.5,1067.1c-2.5-4.6-6.8-8.2-10-12.4c-3-3.9-7.9-8.3-7.8-12.3c0.3-9.6,2.8-19.2,5-28.7
	c0.3-1.4,3.8-2.8,5.8-2.8h0.1c-2,0.1-5.5,1.5-5.8,2.8c-2.2,9.5-4.7,19.1-5,28.7c-0.1,4,4.8,8.4,7.8,12.3
	C1166.8,1059,1171.2,1062.5,1173.5,1067.1z"/>
<path class="st2" d="M1188.6,1039.2c-4.4-0.1-5.5-3.7-5-12.9c0,0,0.1,0,0.1,0C1183.2,1035.4,1184.3,1039,1188.6,1039.2z"/>
<path class="st2" d="M700.5,1085.5c-13-2.7-17.3,19.1-32.7,10.3c0,0,0,0,0,0C683.2,1104.8,687.6,1082.9,700.5,1085.5
	C700.5,1085.6,700.5,1085.5,700.5,1085.5z M715.2,1013.4c2.3,2.9,0.8,7.6,0.8,11.2c0.3,20.4,0.2,40.9,0.2,61.3c0,6-0.1,9.2-1.6,10.7
	c1.6-1.5,1.7-4.7,1.7-10.6c0-20.4,0.1-40.9-0.2-61.3C716.1,1021,717.7,1016.3,715.2,1013.4z"/>
<path class="st2" d="M671.7,1015.9c0.3,1.1,0.5,2.4,0.5,3.9C672.2,1018.3,672.1,1017,671.7,1015.9z M671.2,1047.1
	c-13,11.5-7.5,26.8-8.5,40.7v0.1C663.8,1074,658.2,1058.7,671.2,1047.1c0.6-0.4,0.8-1.5,0.9-2.6
	C672,1045.6,671.8,1046.6,671.2,1047.1z M650,1097.2L650,1097.2l12.7,0.1C657.9,1097.3,654.4,1097.3,650,1097.2z M653.8,1026.4
	c-0.2,0.1-0.4,0.2-0.7,0.3c-0.6,0.3-1.1,0.6-1.7,0.9c-0.5,0.2-0.9,0.5-1.3,0.8c-0.1,0.1-0.2,0.2-0.4,0.2c-0.2,0.1-0.3,0.2-0.5,0.3
	c-0.1,0.1-0.2,0.1-0.3,0.2c-0.4,0.3-0.7,0.6-0.9,0.9c0,0,0,0,0,0v0c0,0,0,0,0,0c1.1-1.4,3.6-2.5,6.2-4
	C654.2,1026.2,654,1026.3,653.8,1026.4z M636.5,1097h-13.7c0,0,0,0.1,0,0.1h13.7c2.8-9.2,1.2-20.2,13.5-25.1v-0.1
	C637.7,1076.8,639.3,1087.8,636.5,1097z"/>
<path class="st2" d="M1049.5,1097h33.6v0.1h-33.7c0.8-7.8,1.3-15.3,2.2-22.8c2.2-18.2,4.9-36.3,6.9-54.5c0.4-3.9,1.4-6.7,3.8-8.1
	c-2.3,1.4-3.2,4.2-3.7,8c-2,18.2-4.7,36.3-6.9,54.5C1050.8,1081.7,1050.2,1089.2,1049.5,1097z"/>
<path class="st2" d="M1067.9,1066.4c5.7-0.4,10.3-0.7,15.3-1v0.1C1078.2,1065.8,1073.7,1066.1,1067.9,1066.4
	C1067.9,1066.5,1067.9,1066.4,1067.9,1066.4z"/>
<path class="st2" d="M1090.5,1024.8c-1,1.6-2.3,3-3.7,3.5c-3.9,1.4-10.7-0.1-12.8,1.7c1.9-1.9,8.9-0.3,12.8-1.8
	C1088.2,1027.7,1089.5,1026.4,1090.5,1024.8z"/>
<path class="st2" d="M584.9,1021.7c0.4,4.8,6.1,5.1,12.4,5.3c0,0,0,0.1,0,0.1C591,1026.9,585.2,1026.6,584.9,1021.7z"/>
<path class="st2" d="M604,1085.6c0.7-4.3,1.4-8.7,2.2-13C605.5,1077,604.7,1081.4,604,1085.6c-2.4,14.1-2.8,14.5-18.6,11.2
	c0,0,0-0.1,0-0.1C601.2,1100,601.6,1099.6,604,1085.6z"/>
<path class="st2" d="M629.9,1012.3c-0.4,8.9-1.2,15.3-11.5,14.6c-1.6-0.1-4.7,4-5.2,6.5c-0.3,1.4-0.5,2.7-0.8,4.1
	c0.3-1.4,0.5-2.8,0.8-4.2c0.5-2.5,3.5-6.6,5.2-6.5C628.7,1027.6,629.4,1021.2,629.9,1012.3z"/>
<path class="st2" d="M737.6,1094.6c0.3-0.8,0.6-1.7,0.8-2.9C738.2,1092.9,737.9,1093.8,737.6,1094.6z"/>
<path class="st2" d="M738.7,1088.8c0.2-1.6,0.5-3.2,0.7-4.8C739.2,1085.6,738.9,1087.2,738.7,1088.8z"/>
<path class="st2" d="M1208.8,1098.2c0.5,0,1-0.1,1.4-0.3C1209.8,1098,1209.3,1098.1,1208.8,1098.2z"/>
<path class="st2" d="M1226.9,1012.4c-0.7-0.7-1.9-1.2-3.8-1.4c-5.5-0.5-11-1.7-12.3,7c-3.7,23.9-8.1,47.7-12.5,71.5
	c-0.6,2.7-0.6,4.8,0,6.2c-0.7-1.4-0.7-3.5-0.2-6.3c4.5-23.8,8.8-47.6,12.5-71.5c1.3-8.7,6.8-7.4,12.3-7
	C1225,1011.1,1226.2,1011.6,1226.9,1012.4z"/>
<path class="st2" d="M814,1094.4c-1.4,3.1-3.4,4.1-7.6,3.7C810.6,1098.5,812.6,1097.5,814,1094.4z"/>
<path class="st2" d="M828.1,1012.4C828.1,1012.4,828.1,1012.5,828.1,1012.4c-14.1-3.6-16.2-2.3-18,10.6c-0.5,3.2-0.9,6.4-1.5,9.6
	c-3.2,18.4-6.5,37-9.8,55.7c3.3-18.8,6.5-37.3,9.7-55.8c0.6-3.2,1-6.4,1.5-9.6C811.9,1010,813.9,1008.7,828.1,1012.4z"/>
<path class="st0" d="M840.6,737v122.9h-23.3c7.5-41.2,15-82.2,22.5-123.2C840.1,736.8,840.3,736.9,840.6,737z"/>
<path class="st0" d="M726.4,718.2c-2.5,14.1-5.8,27.2-7.4,40.2c-0.4,3-0.7,6-0.9,9c-1,15.8-7,27.8-16.9,37.6
	c-3.3,3.3-7,6.3-11.2,9.1c-4.7,3.2-8.9,7.2-14.1,11.9c-1.2,1.1-2.5,2.2-3.8,3.3c2.5-15.6,4.5-29.3,6.8-43
	c3.4-20.1,7.1-40.1,10.2-60.2c0.9-5.7,2.9-8.3,9-8C707.1,718.5,716.2,718.2,726.4,718.2z"/>
<path class="st0" d="M1260.5,1027.8c-1,6.5-2,13-3.1,19.5c-1.6,9-3.8,17.9-4.7,27c0,0.2,0,0.4-0.1,0.6c-0.1,1.3-0.4,2.4-0.7,3.4
	c0,0.2-0.1,0.3-0.2,0.5c-0.2,0.4-0.4,0.8-0.6,1.2c-0.1,0.1-0.1,0.2-0.2,0.3c0,0,0,0,0,0c-0.2,0.3-0.4,0.5-0.6,0.7
	c-0.1,0.1-0.2,0.2-0.2,0.2c-0.1,0.1-0.2,0.1-0.3,0.2c-0.1,0-0.1,0.1-0.2,0.1c-0.1,0-0.1,0.1-0.2,0.1c-0.1,0.1-0.2,0.1-0.3,0.2
	c-2,1-4.8,1-8.7,0c2.2-12.9,4.3-25.6,6.8-38.1c0.4-2.1,0.8-4.2,1.2-6.3c0.4-2.1,0.9-4.2,1.3-6.2c0.5-2.3,5.6-3.7,8.5-5.5
	C1258.9,1026.4,1259.7,1027.1,1260.5,1027.8L1260.5,1027.8z"/>
<path class="st0" d="M701.2,1056.5c0,0.2,0,0.4,0,0.6c0,0.4,0,0.8-0.1,1.2c0,0.2,0,0.4,0,0.6c0,0.4-0.1,0.7-0.1,1.1
	c0,0.4-0.1,0.8-0.2,1.1s-0.2,0.7-0.2,1.1c0,0.1-0.1,0.2-0.1,0.4c0,0.1-0.1,0.3-0.1,0.4c-0.1,0.2-0.2,0.5-0.2,0.7
	c-0.1,0.3-0.2,0.6-0.4,0.9c-0.1,0.2-0.2,0.4-0.3,0.6c-0.1,0.2-0.2,0.4-0.3,0.6c-0.2,0.4-0.5,0.8-0.8,1.1c-0.2,0.2-0.4,0.5-0.6,0.7
	s-0.4,0.4-0.6,0.6c-0.2,0.2-0.3,0.3-0.5,0.4c-0.1,0.1-0.2,0.2-0.3,0.2c-0.1,0.1-0.3,0.2-0.5,0.3c-0.1,0.1-0.3,0.2-0.5,0.3
	c-0.2,0.1-0.3,0.2-0.5,0.3c0.4-2.7,0.9-5.3,1.3-7.9c0.2-1.3,0.4-2.5,0.6-3.8c0.1-0.6,0.2-1.2,0.3-1.9c0.7-4.3,1.4-8.5,2.1-12.6
	c0.2-1.2,0.4-2.4,0.6-3.6c0.1,0.4,0.1,0.8,0.2,1.1c0.1,0.8,0.2,1.5,0.3,2.2c0,0.4,0.1,0.7,0.1,1.1c0.1,0.7,0.2,1.4,0.2,2
	c0,0.3,0.1,0.7,0.1,1c0.1,0.7,0.1,1.3,0.2,1.9c0,0.3,0,0.6,0.1,0.9c0,0.6,0.1,1.2,0.1,1.7C701.2,1053.7,701.2,1055.1,701.2,1056.5z"
	/>
<path class="st0" d="M644.1,1056.6c-0.3,0.2-0.6,0.4-0.9,0.6c1.5-9.4,2.4-17.9,4.5-26.1c0-0.2,0.1-0.4,0.2-0.6c1-1.8,4.5-3.1,7.6-5
	c0.2-0.1,0.5-0.3,0.7-0.4c0.1,0.4,0.1,0.8,0.2,1.2C658.9,1040.5,654.8,1049.4,644.1,1056.6z"/>
</svg>
