<?xml version="1.0" encoding="utf-8"?>
<!-- Generator: Adobe Illustrator 28.0.0, SVG Export Plug-In . SVG Version: 6.00 Build 0)  -->
<svg version="1.1" id="Layer_1" xmlns="http://www.w3.org/2000/svg" xmlns:xlink="http://www.w3.org/1999/xlink" x="0px" y="0px"
	 viewBox="0 0 1741.6 1389.9" style="enable-background:new 0 0 1741.6 1389.9;" xml:space="preserve">
<style type="text/css">
	.st0{fill:#F05A28;}
</style>
<g>
	<path d="M789.2,671.3c12-20.6,23.2-40,34.7-59.1c1.2-2.1,4.5-3.9,6.9-4.1c20.2-1.6,40.4-2.8,60.6-4.2c6.1-0.4,12.4-0.4,18.4-1.6
		c3-0.6,6.6-2.8,8.3-5.4c11.6-18.2,22.5-36.7,34-54.9c2.7-4.2,2.5-7.3-0.2-11.4c-11.2-16.6-21.9-33.5-33.1-50
		c-3.4-5-3.8-8.9-0.8-14.4c11-19.8,21.4-39.8,32-59.8c1-1.9,2.2-3.7,3.9-6.5c5.2,8,10,15.2,14.6,22.6c16.3,25.9,32.3,51.9,48.9,77.6
		c6.4,10,5,21.1,6.6,31.8c3.3,21-6.3,38-17.5,54.4c-17.2,25-34.4,49.9-51.5,75c-2.3,3.4-5.1,4.8-9.3,4.9c-33,1.1-66,2.4-99,3.6
		c-16.5,0.6-33,1-49.5,1.5C794.8,671.3,792.7,671.3,789.2,671.3z"/>
	<path class="st0" d="M986.4,333.5c-3.5,6.7-6.7,12.8-10,18.8c-6.6,11.9-13.5,23.7-19.9,35.6c-2.9,5.4-7.5,5.2-12.4,5
		c-21.8-0.8-43.6-1.4-65.4-2.5c-6.1-0.3-9.8,2.2-12.9,7.1c-12.1,18.6-24.3,37.1-36.7,55.5c-2.7,4.1-2.7,7.7-0.4,11.7
		c8.5,15.1,17.1,30.2,25.6,45.3c0.5,0.9,1.1,1.9,1.8,2.7c9.9,11.8,7.6,22.4-0.8,34.5c-10.3,14.7-18.6,30.8-27.8,46.3
		c-1,1.7-2.3,3.2-4.1,5.7c-6-9.9-11.8-19.2-17.3-28.5c-16.2-27.1-33.1-53.9-48-81.7c-4.3-8-3.6-19.1-3.9-28.8
		c-0.4-17,10.3-29.6,19.4-42.3c19.7-27.6,40.2-54.5,59.9-82.1c6.3-8.8,13.5-11.4,24-10.6c30.7,2.3,61.5,3.5,92.3,5.1
		c10.3,0.5,20.7,1,31,1.6C982.2,332.2,983.6,332.8,986.4,333.5z"/>
	<path class="st0" d="M1090.4,667.1c-14.4,28.6-33.8,52.9-58.6,72.9c-21.6,17.3-46.3,28.8-72.7,37.3c-32.5,10.5-65.7,11.8-99.1,9.5
		c-22.3-1.5-43.9-7.7-64.9-16c-46.5-18.5-82.2-49.6-106.9-92.8c-17.5-30.5-26.1-63.7-24.9-99.2c0.7-21.6,4.9-42.3,13.4-62.1
		c0.6-1.5,1.6-3,2.8-4.3c-6.6,23.7-10,47.7-8.9,72.2c1.6,35.3,13,67,33.8,95.5c23.5,32.3,53.3,57.2,89,74.4
		c37.2,17.9,76.6,25.2,118,17.9c10.1-1.8,20.3-3.4,30.4-5.4c2.6-0.5,5.1-1.4,7.6-2.1v-1.5c0,0-7.4,0-7.5,0c-0.6,0-0.9,2.4-1.3,2.7
		c-0.9,0.7-4.6,0.8-5.5,0.3c-0.6-0.4-1.5-3-2.2-3c-1.9,0-4.2-1.3-5.7,0c-1,0.9-1,1.9-1.9,2.2c-0.9,0.3-1.9-0.3-2.6-0.8
		c-0.1-0.6-0.3-1.5-0.8-2.4c-0.5-0.9-1.1-1.4-1.8-2.1c-0.8-0.7-2.5-2.9-3.5-3.1l-4.3-0.8c-0.4-1.2-0.7-2.3-1.1-3.4
		c0.5-0.9,1-1.8,1.5-2.8c0.2-0.3,0.3-0.6,0.5-0.9c-0.2-1.4-0.4-2.8-0.6-4.1c-0.1-1.1,0.1-1.8-0.3-2.5c-0.5-0.9-1.6-1.2-2.4-1.3
		c-1.3-1.4-1.6-3.5-0.7-5c0.9-1.5,2.5-1.6,2.7-1.6c1.1-2.7,0.9-3.8,0.5-4.1c-0.4-0.4-1.1-0.1-1.9-0.8c0,0-0.6-0.5-0.8-1.3
		c-0.4-1.2,0.1-2.7,1.2-3.8c0.2-0.2,1-0.8,2.1-0.6c0.8,0.1,1.4,0.6,1.6,0.8c0.9-0.8,2.5-2.5,3.4-5.2c0.6-1.7,0.7-3.2,0.8-4.3
		c1.5-0.5,4-2,5.4-1.5c0.8,0.3,1.7,1.5,2.4,2.1l4-1.5c-0.1-0.5-0.5-3.7,1.1-4.9c0.5-0.4,0.6-0.1,3.7-0.4c1.3-0.1,1.9-0.2,2.6,0.2
		c0.3,0.2,0.6,0.6,0.9,1.3c0.1,0.4,0.7,2.9,1,3.1l5,1.5c0.4-0.8,0.8-2,1.4-2.7c1-1.2,2.3-0.7,3.9-0.5c1.9,0.2,2.9,3.7,3.7,5.3
		l32.8,2.1l-30.7,3.6c-1.8-0.2-3.6-0.5-5.4-0.7c-2.1-0.3-5.7,0.2-6.5-2.1c-0.3-1-1.5-1.3-2.4-1.5c-5.4-0.9-11.3-0.9-16,2.2
		c-1.2,0.8-2.4,1.8-3.5,2.8c-1.1,1-2.3,2-3.2,3.3c-1.5,2.1-2.1,4.8-2.4,7.4c-0.7,6.1-0.2,12.5,1.9,18.2c0.2,0.5,0.4,1.1,0.8,1.5
		c0.3,0.4,0.8,0.7,1.2,1c7.3,4.4,15.9,6.1,24.1,4.7c1.1-0.2,2.2-0.4,3.2-0.9c1.1-0.5,1.8-1.7,2.8-2.2c1.2-0.6,3.1-0.5,4.4-0.7l5,0.3
		l4-0.2l-8.4,3.8c-0.2,0.9-0.5,1.9-0.7,2.9c3.5-1.1,7-2.3,10.5-3.5c3.9-1.4,7.8-2.9,11.7-4.4c7.5-3,14.8-6.3,22-10
		c7.1-3.6,14-7.5,20.6-11.9c6.6-4.3,13-9,19.1-14c6.2-5.1,12-10.6,17.4-16.5c5.4-5.8,10.4-12,15-18.4
		c29.2-40.9,36.3-87.8,35.2-137.1c1.2,4.1,2.9,8.2,3.4,12.4C1114.1,597.4,1107.6,633,1090.4,667.1z"/>
	<path class="st0" d="M991.8,880.3c-1.1,1.6-2.4,3-3.2,4.8c-3.6,7.5-7.2,15.1-10.5,22.7c-1.7,3.8-3.3,6.9-8.2,7.1
		c-5.2,0.2-8.8-1.2-11-6.2c-3.2-7.4-6.7-14.8-10.3-22.1c-1.1-2.2-2.5-4.2-3.8-6.4c-0.6,0.1-1.2,0.3-1.9,0.4c0,6.9,0,13.8,0,20.7
		c0,7.5-0.1,15,0,22.5c0.1,4.5-1.5,7-6.5,6.7c-6.1-0.3-12.3-0.1-19.4-0.1c-0.3-3.5-0.9-6.9-0.9-10.3c-0.1-26.9,0.1-53.7-0.2-80.6
		c-0.1-5.8,2.1-8.1,7.7-7.6c1.3,0.1,2.6,0,4,0c22.9,0.2,15.7-2.2,25.7,17.1c4.9,9.5,9.1,19.3,14.3,30.6c2.3-3.6,3.8-5.6,4.9-7.8
		c5.5-11.5,11-23,16.3-34.6c1.7-3.7,3.8-5.5,8-5.3c5.9,0.2,11.9,0.1,17.8-0.1c4.3-0.1,5.7,1.8,5.7,6c-0.1,29.3-0.1,58.6,0,87.8
		c0,4.1-1.8,5.5-5.6,5.3c-4.6-0.2-9.3-0.7-13.8-0.2c-5.6,0.6-6.9-1.9-6.8-6.8c0.2-11.4,0.1-22.9,0-34.3c0-3-0.3-5.9-0.5-8.9
		C993,880.6,992.4,880.5,991.8,880.3z"/>
	<path class="st0" d="M1349.9,881.2c0-14.1,0.2-28.2-0.1-42.3c-0.1-5.3,1.9-6.8,6.9-6.8c13.2,0.2,26.4,0.1,39.6,0
		c14.8-0.2,24.7,7.7,30.6,20.2c6.3,13.3,3.9,26.5-6.7,37c-4.5,4.5-4.3,7.7-1.2,12.5c4.7,7.4,9,15.1,13.3,22.7
		c2.9,5.1,1.8,6.8-3.9,6.6c-2-0.1-4-0.7-5.9-0.3c-12,2.3-19.4-2.8-23.9-13.8c-2-4.8-4.8-9.4-8-13.6c-1.5-1.9-4.4-3.3-6.9-3.8
		c-5.3-1.1-7.5,1.4-7.2,6.9c0.4,6.4,0.1,12.8,0.2,19.1c0,4.2-1.7,5.9-6.1,5.5c-4.8-0.5-9.7-0.6-14.5-0.3c-4.6,0.3-6.2-1.3-6.2-6
		c0.2-14.5,0.1-29,0.1-43.6C1350,881.2,1350,881.2,1349.9,881.2z M1376.8,865.2c0.2,12.9-3.1,12.5,12.8,12.5c1.1,0,2.2,0,3.3,0
		c6.2,0.1,9.3-3.2,10-9.1c1.3-10.7-2.5-15-13.5-15C1376.7,853.5,1376.7,853.5,1376.8,865.2z"/>
	<path class="st0" d="M1285.9,832.6c28.1,0.1,50,21.6,49.9,48.9c-0.1,28.4-22.6,47.9-53.1,49.2c-25.3,1-50.2-24.3-49.3-51
		C1234,857.1,1254.6,829.3,1285.9,832.6z M1308.9,881.2c1.2-17-10.5-27.1-22.7-27.7c-10.3-0.5-19.4,4.7-23.5,13.7
		c-4.8,10.4-3.2,27.1,4.3,34.1c3.6,3.4,8.7,6.3,13.5,7.1C1297.7,911.2,1309.2,899.8,1308.9,881.2z"/>
	<path class="st0" d="M1086.1,930.3c-29.2,3.4-50.5-26.3-51.5-47.3c-1.2-26,23.3-50.9,46.7-50.6c33.4,0.5,55.6,19.1,55.9,49.4
		C1137.3,905.2,1114.9,933.1,1086.1,930.3z M1061.6,881.1c0.1,1.8,0.2,3.5,0.3,5.3c0.4,10.8,7.1,19,17.7,21.9
		c10.3,2.8,21.4-1.1,26.6-9.9c5.6-9.5,5.9-19.9,2-29.9c-3.2-8.1-9.2-13.7-18.6-15C1076.4,851.7,1061.1,859.6,1061.6,881.1z"/>
	<path class="st0" d="M309,832.1c7.8,0,15.2-0.2,22.6,0.2c1.2,0.1,3,3.4,3,5.2c0.3,14.3,0,28.6,0.2,43c0.1,4.4,0.3,8.9,1.5,13.1
		c3,11.1,9.3,15.6,20.1,15.1c7.7-0.3,14.4-7,16-16.8c1-6.3,1-12.7,1.1-19.1c0.2-11.7,0.1-23.4,0-35c0-3.8,0.3-6.4,5.3-5.7
		c6.7,0.8,15.6-1.4,19.4,2.2c3.4,3.2,1.7,12.4,1.6,18.9c-0.2,14.1,0.2,28.3-1.6,42.2c-2.2,17.7-12.7,30.3-30.2,34.3
		c-18.4,4.3-36.6,2.6-48.9-14.1c-5-6.8-9.1-15.7-9.6-24C308,872.1,309,852.5,309,832.1z"/>
	<path class="st0" d="M257.1,830.7c9.8,2.6,19.7,5,29.5,7.7c4.1,1.2,5.2,3.7,3.2,8c-6.7,14.1-6.5,14.1-21.1,9.8
		c-4.8-1.4-9.9-2.6-14.8-2.5c-2.7,0.1-5.4,3-8.1,4.7c1.9,2.6,3.2,6.5,5.8,7.6c7.6,3.3,15.8,5.2,23.5,8.4c17.2,7,21.6,14.8,19.7,33.3
		c-1.1,10.9-13,21.2-27,23.5c-17.1,2.8-33.1-1.4-48.6-7.9c-4-1.7-4.9-3.9-2.8-7.6c1.7-3.1,3.3-6.2,4.7-9.4c2.9-6.3,4.6-6.6,11.2-4.2
		c8,2.8,16.2,5.1,24.5,6.7c3.5,0.7,8.6,0.9,9.5-4.5c0.8-5.1-3.5-6.6-7.2-8c-8.4-3.1-17-5.8-25.4-9.1c-23.1-9.1-18.8-38.9-1.9-49.6
		c7.9-5,16.1-5.1,24.7-4.8C256.8,832,257,831.3,257.1,830.7z"/>
	<path class="st0" d="M644.6,908.9c11.9,0,23.5,0,35.2,0c9.2,0,9.5,0.1,9.3,9c-0.3,14,1.2,12.5-12.4,12.6
		c-18.1,0.1-36.1,0.1-54.2,0.4c-5,0.1-5.3-2.9-5.3-6.4c0-18.1,0-36.1,0-54.2c0-10.6,0.2-21.1-0.2-31.7c-0.1-4.4,0.7-6.5,5.6-6.5
		c19.8,0.1,39.7-0.1,59.5,0c1.7,0,4.8,1.7,4.9,2.9c0.5,5.2,0.4,10.5-0.2,15.8c-0.1,1-3.3,2.4-5.1,2.5c-9.9,0.3-19.9,0.5-29.7,0
		c-6.5-0.3-8.8,2-7.9,8.2c0.3,2.4,0.1,4.8,0.1,8.3c9.7,0,19.1,0.4,28.5-0.1c6.8-0.4,8.8,1.7,8.6,8.4c-0.5,14.8,0.7,12-12.5,12.2
		c-7.5,0.1-15,0.1-22.5,0.2c-0.4,0-0.8,0.3-1.6,0.6C644.6,896.6,644.6,902.2,644.6,908.9z"/>
	<path class="st0" d="M1442.3,920c2.8-5.7,5.5-11.4,8.3-17.1c1.9-3.9,4.8-2.6,7.8-1.5c6.4,2.4,12.7,4.9,19.2,6.7
		c3.3,0.9,7.1,1,10.4,0.4c2.2-0.5,5.8-3.1,5.7-4.5c-0.3-2.5-2.3-5.9-4.5-6.9c-6-2.7-12.5-4-18.7-6.3c-4.9-1.8-9.9-3.8-14.2-6.7
		c-11.4-7.5-14-27.9-4.9-38.6c6.9-8.3,15.2-13.3,26.7-13c12.4,0.3,24.5,0.2,36,5.7c4.2,2,5.9,4.1,3.3,8.5c-2.7,4.7-5.2,9.6-7.8,14.6
		c-5.8-2.2-11-4.4-16.4-6c-3.7-1.1-7.9-2.1-11.6-1.6c-2.9,0.4-5.5,3.1-8.2,4.8c1.9,2.6,3.3,6.4,5.9,7.5c7.6,3.3,15.8,5.1,23.5,8.3
		c19.6,8.1,20.8,16.4,19.7,32.6c-0.7,10.6-10.2,20-23.7,23.3c-19.2,4.7-36.9-0.5-54.2-8.2C1443.8,921.7,1443.3,920.9,1442.3,920z"/>
	<path class="st0" d="M708.5,899.6c8.3,3,15.2,6,22.3,8c4.3,1.2,9.1,1.3,13.6,0.9c2.1-0.2,5.6-2.6,5.6-4c0-2.3-1.8-5.7-3.8-6.6
		c-6.6-2.9-13.8-4.3-20.4-7.3c-6.4-3-13.9-5.9-18.2-11c-13.2-15.9-3.8-39.7,17.2-46.5c16.9-5.5,31.9,0.3,46.9,6.7
		c1.3,0.5,2.5,4.2,1.9,5.6c-2.4,5.4-5.5,10.4-8.5,15.7c-6.5-2.3-12.4-4.6-18.4-6.3c-3.3-0.9-7.1-1.7-10.4-1c-2.7,0.6-5,3.3-7.4,5.1
		c2,2.6,3.4,6.4,6,7.5c6.1,2.7,12.9,4,19.3,6.3c8.7,3.2,17.3,7,21.9,15.8c9,17.4-0.9,36.3-21.5,41.9c-11.4,3.1-22.7,2-33.9-1
		c-5.7-1.5-11.2-3.5-16.8-5.3c-4.5-1.5-5.9-4.4-3.6-8.6C703,909.9,705.8,904.8,708.5,899.6z"/>
	<path class="st0" d="M787.6,920.5c3.6-7.3,7-14,10.5-20.9c7.7,2.8,14.8,5.6,22,7.8c3.9,1.2,8.3,1.8,12.3,1.4
		c2.8-0.3,5.3-2.9,7.9-4.5c-2-2.6-3.5-6.3-6.1-7.5c-5.9-2.7-12.6-3.8-18.7-6.3c-5.6-2.3-11.4-4.8-16.1-8.6
		c-11.4-9.1-10.8-30.5,2.1-41.4c6-5.1,12.6-8.1,21-8.1c12.6,0.1,24.9,0.1,36.7,5.6c5,2.3,6.4,4.6,3.3,9.4c-2.8,4.4-5.2,9.1-7.3,12.8
		c-9.2-2.4-17.8-5-26.5-6.8c-4.1-0.9-9.1-0.3-9.8,5.2c-0.8,5.3,3.9,6.9,7.8,8.3c7.8,2.8,15.8,5.2,23.7,8.1
		c13.6,5.1,20.8,17.3,18.6,31.2c-2,12.4-14.8,23.7-27.8,23.9c-15.1,0.3-30.4,1.2-44.7-5.4C793.5,923.5,790.9,922.1,787.6,920.5z"/>
	<path class="st0" d="M504.9,851.2c-6.1,4.4-11.1,8.4-16.6,11.5c-1.4,0.8-5.1-1-6.8-2.6c-12.7-11.6-33.6-7.9-39.8,7.8
		c-6.2,15.7-0.8,35.1,13.8,39.6c9.5,2.9,18.5,1.7,25.7-5.3c3.6-3.5,6.3-4,10.2-1c2.6,2,5.7,3.3,8.5,5c5.3,3,6.1,5.8,1.3,9.4
		c-6.3,4.9-13,10-20.3,12.6c-28.1,10.2-57.1-5.5-66.6-33.9c-7.8-23.3,5.8-53.3,33.6-60.5c16.5-4.3,35.3-4.8,49.8,9.3
		C500.1,845.4,502.1,848,504.9,851.2z"/>
	<path class="st0" d="M604.2,909.5c-6.6,12.5-17.2,17.5-29,20.3c-33.1,7.9-59.3-16-63.4-43.1c-4.1-27,18.3-54.1,45.6-54
		c11.1,0,22.2-1.4,32.6,5.2c14.8,9.4,15.1,12.4,1.4,22.4c-4.7,3.4-7,3.8-11.8-0.8c-7.2-7-17.2-8.2-26.6-4.2
		c-9,3.8-13.9,11.4-14.4,21.2c-0.4,7-0.2,13.7,3.3,20.5c7.1,13.8,29.3,16.6,39.9,4.1c1-1.2,4.2-2.1,5.5-1.4
		C592.9,902.4,598.2,905.9,604.2,909.5z"/>
	<path class="st0" d="M1185.2,832.1c12.1,0,24.3,0.2,36.4-0.1c5-0.1,7,1.2,7.1,6.5c0.3,14.7,0.5,14.7-13.9,14.8
		c-16.8,0.1-16.7,0.1-16.5,16.9c0.1,17.6-0.1,35.3,0.1,52.9c0.1,5.8-2,8.2-7.8,7.5c-2.4-0.3-4.8,0-7.3-0.1
		c-11.5-0.3-11.2,2.1-11.2-11.6c0-18.9-0.1-37.9,0.2-56.8c0.1-6.3-1.4-9.5-8.5-8.8c-5.5,0.5-11,0-16.5,0c-3.6,0-5-1.5-5.2-5.1
		c-0.9-16.1-1-16.1,15.3-16.1c1.3,0,2.6,0,4,0C1169.4,832.1,1177.3,832.1,1185.2,832.1C1185.2,832.1,1185.2,832.1,1185.2,832.1z"/>
	<path d="M950.8,706.1c11.9-1.4,23.9-2.8,37.5-4.4c-2.4-1.6-3.4-2.6-4.6-3.1c-27.3-11-55.6-14.4-84.6-10.2
		c-8.1,1.2-16.4,5.3-23.1,10.1c-13.4,9.6-27.6,14.7-44,14.9c-11.9,0.1-23.8,0.5-35.6,1.6c-5.5,0.5-10.8,2.8-16.9,3.7
		c4.1-2.2,8-5.4,12.4-6.3c14.4-2.7,28.9-4.9,43.5-6.7c10.9-1.3,21-3.7,29.5-11.3c16.7-15,36.7-19.4,58.6-18.3
		c23.7,1.3,46.6,5.3,67.8,16.6c7.8,4.2,15.2,9.2,23.7,14.4c-22.3,0-43.2,0-64.1,0C950.9,706.8,950.8,706.5,950.8,706.1z"/>
	<path d="M827.4,764.1c0.9-24.1-17.7-33.2-37.6-25.7c4.7-7.8,18.5-10.4,28.3-5.5c7.9,4,12.1,10.9,13.8,19c1.3,6.1,4.2,7.7,9.9,7.6
		c11.4-0.3,22.8-0.1,34.3-0.1C860,761,844,762.5,827.4,764.1z"/>
	<path class="st0" d="M943.7,766.5"/>
	<g>
		<path class="st0" d="M922.5,752.8c-0.7-0.1-1.2-1.9-1.5-2.4c-0.9-2.1-1.5-4.3-1.5-6.6c0-0.4,0-0.8,0.1-1.1
			c0.5-1.3,1.7-1.7,2.9-1.5c-0.4,1.1-0.8,2.2-1.2,3.2c-0.1,0.2-0.2,0.5-0.2,0.7c0,0.3,0.1,0.7,0.2,1c0.5,1.7,1.2,3.6,2.7,4.3
			c-0.1,0-1,2.4-1.4,2.5C922.6,752.8,922.5,752.8,922.5,752.8z"/>
		<path class="st0" d="M921.7,738.6c-1.8,0-2.2-0.1-2.3-2.1c-0.1-2.1,0-4.2,0-6.2c3.5,0.5,3.3-2.6,5.5-4.7c1.7-1.6,3.8-2.7,6-3.3
			c3.3-0.9,6.8-0.8,10.2-0.9c1.4,0,2.8,0.1,3.9,1c1,0.8,1.7,2.1,2.8,2.7c1.2,0.7,2.8,0.6,4.1,0.6c0,0,21.2,0.8,21.2,0.8
			c-4.3,0.2-8.5,0.5-12.8,0.7c-3.1,0.2-6.2,0.4-9.4,0.5c-2.9,0.2-5.3,0.9-7.6-1.2c-1.9-1.7-4.6-1.7-7.1-1.6c-2.4,0.1-4.8,0.2-7,1.3
			c-2.7,1.4-4.6,4.2-6.1,7C922.3,735.1,922.1,736.7,921.7,738.6z"/>
		<polygon class="st0" points="953.6,743.3 964.6,743.3 953.6,745.8 		"/>
		<polygon class="st0" points="952.9,733.9 952.9,737.5 970.5,735.7 		"/>
	</g>
</g>
</svg>
