<?xml version="1.0" encoding="utf-8"?>
<!-- Generator: Adobe Illustrator 28.0.0, SVG Export Plug-In . SVG Version: 6.00 Build 0)  -->
<svg version="1.1" id="Layer_1" xmlns="http://www.w3.org/2000/svg" xmlns:xlink="http://www.w3.org/1999/xlink" x="0px" y="0px"
	 viewBox="0 0 1741.6 1389.9" style="enable-background:new 0 0 1741.6 1389.9;" xml:space="preserve">
<style type="text/css">
	.st0{fill:#542F21;}
	.st1{fill:#FFFFFF;}
</style>
<path class="st0" d="M873.8,514.4c68.2,0,136.4,0.2,204.6-0.2c8.5,0,12.8,1.8,14.9,10.6c4.1,17.5,16.4,30.5,26.5,44.7
	c36.1,50.7,68.8,103,86,163.8c56.2,198.3-62.2,407.6-261.7,461.9c-21.9,6-43.6,11.7-61.1,27.3c-4.2,3.7-7.7,4-11.8-0.1
	c-15.2-15-34.6-21.1-54.7-26.3c-138.1-36-227.9-123.9-269.8-258.9c-31-100-14.7-196.6,34.3-288.2c17.9-33.6,40.7-64,62.4-95.1
	c4.7-6.7,11-13.3,11.2-21.5c0.4-17,9.7-18.3,23.8-18.1c65.1,0.7,130.3,0.3,195.4,0.3C873.8,514.5,873.8,514.4,873.8,514.4
	L873.8,514.4z M874.5,541.4C874.5,541.4,874.5,541.4,874.5,541.4c-57.4-0.1-114.8-0.1-172.3,0c-6.4,0-12.4-0.8-17.2,6.7
	c-14.1,22-29.3,43.2-44.3,64.6c-41.2,59-69.8,123.3-74.9,195.7c-8.2,116.7,32.7,213.9,121.9,290c117,99.8,286.1,92.6,394.7-16.2
	c104.5-104.6,132.9-252.4,74.9-388.6c-21.9-51.5-55.6-95.4-88.4-140c-6.4-8.7-12.6-12.6-23.8-12.5
	C988.3,541.7,931.4,541.4,874.5,541.4L874.5,541.4z"/>
<path class="st0" d="M1092.6,365.9c-38.3,23.5-74,45.6-109.8,67.3c-21.6,13-21.9,12.9-35.5-7.8c-23.3-35.6-44.2-72.6-65.2-109.6
	c-1.9-3.3-1.5-9.3-6.6-9.4c-4.9,0-5.2,5.6-7.1,9c-23.7,41.9-48.2,83.4-75,123.4c-4.9,7.3-7.7,9.4-16.4,3.8
	c-38.4-24.5-77.2-48.1-117.5-77.8c9.5,30.3,17.2,56.5,26,82.4c4.2,12.1,2.9,15.5-11.4,17c-18.3,1.8-24.4-4.2-28-21.3
	c-6.6-31.5-16.2-62.5-24-93.8c-2.1-8.6-4.7-12.8-15-12.6c-18.5,0.3-30.8-12.3-33.7-31.3c-2.8-18.8,7-36,23.8-41.8
	c18.6-6.4,38.2,0,47.1,15.4c3.9,6.8,7.8,15.1,5.8,21.9c-4.7,15.7,4.8,21.4,15.1,28.5c33.7,23.3,67.1,47.1,100.4,71
	c6.3,4.5,9.7,6.5,15.3-1.7c22-32.1,42.6-65.1,62.6-98.5c3.5-5.9,3.9-10-0.3-16.4c-11-16.9-7.4-39.8,6.9-51.7
	c14.2-11.9,35.2-12.4,49.8-1.2c15.4,11.8,19.6,32.6,8.4,51c-5,8.2-3.8,13.8,0.7,20.8c20.1,31.6,40.2,63.1,59.8,95
	c4.2,6.8,7,8.1,14,3.2c37-25.8,74.1-51.4,111.7-76.4c8.4-5.6,10.8-11.3,10-21.3c-1.6-20,9.6-35.5,26.4-40c18.8-5,35.4,1,44,16.1
	c13.7,24.2-1.8,55.6-29.2,57.4c-9.7,0.6-13.5,4.3-15.8,12.8c-9.2,34.1-18.6,68.1-27.9,102.2c-2.6,9.5-31.6,17.8-38.2,10.4
	c-3.6-4,0.4-8.6,1.9-12.7c1.7-4.8,3.8-9.5,5.4-14.4C1077.9,413,1084.7,391.1,1092.6,365.9L1092.6,365.9z"/>
<path class="st0" d="M1025.4,440.8c14.4,1,25.8-1,36.5-9.5c0,9.3-5,16.9-4.2,25.7c0.8,9.7-7.7,5.8-12.2,5.8
	c-62,0.3-124.1,0.2-186.1,0.2c-51.3,0-102.5,0-153.8,0c-11.8,0-18.9-12.2-13.2-22.3c2.3-4.1,5.2-1.8,7.7-0.7
	c6.4,2.7,12.7,1.8,20.6,0.5c-13.4-18.7-40.6-23.7-44.2-51c32.3,21.8,63.4,42.9,96.7,60.6c14.7,7.8,21.3,3.2,29.9-8.4
	c27.1-36.2,48.8-75.7,72.1-117.3c15.5,27.1,30.3,52.9,45.2,78.7c3.2,5.5-2.2,5.8-4.4,7.7c-10.7,9.5-22.1,18.3-32.4,28.3
	c-6.1,6-9.5,4.6-14.9-0.8c-9.1-9-19.2-17-28.7-25.5c-2.5-2.2-5.2-4.1-8-1.6c-3.5,3-2.2,6.8,0.8,9.3c12.9,10.9,26,21.5,39.1,32.2
	c5,4.1,8.7-0.3,12.2-2.8c15.2-11.2,30.5-22.4,43-37.1c8.5,9.5,14.2,20.5,19.9,31.2c5.8,10.8,12.8,12.6,23.7,7.1
	c31.5-16.1,60.9-35.7,90.8-54.5c4.3-2.7,8.4-5.7,13.7-9.4C1073.3,419.3,1040.5,419.7,1025.4,440.8L1025.4,440.8z M874.9,352.5
	c-8.2,13.9-15.6,27.2-23.7,40c-2.9,4.7-3.3,8,0.9,11.9c7.1,6.6,14.1,13.3,20.9,20.2c3.5,3.5,5.2,2.1,8.3-1c16.4-16.6,18-34.6,4.8-54
	C882.5,364.2,878.9,358.7,874.9,352.5L874.9,352.5z"/>
<path class="st0" d="M874,473.5c69.2,0,138.4-0.2,207.6,0.3c6.2,0,17.5-6.7,17.5,8.9c0,12-1.9,17.8-16.7,17.7
	c-139.5-0.6-278.9-0.5-418.4,0.1c-14.4,0.1-13.5-7-14.5-16.8c-1.3-13.3,7.6-9,13.8-9.1c70.2-0.1,140.5-0.1,210.7-0.1
	C874,474.2,874,473.8,874,473.5L874,473.5z"/>
<path class="st0" d="M1154.5,781.9c-12.3-82.2-57.6-146.7-106.1-210c-3.8-5-8.3-6.5-14.5-6.5c-53.3,0.2-106.7,0.1-160,0.1v0.6
	c-41.5,0-83.1,1.6-124.5-0.5c-31.2-1.6-55.2,4.9-68.5,35.8c-3.6,8.3-11,14.8-16,22.5c-36.2,56-65.5,114.5-69.8,183
	c-7.8,126,39.3,225.4,145,294.4c48.1,31.4,102.5,47.2,160.9,39.8c87.2-11,154.4-55.1,202.5-127.8
	C1150,943.1,1167.1,866.1,1154.5,781.9L1154.5,781.9z M1063.2,679.7c0.2-22,0.7-43.9,1.1-65.8c0-0.9,0.7-1.7,2.8-6.5
	c16.4,30.5,44.2,52.1,44,87.9h-47.8C1063.1,691.1,1063.2,686,1063.2,679.7L1063.2,679.7z M958.7,673.8c0-10.7,0-21.5,0-32.2h0.3
	c0-19.4,0.2-38.8-0.1-58.3c-0.1-7.1,2-10.7,9.5-9.8c0.5,0.1,1,0,1.5,0c27.4-1.2,41.1,12.1,41.2,39.8c0.1,27.3,0,54.6,0.5,81.9h-52.4
	C958.7,689.9,958.7,682.8,958.7,673.8L958.7,673.8z M846.1,994.7c0.1,12.6,5.1,21.6,18.7,24.1c6.4,1.2,14,1.9,11.8,11.9
	c-2,8.9-8.3,12.7-16.6,13.1c-19.8,0.9-40.5-16.8-42.2-37.1c-1-11.7-0.2-23.5-0.2-35.3h-0.1c0-5.6,0-11.2,0-16.9
	c0.2-30.7,16.6-47.1,47.8-48.2c20.8-0.7,41.1,0,57.7,15c3.4,3.1,6.6,6.4,9.4,9.9c2.8,3.5,2.9,7.5,0,11.3c-4.1,5.3-7.3,0.9-10.2-1.3
	c-11.5-8.8-23.7-16-38.4-18.2c-23.1-3.5-36.3,6.8-37.3,30.2C845.8,967.1,846,980.9,846.1,994.7L846.1,994.7z M902.6,789.5
	c-0.4,33.7-0.9,67.5-0.7,101.2c0.1,10.2-1.7,15.4-13.4,12.7c-5.4-1.3-11.2-0.8-16.8-0.8c-20.2,0-20.1,0-20.1-19.5
	c0-18.4,0-36.8,0-55.2h0.1c0-20.6,0.3-41.2-0.2-61.8h50.8C902.8,771.7,902.7,779.3,902.6,789.5z M863.7,573.2
	c38.1-0.8,38-1.1,38.2,36.3c0.1,28.6,0.1,57.2,0.6,85.7h-50.6c-0.3-5-0.3-11.3-0.3-19.4c0.1-10.8,0-21.5,0-32.2h0
	c0-19.5,0.5-38.9-0.2-58.4C851.1,575.6,854.5,573.4,863.7,573.2L863.7,573.2z M747.2,573.6c0.5,0,1,0,1.5,0
	c28.9-1.9,43.5,11.5,43.7,40.1c0.2,27.2,0,54.4,0.4,81.6h-53.2c-0.4-5.6-0.3-12.8-0.1-22.1c0.2-10.8,0-21.5,0-32.2h-0.4
	c0-19.5,0.3-38.9-0.2-58.3C738.8,575.9,740.6,573,747.2,573.6z M645.7,668.9c10-20.8,23.9-39.1,39.3-60.6c3.1,31,3.3,59.1,3.4,87
	h-48.6C639.4,686.6,641.7,677.2,645.7,668.9L645.7,668.9z M688.5,788c-0.2,82-0.3,164-0.5,246c0,4.3,1.7,9.2-3.5,14.3
	c-22.3-27.3-46.5-51.2-45-91.6c2.3-63,0.6-126.1,0.1-189.1c0-0.6,0-1.1,0-1.6h48.3C688.5,771.2,688.5,778.3,688.5,788z M901,1112.9
	c0,16.1-8.3,23.8-24.7,23.2c-5.1-0.2-10.2-0.9-15.2-0.9c-7.1,0-10-3.1-9.8-10.2c0.3-9.2-2.6-19.4,0.6-27.2
	c4.1-9.9,16.1-1.5,23.9-4.9c0.5-0.2,1-0.2,1.5-0.3C893.1,1090.3,901,1097,901,1112.9z M906.2,1081c-36.1,15.9-75.7,8.2-101.5-19.7
	c-3.3-3.6-6.4-7.4-12.2-14.2c0,21.9-0.1,40.1,0,58.2c0.1,9.2-0.3,14.2-12.6,9c-40.2-17.1-40.5-16.5-40.5-59.8
	c-0.1-95.4,0-190.7-0.8-286.1c0-0.9,0-1.8,0-2.6h53c0.9,5.5,0.9,13.1,1,23.8c0.2,46.2,0,92.3,0.8,138.4c0.2,13.4-6.2,24.7-9,37
	c-11,48.5,16.6,95.4,64.6,108.1c17.9,4.7,34.8,3.3,48.4-10.8c14.2-14.8,15.1-33.1,11.1-51.8c-2.5-12-12.6-16.4-23-20.3
	c-5.7-2.1-15.2-3.3-11.9-12.5c3-8.3,9.5-14.8,20-13.5c24,2.9,42.5,22.1,44.3,45.8C941,1052.2,933.4,1069.1,906.2,1081z M989,1107.7
	c-9.1,3.1-17.8,7.4-29.5,12.3c0.5-27-3.5-51.2,5.6-75.4c7-18.6,5.7-38.5-1.4-57.3c-4.1-10.8-5.5-21.8-5.4-33.1
	c0.2-62.6,0.7-125.2,0.4-187.8V766h51.8c1,5.7,0.9,13.9,0.9,25.6c-0.2,93.9-0.8,187.8,0.1,281.6
	C1011.6,1091.5,1005.9,1102,989,1107.7L989,1107.7z M1111.2,786.8c-0.2,55.4-1.6,110.8-0.2,166.1c0.7,27.8-5.5,51.4-24.5,71.7
	c-6.9,7.4-12.9,15.7-19.4,23.5c-1.3-0.4-2.7-0.7-4.1-1.1c0-8.6,0-17.2,0-25.8c-0.3-84.1-0.3-168.2-1.1-252.3c0-1,0-2,0.1-2.9h48.6
	C1111.3,770.8,1111.2,777.5,1111.2,786.8z"/>
<g>
	<path class="st1" d="M706.1,733.9h6l2,9.2h-10l-2.1,9.1h-10.8l8.5-33.3h10L706.1,733.9z M718.7,707.3l10.9,45h-10.7l-8.1-35.7h-7.3
		c-1.7,0-2.9-0.4-3.8-1.2c-0.9-0.8-1.3-2-1.3-3.4c0-1.4,0.5-2.6,1.4-3.4s2.2-1.3,3.8-1.3H718.7z"/>
	<path class="st1" d="M753.2,733.9h-1.5c-1.6,0-2.9-0.4-3.7-1.3c-0.9-0.8-1.3-2-1.3-3.4c0-1.4,0.4-2.5,1.3-3.4
		c0.9-0.8,2.1-1.3,3.7-1.3h0.8c2.7,0,4-1.3,4-3.9c0-2.7-1.7-4.1-5-4.1h-17.3v-9.3h18.6c4.4,0,7.9,1.1,10.4,3.4
		c2.5,2.3,3.7,5.6,3.7,9.9c0,4.4-1.2,7.7-3.6,9.9C761,732.8,757.6,733.9,753.2,733.9z M744.7,752.3h-10.5V719h10.5V752.3z
		 M768.2,752.3h-11.5l-7.7-16.5h11L768.2,752.3z"/>
	<path class="st1" d="M788.6,743.6v9.5c-2.3,0-4.4-0.3-6.2-1c-1.8-0.7-3.3-1.5-4.5-2.7c-1.2-1.1-2.2-2.5-3-4.1
		c-0.8-1.6-1.3-3.3-1.7-5c-0.3-1.8-0.5-3.7-0.5-5.7v-27.3h10.5v26.9c0,3.4,0.5,5.8,1.4,7.3C785.6,742.9,786.9,743.6,788.6,743.6z
		 M791.3,753.1v-9.5c1.7,0,3-0.7,4-2.1c0.9-1.4,1.4-3.8,1.4-7.3v-26.9h10.5v27.3c0,2.6-0.3,4.9-0.9,7s-1.5,4.1-2.7,5.8
		c-1.2,1.8-2.9,3.1-5,4.1S794.1,753.1,791.3,753.1z"/>
	<path class="st1" d="M825.6,733.9h6l2,9.2h-10l-2.1,9.1h-10.8L819,719h10L825.6,733.9z M838.2,707.3l10.9,45h-10.7l-8.1-35.7h-7.3
		c-1.7,0-2.9-0.4-3.8-1.2s-1.3-2-1.3-3.4c0-1.4,0.5-2.6,1.4-3.4s2.2-1.3,3.8-1.3H838.2z"/>
	<path class="st1" d="M883.6,743.5v9.6c-2.8,0-5.2-0.5-7.4-1.4c-2.2-0.9-3.9-2.2-5.3-3.9s-2.4-3.6-3.1-5.7c-0.7-2.1-1-4.5-1-7v-10.6
		c0-2.5,0.3-4.8,1-7c0.7-2.1,1.7-4,3.1-5.7c1.3-1.7,3.1-3,5.3-3.9c2.2-0.9,4.6-1.4,7.4-1.4v9.6c-1.8,0-3.3,0.7-4.4,2.2
		c-1.1,1.5-1.6,3.9-1.6,7.1v8.7c0,3.2,0.5,5.6,1.6,7.1C880.3,742.8,881.8,743.5,883.6,743.5z M899.4,714.4l-7.4,5.2
		c-1.1-2.3-3-3.4-5.7-3.4v-9.6c3.4,0,6.3,0.7,8.5,2C897,709.9,898.6,711.9,899.4,714.4z M886.3,753.1v-9.6c1.6,0,2.8-0.3,3.7-0.8
		c0.9-0.5,1.7-1.4,2.2-2.5l7.3,6C896.9,750.8,892.5,753.1,886.3,753.1z"/>
	<path class="st1" d="M914.4,752.3h-10.5v-45h10.5V752.3z"/>
	<path class="st1" d="M943.4,716.6h-24.6v-9.3h24.6c1.6,0,2.9,0.4,3.8,1.3c0.9,0.9,1.4,2,1.4,3.4s-0.5,2.5-1.4,3.3
		C946.3,716.2,945,716.6,943.4,716.6z M937.7,752.3h-10.5v-33.7h10.5V752.3z"/>
	<path class="st1" d="M960.5,707.3l10.7,20.2c0.4,0.8,0.6,1.7,0.6,2.6c0,1.5-0.6,2.7-1.7,3.5c-1.1,0.9-2.4,1.3-3.9,1.3
		c-2.2,0-3.8-1-4.8-2.9l-13.2-24.7H960.5z M971.8,752.3h-10.5v-15.7h10.5V752.3z M972.5,707.3h11l-9.7,18.9l-5.5-10L972.5,707.3z"/>
	<path class="st1" d="M1025.1,716.6h-23.8v-9.3h23.8c1.6,0,2.9,0.4,3.8,1.3s1.3,2,1.3,3.4c0,1.4-0.4,2.5-1.3,3.4
		S1026.8,716.6,1025.1,716.6z M1011.8,752.3h-10.5V719h10.5V752.3z M1027.6,734.6h-13.2v-9.3h13.2V734.6z"/>
	<path class="st1" d="M1050.7,743.5v9.6c-2.8,0-5.2-0.5-7.4-1.4s-3.9-2.2-5.3-3.9s-2.4-3.6-3.1-5.7c-0.7-2.1-1-4.5-1-7v-10.6
		c0-2.5,0.3-4.8,1-7c0.7-2.1,1.7-4,3.1-5.7c1.3-1.7,3.1-3,5.3-3.9c2.2-0.9,4.6-1.4,7.4-1.4v9.6c-1.8,0-3.3,0.7-4.4,2.2
		c-1.1,1.5-1.6,3.9-1.6,7.1v8.7c0,3.2,0.5,5.6,1.6,7.1C1047.4,742.8,1048.9,743.5,1050.7,743.5z M1066.5,714.4l-7.4,5.2
		c-1.1-2.3-3-3.4-5.7-3.4v-9.6c3.4,0,6.3,0.7,8.5,2C1064.1,709.9,1065.7,711.9,1066.5,714.4z M1053.4,753.1v-9.6
		c1.6,0,2.8-0.3,3.7-0.8c0.9-0.5,1.7-1.4,2.2-2.5l7.3,6C1064,750.8,1059.6,753.1,1053.4,753.1z"/>
</g>
</svg>
