<?xml version="1.0" encoding="utf-8"?>
<!-- Generator: Adobe Illustrator 28.0.0, SVG Export Plug-In . SVG Version: 6.00 Build 0)  -->
<svg version="1.1" id="Layer_1" xmlns="http://www.w3.org/2000/svg" xmlns:xlink="http://www.w3.org/1999/xlink" x="0px" y="0px"
	 viewBox="0 0 1741.6 1389.9" style="enable-background:new 0 0 1741.6 1389.9;" xml:space="preserve">
<style type="text/css">
	.st0{fill:#262262;}
	.st1{fill:#2B3990;}
	.st2{fill:#2E3192;}
	.st3{fill:#FFFFFF;}
</style>
<g>
	<path class="st0" d="M1221,508.5c-3,80.1-3.5,152.5-15.7,223.9c-14.7,85.7-58.7,155.5-119.8,215.3
		c-60.2,58.9-128.9,106-203.1,145.4c-6.6,3.5-12.2,5.8-19.8,1.4c-97.3-55.3-188.6-118-258-208c-45.6-59.2-68.2-126.8-73.6-200.6
		c-6.9-93.1-10.3-186.3-10.5-279.7c0-11.5,2.2-17,15-15.4c60.5,7.6,113.4-16.4,166.4-40.3c51.7-23.3,106.3-36.9,161.9-47.2
		c10.6-2,20.5,0.7,30.4,2.8c66.9,14.2,132,34.2,193.4,64.8c36.2,18,74.6,20.7,113.9,19.7c23.7-0.6,19.4-1.2,19.6,19.6
		C1221.1,445.5,1221,480.9,1221,508.5L1221,508.5z M1200.3,518c0-28.7-0.3-57.4,0.2-86.2c0.2-11.2-1.9-16.6-15.1-15.6
		c-35.5,2.8-69.5-4.6-101.5-19.9c-47.3-22.6-96-41.4-146.7-54.6c-28-7.3-55.6-17.7-85.7-11.3c-65.5,13.9-128.6,34.3-189,63.3
		c-32.4,15.6-66.1,25.5-102.3,22.8c-15.4-1.1-18.5,4.7-18.4,19c1.2,82.1,6.2,163.9,12.9,245.7c6.4,78.5,32.7,148.4,83.8,208.8
		c63.3,74.7,143.6,127.7,225.8,178.4c5.8,3.6,10.4,2.8,15.6-0.3c73.8-43.8,145.4-90.2,204.3-154.1c53.8-58.4,91.6-124.4,101.8-204.3
		C1194.1,646.1,1194.8,581.9,1200.3,518L1200.3,518z"/>
	<path class="st1" d="M1177.2,428.4c-32.2,0.3-63-6.9-92.2-20.7c-53.4-25.2-108.6-45.7-165.9-60.2c-21.3-5.4-42.2-11.1-65-6.5
		c-68.7,14-134.2,37.1-197.6,66.5c-28.7,13.3-58.6,21.8-90.5,20.5c-11.8-0.5-14.2,3.1-13.7,14.8c3.2,71.7,8.9,143.3,11.7,215
		c4.1,106.8,46.3,194.8,123.1,267.7c47.5,45,102.1,80.3,155.5,117.5c20,13.9,33.5,15.5,54.8,2c64.7-41.1,128.2-83.2,180-140.6
		c51.2-56.8,87.8-120.6,97.1-198.2c6.8-56.6,7.8-113.5,14.8-170.3c0-31.3-0.3-62.5,0.2-93.8C1189.7,432.8,1188.1,428.3,1177.2,428.4
		L1177.2,428.4z M938,858c-11.2,7.8-23.8,13.5-39.9,22.6c10-20.8,17.7-37.5,22.8-57.8c-34.4,33.8-77.1,38-119.6,42.5
		c-25.6,2.7-25.4,2.1-31.3-23.1c-4.7-19.8-2.8-39.8-2.9-59.7c-0.1-17.3,0-34.6,0-51.8c-1.7-1.4-3.5-2.8-5.2-4.2
		c-3.3,4.9-6.1,10.3-10,14.7c-6.7,7.6-10.9,4-11.4-4.2c-1.6-26.1-4.7-53.2,3-78c6.1-19.9,21.6-36.8,36.2-52.7
		c6.6-7.1,4.2-9.2-4.8-9.5c16.3-15,29.5-30.8,48-40.5c6-3.1,3.8-7.7,2.3-11.9c-6.1-16.5-14.6-31.9-25.6-45.3
		c-8.5-10.4-5-12.7,5.4-15.2c62-14.7,100.7-14.6,165.5,1.5c-11.1,20.1-25,36.9-31.4,57.7c42.9,8.5,63,39.9,76.9,77
		c4.1,11,5.8,22.8,8.6,34.2c0.7,2.9,1.9,6.6-2.2,7.7c-3.7,0.9-5-2.6-6.2-5.4c-5-12.3-9.9-24.7-14.8-37.1
		c-4.4-11-10.4-21.2-18.1-30.2c-5.5-6.3-11.6-12.1-21.1-8.7c-5.9,2-7.7-0.8-6.9-6c1.5-9.5-4.5-10.6-11.7-12
		c-35.2-6.8-69.4-8.3-98.8,17.5c-3.6,3.2-7.2,2.8-8.3-1.6c-3.5-14-9.7-7.2-16-2.7c-3.8,2.7-7.9,4.8-11.6,7.6
		c-4.5,3.5-10.7,7.2,0,11.1c7.1,2.6,6.3,6-0.1,8.8c-32.8,14.3-47.1,41.8-52.2,75.1c-1.6,10.5-0.2,21.4-0.2,32.1
		c0.7,0,1.8,0.4,2.5-0.1c6.2-3.9,10.5-14.7,18.6-10.1c6.4,3.6,5.4,13.8,5.2,21.4c-0.6,27.2-3.6,54.4-2,81.5
		c3.5,59.4-1.3,52.5,54.1,46.5c34.7-3.7,58.1-22.6,71.2-55.2c18.2-45.3,27-90.4,2.3-136.2c-0.2-0.5-0.5-0.9-0.8-1.3
		c-14.3-25.1-28.8-27.4-48.5-6.9c-5.9-34.2-23-3.3-38.9-7.7c23-18.2,30.2-47.2,55.5-61.1c22.5-12.4,44.8-7.8,62,12
		c2.6,3,5.8,4.1,9.3,4.9c30.2,6.8,44.5,29.8,54.5,55.6c11,28.5,16,58.3,12.7,89c-0.4,3.7,4.1,13.8-7.7,8.2c-2.8-1.3-2.1,2.6-2.1,4.2
		C1003.8,803.6,973.9,832.9,938,858L938,858z M845.5,681.3c4.4-14.5,13.4-21.4,27.3-22.8c10.2-1,17.6,2.2,22.1,14
		C877,671.4,860.6,674.3,845.5,681.3L845.5,681.3z"/>
	<path class="st2" d="M854.4,503.5c8.6-2.8,20.2,2.1,24.8-10.8c1.3-3.7,5.4,0,7.3,1.7c10.2,9.1,19.8,17.8,34.1,5.8
		c3.7-3.1,12-3.2,15.9,0.9c4.6,4.7-1.7,9-3.8,13.2c-3.5,6.8-7.8,13.3-10.7,20.3c-3.1,7.8-9.1,7.3-15.2,6.6c-9.1-1.1-2.7-8-4.2-11.9
		c-2.2-5.6,8.6-15-2.5-16.2c-8.6-1-9,9.4-9.4,16.5c-0.3,6.4,0.2,12.2-9.1,12.7c-8.5,0.5-12.5-3-13.2-10.9
		C867.5,520.3,852.9,516,854.4,503.5L854.4,503.5z"/>
	<path class="st2" d="M963.7,673.4c-16.3-14.2-29.8-28.6-38.8-47.4c-9.1-19.1-21.4-23.1-41.7-17.1c-4.8,1.4-9.6,2.8-15.4,4.6
		c15.5-19.2,44.9-22.1,61.7-7C953.1,627.6,963.9,648.2,963.7,673.4L963.7,673.4z"/>
	<path class="st2" d="M858.9,538.8c1,3.6-0.5,5.8-4.3,6.2c-4.3,0.5-8.8,2.7-11.8-3.1c-4.5-9-9.6-17.8-14.2-26.8
		c-1.8-3.6-8.3-7.4-3-11.4c4.8-3.5,12.2-4.2,16.7,1.2C850.4,514.8,855.4,526.5,858.9,538.8L858.9,538.8z"/>
	<path class="st2" d="M989.7,742.1c5,15.2,2.7,29.9-3.5,44.4C987.3,771.7,988.5,756.9,989.7,742.1z"/>
	<g>
		<path class="st3" d="M1072.9,700.4l-10.1-2c0.2-3.8,1.6-6.9,4.2-9.4c2.6-2.5,5.9-3.8,10-3.8v9.8
			C1074.4,695.5,1073.1,697.2,1072.9,700.4L1072.9,700.4z M1089.1,733.2h-24.9v-9.7h24.9c1.7,0,2.9,0.4,3.9,1.3
			c1,0.9,1.4,2.1,1.4,3.6s-0.5,2.7-1.4,3.5C1092,732.8,1090.7,733.2,1089.1,733.2L1089.1,733.2z M1078.9,721.1h-14.6
			c4.3-3.7,7.6-6.6,10-8.8c2.4-2.2,4.3-4,5.7-5.7c1.4-1.6,2.3-2.9,2.7-3.9c0.4-1,0.6-2,0.6-3.1c0-1.3-0.3-2.3-1-3.2
			c-0.7-0.8-1.6-1.3-2.7-1.3v-9.8c4.3,0,7.8,1.3,10.5,3.9c2.7,2.6,4,5.8,4,9.7c0,1.4-0.1,2.7-0.2,3.9c-0.2,1.1-0.5,2.3-1.1,3.4
			c-0.5,1.2-1.1,2.2-1.8,3.1c-0.6,0.9-1.6,2-2.9,3.4c-1.3,1.3-2.6,2.6-3.9,3.8C1082.9,717.6,1081.1,719.2,1078.9,721.1L1078.9,721.1
			z"/>
		<path class="st3" d="M1113,724v10c-4.2,0-7.6-1.1-10.3-3.2c-2.7-2.2-4.2-5.1-4.5-8.7l10.5-2.6c0,1.3,0.4,2.3,1.2,3.2
			C1110.7,723.6,1111.7,724,1113,724L1113,724z M1124.6,695.8h-23.8v-9.7h23.8c1.7,0,3,0.4,4,1.3s1.4,2.1,1.4,3.5s-0.5,2.6-1.4,3.5
			S1126.3,695.8,1124.6,695.8L1124.6,695.8z M1115.8,734.1v-10c1.3,0,2.4-0.5,3.2-1.4c0.8-0.9,1.2-2.2,1.2-3.8
			c0-1.9-0.5-3.4-1.6-4.4c-1.1-1-2.9-1.5-5.3-1.5h-12.3v-14.7h11.1v5h2.9c5.6,0,9.7,1.3,12.3,4.1s3.9,6.5,3.9,11.3
			s-1.4,8.4-4.1,11.2C1124.2,732.7,1120.5,734.1,1115.8,734.1L1115.8,734.1z"/>
	</g>
	<g>
		<path class="st3" d="M870.4,943.7h-25V934h25c1.7,0,3,0.4,3.9,1.3s1.4,2.1,1.4,3.6s-0.5,2.7-1.4,3.5S872.1,943.7,870.4,943.7
			L870.4,943.7z M856.4,981.1h-11v-34.9h11V981.1z M872.9,962.5h-13.9v-9.7h13.9V962.5z"/>
		<path class="st3" d="M884.8,981.1h-11.4V970h11.4V981.1z"/>
		<path class="st3" d="M909,971.9V982c-2.9,0-5.5-0.5-7.8-1.5s-4.1-2.4-5.5-4.1c-1.4-1.7-2.5-3.7-3.2-6c-0.7-2.2-1.1-4.7-1.1-7.3
			V952c0-2.6,0.4-5.1,1.1-7.3c0.7-2.2,1.8-4.2,3.2-6c1.4-1.7,3.2-3.1,5.5-4.1c2.3-1,4.9-1.5,7.8-1.5v10.1c-1.9,0-3.5,0.8-4.6,2.3
			s-1.7,4.1-1.7,7.4v9.1c0,3.4,0.6,5.9,1.7,7.4C905.5,971.1,907,971.9,909,971.9L909,971.9z M925.5,941.4l-7.8,5.4
			c-1.1-2.4-3.1-3.6-6-3.6v-10.1c3.6,0,6.6,0.7,8.9,2.1S924.6,938.7,925.5,941.4L925.5,941.4z M911.7,982v-10.1
			c1.6,0,2.9-0.3,3.9-0.8c1-0.6,1.7-1.4,2.3-2.6l7.6,6.3C922.9,979.6,918.3,982,911.7,982L911.7,982z"/>
	</g>
	<g>
		<path class="st3" d="M621.3,707.9l-10.5-2.1c0.2-3.9,1.7-7.2,4.3-9.8c2.7-2.6,6.2-3.9,10.4-3.9v10.3
			C622.9,702.7,621.5,704.5,621.3,707.9z M638.2,742.1h-26V732h26c1.7,0,3.1,0.5,4.1,1.4c1,0.9,1.5,2.1,1.5,3.7
			c0,1.6-0.5,2.8-1.5,3.7C641.3,741.6,639.9,742.1,638.2,742.1z M627.6,729.4h-15.3c4.5-3.8,8-6.9,10.4-9.1c2.5-2.2,4.5-4.2,6-5.9
			c1.5-1.7,2.4-3,2.9-4s0.6-2.1,0.6-3.3c0-1.3-0.3-2.4-1-3.3c-0.7-0.8-1.6-1.3-2.9-1.4V692c4.5,0,8.2,1.4,11,4.1
			c2.8,2.7,4.2,6.1,4.2,10.1c0,1.5-0.1,2.8-0.3,4s-0.5,2.4-1.1,3.6c-0.6,1.2-1.2,2.3-1.8,3.3c-0.7,1-1.7,2.1-3,3.5
			c-1.3,1.4-2.7,2.7-4.1,3.9C631.8,725.8,629.9,727.4,627.6,729.4z"/>
		<path class="st3" d="M665.3,732.5V743c-2.4,0-4.6-0.4-6.4-1.2c-1.9-0.8-3.4-1.8-4.6-3.1c-1.2-1.3-2.2-2.9-2.9-4.8
			c-0.8-1.9-1.3-3.9-1.6-6c-0.3-2.1-0.5-4.3-0.5-6.8v-7.2c0-2.4,0.2-4.7,0.5-6.8c0.3-2.1,0.8-4,1.6-5.9c0.8-1.9,1.8-3.5,2.9-4.8
			c1.2-1.3,2.7-2.4,4.6-3.1c1.9-0.8,4-1.2,6.4-1.2v10.5c-0.8,0-1.6,0.3-2.1,0.8c-0.6,0.6-1,1.4-1.3,2.6c-0.3,1.1-0.5,2.4-0.7,3.9
			c-0.1,1.4-0.2,3.1-0.2,5.1v5.2c0,2,0.1,3.7,0.2,5.1c0.1,1.4,0.3,2.7,0.7,3.8c0.3,1.1,0.7,2,1.3,2.6S664.5,732.5,665.3,732.5z
			 M668.2,743v-10.5c0.8,0,1.5-0.3,2.1-0.9s1-1.4,1.3-2.6c0.3-1.1,0.5-2.4,0.7-3.8c0.1-1.4,0.2-3.1,0.2-5.1v-5.2
			c0-2-0.1-3.7-0.2-5.1c-0.1-1.4-0.4-2.7-0.7-3.8c-0.3-1.1-0.8-2-1.3-2.6s-1.3-0.9-2.1-0.9V692c2.4,0,4.5,0.4,6.4,1.2
			c1.9,0.8,3.4,1.8,4.6,3.1c1.2,1.3,2.2,2.9,2.9,4.8c0.8,1.9,1.3,3.9,1.6,6c0.3,2.1,0.5,4.3,0.5,6.8v7.2c0,2.4-0.2,4.7-0.5,6.8
			c-0.3,2.1-0.9,4.1-1.6,6c-0.8,1.9-1.7,3.5-2.9,4.8c-1.2,1.3-2.7,2.4-4.6,3.1C672.8,742.6,670.6,743,668.2,743z"/>
	</g>
	<g>
		<g>
			<path class="st3" d="M700.5,473.9c-2.3-3.2-4.6-6.3-6.9-9.5c-1.6-2.2-2.7-4.6-3.3-7.1c-0.6-2.5-0.6-5-0.1-7.6
				c0.5-2.6,1.8-5.2,3.8-7.8c2-2.6,4.7-4.9,8-7c1.9,3,3.7,6,5.6,9c-2,1.3-3.3,3-3.7,5.3c-0.4,2.2,0.4,4.8,2.3,7.8
				c1.8,2.7,3.5,5.4,5.3,8.1c1.9,2.9,4,4.7,6.1,5.4c2.1,0.6,4,0.4,5.9-0.7c1.9,3,3.7,6,5.6,9c-2.8,1.7-5.6,2.9-8.3,3.5
				c-2.8,0.6-5.4,0.6-7.8,0.1c-2.4-0.5-4.7-1.5-6.8-2.9C704,477.9,702.1,476.1,700.5,473.9z M734.8,442.3c1.6,3.2,3.2,6.3,4.8,9.5
				c2.6,5,3.1,9.7,1.9,14c-1.2,4.3-4.5,7.9-9.8,11.1c-1.8-3-3.6-6.1-5.4-9.1c1.7-1,2.8-2.3,3.4-3.8c0.6-1.5,0.4-3.2-0.6-4.9
				c-0.3-0.5-0.5-0.9-0.8-1.4c-2.2,1.3-4.4,2.6-6.7,3.9c-1.8-3-3.6-6-5.4-9C722.3,449,728.5,445.5,734.8,442.3z M726.9,430.9
				c-2.3,3.4-4.5,6.8-6.6,10.3c-2.7-1.6-5.8-1.4-9.4,0.8c-1.8-3-3.6-6.1-5.4-9.1C714,427.7,721.4,427.2,726.9,430.9z"/>
			<path class="st3" d="M767.7,447.6c1.3,3.3,2.6,6.5,3.8,9.8c-2.6,1-5,1.6-7.2,1.8c-2.3,0.2-4.3,0-6.2-0.5
				c-1.8-0.5-3.5-1.4-5.2-2.6c-1.6-1.2-3-2.6-4.2-4.1c-1.2-1.6-2.3-3.4-3.3-5.4c-4.3-9.1-8.6-18.1-13-27.2c4.5-2.1,9-4.2,13.5-6.1
				c3.8,9.1,7.7,18.2,11.5,27.3c1.5,3.5,3,5.7,4.7,6.7C764,448.2,765.8,448.3,767.7,447.6z M774.5,456.2c-1.2-3.3-2.5-6.6-3.7-9.8
				c2-0.7,3.2-2,3.8-3.9c0.5-1.9,0.2-4.6-1-8.1c-3.3-9.3-6.6-18.6-9.9-28c4.6-1.6,9.3-3.1,13.9-4.6c2.9,9.6,5.8,19.2,8.7,28.9
				c0.8,2.7,1.2,5.3,1.2,7.7c0,2.5-0.4,4.8-1.2,7.1c-0.8,2.3-2.2,4.3-4.2,6.2C780.1,453.6,777.6,455,774.5,456.2z"/>
			<path class="st3" d="M809.2,431.6c-4.2,0.9-8.4,1.9-12.5,3c-3.2-11.9-6.3-23.7-9.5-35.6c4.7-1.3,9.4-2.4,14.2-3.4
				C804,407.6,806.6,419.6,809.2,431.6z M825.6,441.5c-8.6,1.4-17.1,3.3-25.6,5.5c-0.9-3.3-1.8-6.6-2.6-9.9
				c8.8-2.3,17.6-4.3,26.6-5.7c1.9-0.3,3.5-0.1,4.7,0.7c1.2,0.8,1.9,1.9,2.1,3.5c0.2,1.6-0.1,2.9-1,3.9
				C828.8,440.6,827.5,441.2,825.6,441.5z"/>
			<path class="st3" d="M853.7,428.8c0.2,3.5,0.4,7,0.6,10.5c-2.7,0.2-5.1,0-7.3-0.6c-2.2-0.5-4-1.4-5.6-2.4c-1.5-1.1-2.9-2.5-4-4.1
				c-1.1-1.6-2-3.4-2.7-5.3c-0.6-1.9-1.1-3.9-1.4-6.2c-1.3-10-2.5-19.9-3.8-29.9c4.8-0.6,9.6-1.1,14.5-1.5
				c0.8,9.9,1.6,19.7,2.4,29.6c0.3,3.7,1.1,6.4,2.3,7.8C849.9,428.2,851.6,428.9,853.7,428.8z M857.3,439.1c-0.2-3.5-0.3-7-0.5-10.5
				c2.1-0.1,3.6-0.9,4.7-2.5c1.1-1.6,1.6-4.3,1.5-8c-0.2-9.9-0.4-19.8-0.6-29.6c4.8-0.1,9.7-0.1,14.5,0c-0.2,10-0.5,20.1-0.7,30.1
				c-0.1,2.8-0.5,5.4-1.2,7.7c-0.7,2.3-1.8,4.5-3.3,6.4c-1.5,1.9-3.4,3.4-5.8,4.6C863.4,438.4,860.6,439,857.3,439.1z"/>
			<path class="st3" d="M920.6,433c-0.7,3.5-1.3,6.9-2,10.4c-3.2-0.6-5.9-1.6-8.3-3c-2.4-1.4-4.2-3.1-5.6-5.1
				c-1.3-2-2.3-4.2-2.9-6.7c-0.6-2.4-0.7-5-0.4-7.8c0.4-3.9,0.9-7.7,1.3-11.6c0.3-2.7,1-5.2,2.3-7.5c1.2-2.2,2.8-4.2,4.9-5.7
				c2.1-1.6,4.6-2.7,7.8-3.2c3.1-0.6,6.6-0.5,10.4,0.2c-0.7,3.5-1.3,6.9-2,10.4c-2.4-0.5-4.5,0-6.2,1.4c-1.7,1.4-2.8,3.9-3.4,7.4
				c-0.5,3.2-1,6.3-1.5,9.5c-0.6,3.5-0.3,6.2,0.7,8C916.9,431.5,918.5,432.6,920.6,433z M947.4,406.1c-3.7,1-7.4,2.1-11,3.2
				c-0.8-2.8-3.1-4.6-6.7-5.3c0.7-3.5,1.4-6.9,2.1-10.4c4.7,0.9,8.4,2.5,11.1,4.7C945.5,400.5,947,403.1,947.4,406.1z M921.7,444
				c0.7-3.5,1.4-6.9,2.1-10.4c1.8,0.4,3.4,0.4,4.6,0.1c1.2-0.3,2.3-1,3.2-2.1c2.4,2.8,4.8,5.7,7,8.6
				C934.4,444.3,928.9,445.4,921.7,444z"/>
			<path class="st3" d="M953.8,451.5c-3.9-1.3-7.9-2.5-11.8-3.6c4.5-15.9,9-31.9,13.4-47.8c4.7,1.3,9.4,2.7,14,4.3
				C964.2,420.1,959,435.8,953.8,451.5z"/>
			<path class="st3" d="M1002.7,428.9c-10.1-4.9-20.4-9.1-30.9-12.8c1.1-3.2,2.3-6.4,3.4-9.6c10.8,3.8,21.5,8.2,31.9,13.3
				c2.1,1,3.5,2.2,4.2,3.6c0.7,1.4,0.7,2.8,0,4.2c-0.7,1.4-1.8,2.2-3.4,2.4C1006.5,430.2,1004.7,429.9,1002.7,428.9z M979.5,461.6
				c-3.8-1.7-7.6-3.3-11.5-4.8c4.6-11.5,9.1-23.1,13.7-34.6c4.4,1.7,8.7,3.6,13.1,5.5C989.7,439,984.6,450.3,979.5,461.6z"/>
			<path class="st3" d="M1028.7,431c0.7,9,1,17.9,1,26.7c0,1-0.3,2-0.9,2.9c-0.9,1.4-2.2,2.1-4,2.1c-1.7,0-3.4-0.5-5-1.5
				c-2.4-1.5-3.6-3.4-3.7-6c-0.4-10.8-1.3-21.6-2.8-32.6C1018.5,425.4,1023.6,428.1,1028.7,431z M1015.4,481.1
				c-3.6-2.3-7.2-4.5-10.8-6.7c2.9-5,5.8-10,8.7-14.9c3.9,2.3,7.7,4.6,11.5,7.1C1021.6,471.5,1018.5,476.3,1015.4,481.1z
				 M1043.3,440c4.4,2.9,8.8,5.9,13.1,9c-7.9,2.9-15.5,6-23,9.5c0-4.4-0.1-8.9-0.4-13.3C1036.4,443.4,1039.8,441.7,1043.3,440z"/>
		</g>
	</g>
</g>
</svg>
