<?xml version="1.0" encoding="utf-8"?>
<!-- Generator: Adobe Illustrator 28.0.0, SVG Export Plug-In . SVG Version: 6.00 Build 0)  -->
<svg version="1.1" id="Layer_1" xmlns="http://www.w3.org/2000/svg" xmlns:xlink="http://www.w3.org/1999/xlink" x="0px" y="0px"
	 viewBox="0 0 1741.6 1389.9" style="enable-background:new 0 0 1741.6 1389.9;" xml:space="preserve">
<style type="text/css">
	.st0{fill:#002F3F;}
	.st1{fill:#FFFFFF;}
	.st2{fill:#EAC300;}
	.st3{fill:#FFA357;}
	.st4{fill:#3389A3;}
</style>
<g>
	<path d="M1210.5,500.4c-0.9,54.8,2.8,109.8-4.1,164.4c-15.9,126-65.3,236-156.6,325.9c-46.4,45.7-99.4,82.2-156.2,113.5
		c-6.5,3.6-11.7,4.4-18.4,0.7C731.3,1026.3,624.5,916.3,578.2,755c-15.7-54.7-19.8-110.9-20.2-167.4c-0.4-76.4,0.1-152.8-0.4-229.2
		c-0.1-11.6,3.3-16.4,14.9-20.1c102-32.6,205-62.1,305.2-100.1c5.1-1.9,9.8-1.9,14.9,0.1c99.3,37.4,201.2,67.2,302.2,99.6
		c12.4,4,16.3,9.5,16.1,22.5C1210,407,1210.5,453.7,1210.5,500.4L1210.5,500.4z M583.8,506.4C583.8,506.4,583.9,506.4,583.8,506.4
		c0.1,37.4-0.8,74.9,0.3,112.3c3.5,120.3,42.6,227.6,120.6,319.9c45.8,54.1,101,97,161.6,133.4c12.4,7.4,21.5,8.1,33.2,0.7
		c41.5-26.4,82.5-53.1,119.1-86.7c105.6-97.1,159-218.5,165.5-360.1c3.8-83.9,0.6-168.1,1.1-252.2c0.1-8.9-3.1-12.2-11.1-14.9
		c-93.8-30.9-188.8-58.4-281.4-92.9c-6-2.2-11.6-2.1-17.9,0.2c-27.4,10.1-54.8,20.2-82.5,29.2c-64.8,21.1-129.7,41.8-194.7,62.2
		c-10.3,3.3-14.2,8.4-14,19.7C584.3,420.3,583.8,463.4,583.8,506.4L583.8,506.4z"/>
	<path class="st0" d="M1169.2,518.7c0-48.9-0.3-92,0.2-135.1c0.1-8.8-2.6-12-11-14.7c-80.9-26-161.8-51.9-242.1-79.7
		c-21.9-7.6-41.4-12.2-62.3,0.3c-5.2,3.1-11.5,4.1-17.4,6c-75,24.4-150,48.8-225.1,72.9c-8.4,2.7-12.3,5.9-12.2,15.9
		c0.6,77.4,0.6,154.9,0.5,232.3c0,37.6,5.2,74.6,14.2,110.9c36.9,148.8,130,253.8,258.6,331c7.1,4.2,12.6,3.9,19.7-0.1
		c36.6-20.9,71.3-44.5,103.1-72.3c99.5-86.9,155-196.8,170.9-327.2C1172.2,610.3,1167.5,561.5,1169.2,518.7L1169.2,518.7z
		 M1027,367.3c-7,12.6,22.3,10.6,4.8,25.1c-5.1,4.3-5.2,4.1-9.3-0.8C1016.2,383.8,1017.6,375.7,1027,367.3z M954.9,347.2
		c6.4,9.2,7.9,19,18.8,16.5c2.5-0.6,5.9,3,3.6,4.4c-8.8,5.4-7.8,12.5-6.1,20.8c0.5,2.5-4.1,3.1-6,1.3c-7.1-6.9-13.3-4.4-20.5,3.5
		c-0.4-10.9-2.9-18.8-9.4-26.6C946.2,365.6,953,360.3,954.9,347.2L954.9,347.2z M943.3,602.2c12.4-12.9,25.3-25.4,37.6-38.4
		c22.4-23.6,47.4-45,63.8-76c9.7,20,10.3,36.6-2.1,53.5c-14.5,19.7-32.7,35.2-51.7,50c-7.7,6-15.6,11.6-23,17.9
		c-23.6,20.3-25.2,28.9-11.7,57.1c5.7,12,11.3,24.3,8.4,38.2c-1.2,5.8-1.9,12.3-11.6,15.2c4.9-25.2-8.1-44.3-18.9-64.3
		C923.6,635.6,928.3,617.9,943.3,602.2L943.3,602.2z M1059.5,546.7c-2.8,24.6-14.9,40.3-30.3,52.9c-19.4,15.9-40.3,29.8-60.6,44.5
		c-2.4,1.7-5.3,4.8-7.8,1.9c-1.7-1.9-1.7-5.7-1.6-8.7c0.1-6.4,5.1-10,9.3-13.4c14.7-12,29.5-23.8,44.5-35.3
		C1028.7,576.6,1044.7,564.9,1059.5,546.7z M879.1,338.6c1.1-4.5,6.2-8.3,7.8-1.7c3.8,16.1,15.4,19.7,32.2,21.3
		c-12.9,8.6-19.6,17.4-12.9,30.7c1.2,2.4,0.8,5.2-1.4,7c-3.1,2.6-5.8,0.8-7.9-1.7c-8-9.6-15.6-7.1-23.5,0.3
		c-1.6,1.5-4.7,2.7-6.8,2.3c-4.2-0.9-2.8-4.9-2.4-7.6c1.3-11.3,3.7-22.8-10.6-30C866.5,356.1,876,351.5,879.1,338.6z M847.4,574.8
		c15.1-8.2,31.7-8,47.5-1.4c10.1,4.2,16.2,12.5,16,24c-0.1,9.7,0.2,19.5-1,29.2c-3,23.8,2.7,44.7,18.4,62.8
		c14.9,17.2,16.2,35.7,5.5,55.4c-6.2,11.4-11,23.1-10.7,36.4c0.3,18,6.4,32.9,21.9,43.3c12.3,8.3,24.2,17.1,32.5,30.6
		c-23.2-10.9-48.5-13-73.9-18.1c14.5-11.5,13.9-22.5-1.1-34.2c-14.1-11-30.8-18-45.2-29c-31.5-24-44.4-66.3-12.2-101.5
		c9.3-10.1,18.1-21,22.1-34.7c6.7-23.1-0.7-34.3-24.4-36.6c-4.5-0.4-9.1-0.5-13.2-0.6c-3.5-3.2,12.9-15.9-5.7-10.9
		c-0.8,0.2-3.4-2.8-3.4-4.3c0-2.4,2.8-2.7,4.7-2.5C833.9,583.5,840.1,578.8,847.4,574.8L847.4,574.8z M974.8,783.1
		c-12.1,7.8-22.7,7.6-31.8,3.7c-9-3.8-9.4-13.1-6.8-24.2C946.9,773.1,958.7,778.4,974.8,783.1L974.8,783.1z M812.9,833.7
		c15.4-11.3,29.8-23.2,35.6-42.5c1.3-4.3,3.1-8.1,8.4-5.7c4.7,2.2,9.1,5.3,6.9,11.7c-1,2.9-2.5,5.6-3.9,8.3
		c-5.7,10.7-10.8,21.3,7,30c-27,11.1-55.1,6.3-77.8,22C794.8,846.5,804,840.2,812.9,833.7z M795.3,783.9c12.2-5.5,25.5-5,34-15.3
		c2.6-3.2,5.2-1.7,7.5,1c3.4,4,1.8,7.4-0.9,10.8C827.6,791,814.8,792.4,795.3,783.9L795.3,783.9z M881.2,841.8
		c32.9-0.4,57.9,29.4,56.1,68.2c-38.8-26.9-60.9-27.2-107.5-2.4C826.6,875.2,852.5,842.1,881.2,841.8z M882.8,807.1
		c7.5,0.8,8,8.4,9,14.2c1.1,5.7-3.3,6.7-7.7,6.5c-6-0.2-10-2.4-7-12.8C877.5,814,874.9,806.3,882.8,807.1L882.8,807.1z M812.4,349.3
		c6.4,1.3,5.2,8.5,8.8,9.1c12.5,2.3,10.4,10.1,10,19.4c-0.4,10.3-0.9,15.6-11.7,7.2c-2.8-2.2-5.9-1.1-8.3,1.2
		c-2.9,2.8-5.9,7.5-9.9,4.4c-3.2-2.5-1.7-8,0.2-11.5c5.4-9.7-8.4-8.3-8.6-16.1C803,363.2,813.3,363.1,812.4,349.3L812.4,349.3z
		 M736.4,378.3c2.6-3,4.4-6.7,6.7-10.5c6.1,2.3,2.9,9.8,8.5,11.1c5,1.2,7.3,4,4.6,8.8c-2.5,4.5-7.9,9.9-11.4,8.8
		c-6-2-12.3-6.9-15.5-12.3C725.5,377.5,734.4,380.7,736.4,378.3L736.4,378.3z M718.2,499c4.9-1.5,8.8,1.4,11.8,5.3
		c25,32.7,56.4,59.3,83.8,89.6c29.4,32.5,28.9,46,10.2,78.7c-8.8,15.4-9.5,31.8-11.3,48.8c-11.2-15.2-14.5-29.9-4.2-47.8
		c18.8-32.9,15.6-43.5-13.8-67.7c-23.2-19.2-48.2-36.4-67.2-60.4c-8.2-10.3-14.4-21.2-13.8-34.8C714,506.5,712.2,500.8,718.2,499
		L718.2,499z M798.5,623.8c7.5,6.7,13.5,14,9.3,26.2c-37.5-30.2-87.3-47.3-99.7-101.8C734.5,577.9,769,597.8,798.5,623.8
		L798.5,623.8z M778.8,641c4.8,2.8,9.9,5.5,14.1,9.2c4.7,4,13.3,8,7.8,15.6c-4.9,6.8-9.6-1.8-13.9-3.8
		c-20.4-9.3-40.5-19.5-58.1-33.7c-11.3-9.1-19.2-20.5-23.8-39C730.1,611.4,754.2,626.6,778.8,641L778.8,641z M779.4,666.7
		c4.8,1.8,9.6,3.6,11.4,9.2c1.1,3.4,2.7,7.1,0.3,10.2c-3,4.1-6.4,0.6-9.5-0.5c-16.3-5.8-32.8-11-47.6-20.2
		c-11-6.9-18.7-16.3-24.3-32.7C734.3,648.3,756.7,658,779.4,666.7z M721.3,672.1c22.2,10.9,41.4,17.6,61.6,20.8
		c11.1,1.7,10.4,12.2,9.6,18c-1,7.2-8.5,1.3-12.6,0.5C756.7,706.7,734.3,700.3,721.3,672.1z M742.5,720.4c-2.4-2.6-5.5-4.8-4.1-10.5
		c17,5,33,9.9,50,11.1c3,0.2,6.1,1,9,2c6.3,2.4,14.5,6.5,13.7,12.7c-1,7.3-10,3.8-15.5,3.8C775.6,739.5,756.7,736.2,742.5,720.4
		L742.5,720.4z M757.6,745.3c18.8,4.8,37.2,4.1,55.4,2.2c8-0.8,12.4,2.6,13.5,9c1.2,7.4-6.3,6.5-10.7,8
		C792.5,772,770.6,764.9,757.6,745.3L757.6,745.3z M818,868.5c-18.8,16.5-21,40.6-34.9,58.2c-5.8-38.8,20.9-76.1,55.2-76
		c-28,33.2-27.4,97.2,23.8,121.8C816.2,974.1,794.4,924.6,818,868.5z M881.2,964.7c-17.9-2.2-35.3-11-45.6-31.2
		c-4.5-8.7-2.8-15.2,4.6-21.5c21.9-18.5,67.2-17.5,88.5,2c4.7,4.3,6.2,8.1,4.1,14.6C926,950.3,907.3,964.8,881.2,964.7z
		 M959.7,928.9c-8.2,26.8-27.5,42.7-55.1,43.5c21.7-11.4,35.4-26.7,41.3-48.6c5.9-21.6-2.8-40.8-11.1-61.7
		C957.3,877.8,966.9,905.2,959.7,928.9z M926.4,848.5c37.6,3.6,58.8,32.3,60.2,79.7C968.3,898.9,959.2,866.9,926.4,848.5z
		 M946.9,760.4c-3.5-2.5-6.6-4.8-4.1-9.9c2-4.1,4.3-7.2,9.3-5.4c18.3,6.3,37,3.7,55.9,1.8C994.6,768.5,966.6,774.5,946.9,760.4z
		 M960,738.8c-6.3-2.1-7-5.2-2.3-9.8c4.4-4.3,8.6-8.8,15.6-8.4c19.5,0.9,38-4.9,59-9.4C1016.4,736.5,985.7,747.5,960,738.8z
		 M978.2,711.8c-4-1.2-4.1-3.3-3.9-6.7c0.4-5.5,1.5-9.7,7.8-11.4c21.5-5.8,42.8-12,64.6-18.2C1038.9,696.8,998,718,978.2,711.8
		L978.2,711.8z M1025.7,671.1c-13,4.6-26,9.2-39.1,13.4c-4.4,1.4-10.5,5.3-13.2-1.9c-2.7-7.1,3.5-10,8.6-12.4
		c19-8.8,38.2-17.4,57.4-25.8c5.5-2.4,11.3-4.2,16.8-7.5C1052,654.2,1041.8,665.5,1025.7,671.1z M1019.4,643.3
		c-13.8,8.5-29.8,13.5-44.7,20.1c-2.8,1.3-5.8,3.1-8.1-0.3c-2.3-3.3-2.1-7.3,1-9.7c5.6-4.4,11.5-8.5,17.8-11.9
		c26.1-14,51.2-29.5,75.7-49.1C1057.4,619,1038.2,631.6,1019.4,643.3L1019.4,643.3z"/>
	<path class="st1" d="M1031.8,392.4c-5.1,4.3-5.2,4.1-9.3-0.8c-6.4-7.8-4.9-15.9,4.5-24.3C1020,379.9,1049.3,377.9,1031.8,392.4z"/>
	<path class="st1" d="M977.3,368c-8.8,5.4-7.8,12.5-6.1,20.8c0.5,2.5-4.1,3.1-6,1.3c-7.1-6.9-13.3-4.4-20.5,3.5
		c-0.4-10.9-2.9-18.8-9.4-26.6c10.8-1.4,17.5-6.6,19.5-19.8c6.4,9.2,7.9,19,18.8,16.5C976.2,363,979.6,366.6,977.3,368L977.3,368z"
		/>
	<path class="st1" d="M906.1,388.8c1.2,2.4,0.8,5.2-1.4,7c-3.1,2.6-5.8,0.8-7.9-1.7c-8-9.6-15.6-7.1-23.5,0.3
		c-1.6,1.5-4.7,2.7-6.8,2.3c-4.2-0.9-2.8-4.9-2.4-7.6c1.3-11.3,3.7-22.8-10.6-30c13-3,22.5-7.6,25.6-20.5c1.1-4.5,6.2-8.3,7.8-1.7
		c3.8,16.1,15.4,19.7,32.2,21.3C906.1,366.7,899.4,375.6,906.1,388.8z"/>
	<path class="st1" d="M831.2,377.8c-0.4,10.3-0.9,15.6-11.7,7.2c-2.8-2.2-5.9-1.1-8.3,1.2c-2.9,2.8-5.9,7.5-9.9,4.4
		c-3.2-2.5-1.7-8,0.2-11.5c5.4-9.7-8.4-8.3-8.6-16.1c9.9,0.1,20.2,0,19.3-13.8c6.4,1.3,5.2,8.5,8.8,9.1
		C833.8,360.7,831.6,368.5,831.2,377.8L831.2,377.8z"/>
	<path class="st1" d="M756.2,387.8c-2.5,4.5-7.9,9.9-11.4,8.8c-6-2-12.3-6.9-15.5-12.3c-3.8-6.7,5-3.5,7-5.9c2.6-3,4.4-6.7,6.7-10.5
		c6.1,2.3,2.9,9.8,8.5,11.1C756.6,380.2,758.9,383,756.2,387.8L756.2,387.8z"/>
	<path class="st2" d="M937.3,909.9c-38.8-26.9-60.9-27.2-107.5-2.4c-3.2-32.3,22.8-65.4,51.5-65.8
		C914.2,841.4,939.1,871.2,937.3,909.9L937.3,909.9z"/>
	<g>
		<path class="st3" d="M862,972.5c-45.8,1.6-67.6-47.9-44-104c-18.8,16.5-21,40.6-34.9,58.2c-5.8-38.8,20.9-76.1,55.2-76
			C810.2,883.8,810.8,947.8,862,972.5z"/>
		<path class="st3" d="M986.5,928.2c-18.2-29.3-27.3-61.2-60.2-79.7C964,852.1,985.1,880.9,986.5,928.2z"/>
		<path class="st3" d="M959.7,928.9c-8.2,26.8-27.5,42.7-55.1,43.5c21.7-11.4,35.4-26.7,41.3-48.6c5.9-21.6-2.8-40.8-11.1-61.7
			C957.3,877.8,966.9,905.2,959.7,928.9z"/>
		<path class="st3" d="M932.8,928.7c-6.8,21.7-25.5,36.1-51.6,36c-17.9-2.2-35.3-11-45.6-31.2c-4.5-8.7-2.8-15.2,4.6-21.5
			c21.9-18.5,67.2-17.5,88.5,2C933.4,918.4,934.9,922.2,932.8,928.7z"/>
	</g>
	<g>
		<path class="st4" d="M824.1,672.7c-8.8,15.4-9.5,31.8-11.3,48.8c-11.2-15.2-14.5-29.9-4.2-47.8c18.8-32.9,15.6-43.5-13.8-67.7
			c-23.2-19.2-48.2-36.4-67.2-60.4c-8.2-10.3-14.4-21.2-13.8-34.8c0.2-4.3-1.6-10,4.3-11.8c4.9-1.5,8.8,1.4,11.8,5.3
			c25,32.6,56.4,59.3,83.8,89.6C843.3,626.5,842.8,639.9,824.1,672.7L824.1,672.7z"/>
		<g>
			<path class="st4" d="M884.1,827.8c-6-0.2-10-2.4-7-12.8c0.4-1-2.2-8.7,5.7-7.9c7.5,0.8,8,8.4,9,14.2
				C892.9,826.9,888.6,828,884.1,827.8L884.1,827.8z"/>
			<path class="st4" d="M866.8,835.6c-27,11.1-55.1,6.3-77.8,22c5.8-11,14.9-17.3,23.8-23.8c15.4-11.3,29.8-23.2,35.6-42.5
				c1.3-4.3,3.1-8.1,8.4-5.7c4.7,2.2,9.1,5.3,6.9,11.7c-1,2.9-2.5,5.6-3.9,8.3C854.2,816.3,849.1,826.9,866.8,835.6z"/>
			<path class="st4" d="M835.9,780.5c-8.3,10.5-21.1,11.9-40.6,3.4c12.2-5.5,25.5-5,34-15.3c2.6-3.2,5.2-1.7,7.5,1
				C840.3,773.7,838.6,777.1,835.9,780.5L835.9,780.5z"/>
			<path class="st4" d="M815.8,764.5c-23.3,7.5-45.2,0.4-58.2-19.2c18.8,4.8,37.2,4.1,55.4,2.2c8-0.8,12.4,2.6,13.5,9
				C827.8,763.9,820.3,763.1,815.8,764.5L815.8,764.5z"/>
			<path class="st4" d="M811,735.7c-1,7.3-10,3.8-15.5,3.8c-19.9-0.1-38.7-3.4-53-19.2c-2.4-2.6-5.5-4.8-4.1-10.5
				c17,5,33,9.9,50,11.1c3,0.2,6.1,1,9,2C803.7,725.5,811.9,729.6,811,735.7L811,735.7z"/>
			<path class="st4" d="M792.5,711c-1,7.2-8.5,1.3-12.6,0.5c-23.2-4.8-45.6-11.2-58.6-39.3c22.2,10.9,41.4,17.6,61.6,20.8
				C794,694.7,793.3,705.2,792.5,711z"/>
			<path class="st4" d="M791.2,686.1c-3,4.1-6.4,0.6-9.5-0.5c-16.3-5.8-32.8-11-47.6-20.2c-11-6.9-18.7-16.3-24.3-32.7
				c24.5,15.5,46.8,25.2,69.6,33.9c4.8,1.8,9.6,3.6,11.4,9.2C792,679.3,793.5,683,791.2,686.1z"/>
			<path class="st4" d="M800.7,665.8c-4.9,6.8-9.6-1.8-13.9-3.8c-20.4-9.3-40.5-19.5-58.1-33.7c-11.3-9.1-19.2-20.5-23.8-39
				c25.1,22.1,49.2,37.3,73.8,51.8c4.8,2.8,9.9,5.5,14.1,9.2C797.6,654.2,806.2,658.2,800.7,665.8L800.7,665.8z"/>
			<path class="st4" d="M807.8,650c-37.5-30.2-87.3-47.3-99.7-101.8c26.4,29.8,60.9,49.6,90.3,75.6C806,630.5,811.9,637.8,807.8,650
				z"/>
			<path class="st4" d="M974.8,783.1c-12.1,7.8-22.7,7.6-31.8,3.7c-9-3.8-9.4-13.1-6.8-24.2C946.9,773.1,958.7,778.4,974.8,783.1
				L974.8,783.1z"/>
			<path class="st4" d="M1008.1,746.8c-13.5,21.7-41.4,27.7-61.2,13.6c-3.5-2.5-6.6-4.8-4.1-9.9c2-4.1,4.3-7.2,9.3-5.4
				C970.5,751.3,989.1,748.7,1008.1,746.8z"/>
			<path class="st4" d="M1032.3,711.3c-15.9,25.2-46.5,36.2-72.2,27.6c-6.3-2.1-7-5.2-2.3-9.8c4.4-4.3,8.6-8.8,15.6-8.4
				C992.8,721.6,1011.4,715.7,1032.3,711.3z"/>
			<path class="st4" d="M1046.7,675.6c-7.8,21.2-48.6,42.3-68.5,36.2c-4-1.2-4.1-3.3-3.9-6.7c0.4-5.5,1.5-9.7,7.8-11.4
				C1003.6,688,1025,681.8,1046.7,675.6z"/>
			<path class="st4" d="M1056.2,637c-4.2,17.2-14.4,28.5-30.5,34.1c-13,4.6-26,9.2-39.1,13.4c-4.4,1.4-10.5,5.3-13.2-1.9
				c-2.7-7.1,3.5-10,8.6-12.4c19-8.8,38.2-17.4,57.4-25.8C1044.9,642.1,1050.7,640.3,1056.2,637z"/>
			<path class="st4" d="M1061.2,592.4c-3.8,26.6-23,39.3-41.7,50.9c-13.8,8.5-29.8,13.5-44.7,20.1c-2.8,1.3-5.8,3.1-8.1-0.3
				c-2.3-3.3-2.1-7.3,1-9.7c5.6-4.4,11.5-8.5,17.8-11.9C1011.6,627.5,1036.7,612,1061.2,592.4L1061.2,592.4z"/>
			<path class="st4" d="M1059.5,546.7c-2.8,24.6-14.9,40.3-30.3,52.9c-19.4,15.9-40.3,29.8-60.6,44.5c-2.4,1.7-5.3,4.8-7.8,1.9
				c-1.7-1.9-1.7-5.7-1.6-8.7c0.1-6.4,5.1-10,9.3-13.4c14.7-12,29.5-23.8,44.5-35.3C1028.7,576.6,1044.7,564.9,1059.5,546.7z"/>
			<path class="st4" d="M1042.6,541.4c-14.5,19.7-32.7,35.2-51.7,50c-7.7,6-15.6,11.6-23,17.9c-23.6,20.3-25.2,28.9-11.7,57.1
				c5.7,12,11.3,24.3,8.4,38.2c-1.2,5.8-1.9,12.3-11.6,15.2c4.9-25.2-8.1-44.3-18.9-64.3c-10.7-19.8-6-37.6,9-53.2
				c12.4-12.9,25.3-25.4,37.6-38.4c22.4-23.6,47.4-45,63.8-76C1054.5,507.9,1055.1,524.5,1042.6,541.4L1042.6,541.4z"/>
			<path class="st4" d="M902.5,802.8c-14.1-11-30.8-18-45.2-29c-31.5-24-44.4-66.3-12.2-101.5c9.3-10.1,18.1-21,22.1-34.7
				c6.7-23.1-0.7-34.3-24.4-36.6c-4.5-0.4-9.1-0.5-13.2-0.6c-3.5-3.2,12.9-15.9-5.7-10.9c-0.8,0.2-3.4-2.8-3.4-4.3
				c0-2.4,2.8-2.7,4.7-2.5c8.8,0.9,15-3.8,22.2-7.8c15.1-8.2,31.7-8,47.5-1.4c10.1,4.2,16.2,12.5,16,24c-0.1,9.7,0.2,19.5-1,29.2
				c-3,23.8,2.7,44.7,18.4,62.8c14.9,17.2,16.2,35.7,5.5,55.4c-6.2,11.4-11,23.1-10.7,36.4c0.3,18,6.4,32.9,21.9,43.3
				c12.3,8.3,24.2,17.1,32.5,30.6c-23.2-10.9-48.5-13-73.9-18.1C918,825.5,917.5,814.5,902.5,802.8L902.5,802.8z"/>
		</g>
	</g>
	<g>
		<path class="st2" d="M724.4,477.5h-11.9v-51h11.9V477.5z M750.8,477.5h-13.2l-9.9-19.6c-0.5-1.2-0.8-2.4-0.8-3.7
			c0-1.7,0.6-2.9,1.8-3.8c1.2-0.9,2.6-1.3,4.2-1.3c1.2,0,2.2,0.3,3,0.9c0.8,0.6,1.6,1.5,2.2,2.7L750.8,477.5z M739,447.5h-12.1
			l10.8-20.9h12.7L739,447.5z"/>
		<path class="st2" d="M768.8,456.7h6.8l2.2,10.5h-11.4l-2.4,10.4h-12.2l9.6-37.8h11.3L768.8,456.7z M783.1,426.5l12.3,51h-12.1
			l-9.1-40.5h-8.3c-1.9,0-3.3-0.5-4.3-1.4c-1-0.9-1.5-2.2-1.5-3.8c0-1.6,0.5-2.9,1.5-3.8c1-1,2.5-1.4,4.3-1.4H783.1z"/>
		<path class="st2" d="M835.3,444.2h-11.4c0-2.5-0.6-4.3-1.9-5.4c-1.3-1.1-3.2-1.7-5.8-1.7h-15.5v-10.5h17.4c5.6,0,9.9,1.5,12.8,4.4
			C833.8,433.9,835.3,438.3,835.3,444.2z M812.6,477.5h-11.9v-37.8h11.9V477.5z M837.8,461.6c0,5-1.4,8.9-4.2,11.7
			c-2.8,2.8-6.6,4.2-11.5,4.2h-6.7V467h5.2c3.5,0,5.3-1.7,5.3-5c0-1.6-0.4-2.7-1.2-3.5c-0.8-0.7-1.9-1.1-3.3-1.1h-1.2
			c-1.8,0-3.2-0.5-4.2-1.4c-1-0.9-1.5-2.2-1.5-3.8c0-1.6,0.5-2.9,1.5-3.8s2.4-1.4,4.2-1.4h2c4.9,0,8.7,1.3,11.5,3.9
			C836.4,453.4,837.8,457,837.8,461.6z"/>
		<path class="st2" d="M857.7,456.7h6.8l2.2,10.5h-11.4l-2.4,10.4h-12.2l9.6-37.8h11.3L857.7,456.7z M872,426.5l12.3,51h-12.1
			L863,437h-8.3c-1.9,0-3.3-0.5-4.3-1.4c-1-0.9-1.5-2.2-1.5-3.8c0-1.6,0.5-2.9,1.5-3.8c1-1,2.5-1.4,4.3-1.4H872z"/>
		<path class="st2" d="M901.5,464.3h-11.9v-37.8h11.9V464.3z M914.9,477.5h-25.3V467h25.3c1.8,0,3.2,0.5,4.3,1.4
			c1,1,1.5,2.2,1.5,3.8c0,1.6-0.5,2.9-1.5,3.8C918.1,477,916.7,477.5,914.9,477.5z"/>
		<path class="st2" d="M953,437h-27v-10.5h27c1.8,0,3.2,0.5,4.3,1.4c1,1,1.5,2.2,1.5,3.8c0,1.6-0.5,2.9-1.5,3.8
			C956.3,436.6,954.8,437,953,437z M937.9,477.5H926v-37.8h11.9V477.5z M956.4,457h-15.6v-10.5h15.6V457z M958.4,477.5h-17.6V467
			h17.6V477.5z"/>
		<path class="st2" d="M1008.4,437h-27v-10.5h27c1.8,0,3.2,0.5,4.3,1.4c1,1,1.5,2.2,1.5,3.8c0,1.6-0.5,2.9-1.5,3.8
			C1011.6,436.6,1010.2,437,1008.4,437z M993.3,477.5h-11.9v-37.8h11.9V477.5z M1011.1,457.4h-15v-10.5h15V457.4z"/>
		<path class="st2" d="M1037.3,467.5v10.9c-3.1,0-5.9-0.5-8.4-1.6c-2.5-1.1-4.5-2.5-6-4.4c-1.5-1.9-2.7-4-3.5-6.5
			c-0.8-2.4-1.2-5.1-1.2-7.9v-12c0-2.8,0.4-5.5,1.2-7.9c0.8-2.4,2-4.6,3.5-6.5c1.5-1.9,3.5-3.4,6-4.4c2.5-1.1,5.3-1.6,8.4-1.6v10.9
			c-2.1,0-3.7,0.8-5,2.5c-1.2,1.7-1.8,4.4-1.8,8v9.9c0,3.7,0.6,6.3,1.8,8C1033.6,466.7,1035.3,467.5,1037.3,467.5z M1055.2,434.5
			l-8.4,5.9c-1.2-2.6-3.4-3.9-6.4-3.9v-10.9c3.9,0,7.1,0.8,9.6,2.3C1052.5,429.5,1054.3,431.7,1055.2,434.5z M1040.3,478.4v-10.9
			c1.8,0,3.2-0.3,4.2-0.9c1.1-0.6,1.9-1.5,2.5-2.8l8.2,6.8C1052.4,475.8,1047.4,478.4,1040.3,478.4z"/>
	</g>
</g>
</svg>
