<?xml version="1.0" encoding="utf-8"?>
<!-- Generator: Adobe Illustrator 28.0.0, SVG Export Plug-In . SVG Version: 6.00 Build 0)  -->
<svg version="1.1" id="Layer_1" xmlns="http://www.w3.org/2000/svg" xmlns:xlink="http://www.w3.org/1999/xlink" x="0px" y="0px"
	 viewBox="0 0 1741.6 1389.9" style="enable-background:new 0 0 1741.6 1389.9;" xml:space="preserve">
<style type="text/css">
	.st0{fill:#2C3D7A;}
	.st1{fill:#424242;}
	.st2{fill:#332D00;}
</style>
<g>
	<path class="st0" d="M1202.3,884.3c-22.3,0-42.7,0.7-62.9-0.3c-9.5-0.4-13.3,3.1-17,11.3c-50.3,112.1-134.8,190-244,243.2
		c-6.9,3.4-12,0.9-17.3-1.8c-99-51.3-180.3-121.3-228.6-223.8c-10.8-23-22.2-35.2-48.6-29.1c-10.3,2.4-21.5,0.5-32.2,0.9
		c-9,0.3-11.5-3.2-6.4-10.8c15.2-22.7,6.5-39.7-12.3-54.8c-7.8-6.3-14.8-13.7-23.9-22.1c16.4-3.4,30.6-6.8,45-9.2
		c8.4-1.4,10.1-3.4,5.8-11.6c-8.2-15.8-15.1-32.3-23.3-50.2c15-0.9,28.5-2,42-2.4c8.5-0.3,11.9-3.8,10.5-12.3
		c-2.2-13.7-4.5-27.3-5.9-41c-0.7-6.8-5.1-6.3-9.6-7.1c-17.2-3-34.2-6.3-50.9-11.7c-6.9-2.3-9.9-4.8-4.5-11.7
		c2.5-3.2,4-7.1,6.1-10.6c15.4-25.7,20.9-49.8-5.1-73.7c-12-11.1-10.2-13.2,5.6-15c11.7-1.3,23.5-3.5,35.2-3.2
		c14.6,0.3,17.4-6.1,16.9-19.4c-1.6-45.1-1.7-90.2-3.2-135.3c-0.4-12,3.2-15.3,15.2-15.7c91.9-2.8,180.7-22.8,268-50.4
		c11.6-3.7,22.5-4.3,34.5-0.9c62.5,18,124.7,37.3,189.6,44.9c21.9,2.5,43.8,5.1,65.8,6.3c10.2,0.5,13.8,2.6,13.7,13.9
		c-0.6,46.6,0.3,93.3-0.1,140c-0.1,11.4,3,16.2,15.1,16.4c17.6,0.4,35.2,2.8,54.9,4.5c-10.1,13.2-18.2,24.1-26.8,34.8
		c-5.7,7.1-6.4,14-3.1,22.8c5.3,14.1,12.3,27.1,21.2,39.1c6,8.1,3.6,10.7-4.8,13.4c-16.6,5.3-33.7,8.8-50.7,12.1
		c-5,1-10.3,1.3-10.9,8.4c-1.1,13.8-2.4,27.6-3.9,41.3c-0.9,7.8,3,9.6,9.8,9.9c13.7,0.5,27.3,1.5,42.7,2.4
		c-7.4,16.8-13.7,32.3-21.1,47.4c-4.3,8.9-5.1,13.6,6.9,15.2c13.6,1.8,26.8,5.5,42.6,9c-14.4,11.8-26.7,23.1-37.9,35.5
		c-8,8.8-10.4,16.6-3.9,27.2C1195.1,867,1198,875.1,1202.3,884.3L1202.3,884.3z M893.4,404.7c-26.4,24.2-26.2,53-12.5,83.7
		c-92.1-0.5-182.2,1.8-272,11.6c-6.2,0.7-11,1.2-10.9,9.2c0.2,29.6,0.1,59.2,0.1,89.5c65.5-13,130.2-18.5,195.3-18.5
		c54.9,0,109.7-0.2,164.6,0.4c58.9,0.6,117.8,2.8,175.4,16.9c8.5,2.1,9.6-0.9,9.4-8c-0.3-18.5-0.4-36.9-0.2-55.4
		c0.3-34.8,0.3-34-33.8-37.3c-44.9-4.3-90-6-135.1-7.7c-7-0.3-14.2-0.4-13.5-10.1c0.8-9.5-5-7.7-9.5-5.4c-9.1,4.5-16.1,2.3-21.1-5.7
		c-5-8-3-15.6,3.2-22.4c2.3-2.4,6.9-4.9,3.4-8.6c-3.2-3.4-7.4-1.1-11.3,0.5c-9.1,3.6-10.2,14.1-17.5,20.6c-2-10.2,2-17.1,6.6-24
		c2.1-3.2,3-7.2-0.5-9.7c-3.2-2.3-6.9-0.7-9.6,2.1c-7.8,7.8-13.9,16-14.1,27.9c-0.2,10.9,4.9,20,10.7,32.8
		c-22.3-20.6-26.2-42.4-14.9-66.5c2.5-5.4,8-9.5,7.3-16.3c3.3-0.2,6.9-1.3,10-0.5c4,0.9,8.4,3.4,9.1-2.8c0.7-6.3-1.6-12.1-8.9-13.6
		c-5.3-1.1-8.8,1.4-9.5,6.9C893.3,397.7,893.5,401.3,893.4,404.7L893.4,404.7z M936.5,619.8c10.9-6.6,23.1-10.3,31.9-26.2
		c-23.1,0-43,0.2-62.9-0.1c-8.2-0.1-10.1,3.6-7.9,10.5c5.2,16.4-4.9,27.2-13.8,38.4c-2.9,3.6-7,6.2-9.7,0.7
		c-6.8-13.9-20.2-25.3-17.2-43.2c0.6-3.4,1.6-7.2-4.5-7.2c-25.8,0.3-51.6,0.2-79,4c10.5,11.4,22.6,16.5,34.5,22.3
		c-22,0.4-41.8-9-66.5-14.2c19.2,20.7,40.9,26.8,63.3,31.7c-22.6,4.1-44.5,2.3-66.3-2.3c18.7,13.2,39.3,19.5,62.3,18.5
		c-20.5,0.4-40.9,3.9-61.3-0.6c17.9,14.8,39.9,10.4,60.7,11.9c-14.3,7.9-30.6,6.2-48.3,13.3c21.7,5.4,39.1,0.7,57.4-3.3
		c-8.5,12-22.3,13.6-34.9,22.6c19.1,0.1,33-5.9,46.6-13.8c-8,10.1-13.9,20.8-19.6,33c11.4,0.2,15.2-8.5,21.3-13.2
		c6.1-4.7,11.4-10.4,18.6-17.1c-3.8,8.2-6.4,14.2-9.3,20c-5.8,11.6-2.7,29.5-14.2,35.2c-10.9,5.4-26.1,2.1-39.4,2.6
		c-0.5,0-1,0-1.5,0c-56.4,1.3-112.6,6-168.5,13.5c-6.2,0.8-16.8-2.3-16.3,10.7c0.8,22.5,1.3,45.1,1.7,67.7c0.2,7.3,3.2,9.4,10.6,8.7
		c27.1-2.3,54.2-3.9,81.3-5.8c113.2-8.1,226.4-8.9,339.7-2.8c35.3,1.9,70.6,4.5,105.8,7.3c11.5,0.9,16.5-2,15.7-14.8
		c-1.1-17.4-1.3-34.9,0-52.3c1.1-13.8-3.7-18.6-17.2-20.1c-59.7-6.6-119.4-11.3-179.4-11.9c-5.8-0.1-13.1,2.6-16.9-4.1
		c-9.2-16.3-17.8-32.9-27.7-51.2c15.7,7.4,21.9,25.3,41.5,24.4c-6.8-11.5-18-17.2-23.9-29.9c16,6,28.7,15.7,47.3,13.9
		c-12.8-7.3-25.7-10-34.9-21.8c17.7,2.1,33.4,8.2,51.8,0.7c-16.8-7.6-34.3-4.3-50-14.9c26.3-0.7,52.2,7.1,73.7-19
		c-19.8,8.5-36.5,12.4-54.3,6.7c20.2-1.4,38.7-6,52.8-24.7c-39.9,15.5-45,16.5-69,13c22.8-4.7,41.4-12.7,51.8-32.9
		C973.6,609.2,956.9,620.8,936.5,619.8L936.5,619.8z M590,437.5L590,437.5c-0.1,13.9-0.4,27.7,0.1,41.5c0.1,3.9-2.5,10.8,4.4,11
		c7.3,0.2,6.5-6.3,6.4-11.4c0-23.6,0.2-47.2-0.3-70.8c-0.2-9,2.2-12.1,11.8-12.9c77.2-6.7,153.5-19.1,226.7-44.8
		c24.5-8.6,45.6-9,70.4-0.7c67.6,22.5,137.1,37.5,208.3,43.6c12.7,1.1,17,5.4,16.3,18.7c-1.2,22-0.2,44.1,0,66.1
		c0,4.5-0.2,10.4,6.3,10.2c6.1-0.2,4.4-5.9,4.4-9.6c-0.2-27.7-1.1-55.4-0.7-83.1c0.1-9.8-5.1-10.9-12.2-11.5
		c-78.8-6.9-155.5-24.3-230.8-48.3c-17.1-5.5-34.2-6.1-51.3-0.5c-79.1,26-160.2,42.6-243.3,48.7c-11.6,0.9-19,4-16.8,18.5
		C591.4,413.7,590,425.7,590,437.5L590,437.5z M635.9,859.8c-1.3,0.4-2.6,0.8-3.9,1.2c-1.9,16.6,7.4,30.2,14.2,44.1
		c45.9,94.4,120.2,160.4,210.8,210.2c10.9,6,19.6,5.3,29.8,0c41.9-22,81.2-47.7,115.7-80.4c45.8-43.5,84.9-91.7,108.2-151.2
		c2.6-6.7,6.7-13.6,3.7-22c-7.8,2.7-8.7,9.3-11,14.6c-46.6,103.2-122.5,177.7-222.6,228.9c-6.5,3.3-12.3,3.6-18.8,0
		c-90.2-50.3-164.2-116.7-209.8-211.2C646.7,882.6,641.3,871.2,635.9,859.8L635.9,859.8z M869.2,1062.9c10.9,1.4,22.9,4.7,18.4-13.2
		c-0.9-3.7,3.2-4.6,5.1-6.7c2.6-2.8,2-6.6-2.1-6.2c-4.8,0.5-5.3-0.6-6.1-5c-2.9-15.9-9.1-19.4-28.8-17.5
		c-15.4,1.5-5.7,13.2-7.9,20.1c-1,3.2,0.1,7.1,0.5,10.6C849.5,1058.2,852,1069.9,869.2,1062.9L869.2,1062.9z M1139.8,624.6
		c-1.7-0.1-3.4-0.2-5.1-0.2c-2.5,27.3-5.2,54.6-7.5,81.9c-0.7,8.3-2.3,10.8-12.6,10.2c-22.1-1.2-44.2-6.7-69.6-2.7
		c28.4,4.1,53.8,7.1,78.8,11.7c8.9,1.7,11.1-1.5,11.6-8.5c1.6-18.8,3.2-37.7,4.2-56.6C1140.3,648.6,1139.8,636.6,1139.8,624.6
		L1139.8,624.6z M603.2,620.8c-5.7,4.9-4.9,10.4-4.7,15.6c0.9,26.6,4.6,52.9,8.4,79.3c1.4,9.4,4.7,10.8,12.7,9.5
		c23.1-3.7,46.2-7,69.4-10.5c-10-1.1-19.9-1.3-29.8-1c-14,0.4-32.2,9.9-40.6,1.5c-8.2-8.2-6.2-26.9-8.3-41
		C607.8,656.4,605.6,638.5,603.2,620.8L603.2,620.8z M694.2,471.5c-1.8-14-4.5-24.5,7.7-30.1c2.3-1.1,2.3-6-0.8-5.3
		c-14.6,3.5-15.4-11.1-23.7-18.7c-3.2,13.4-9.4,21.7-25.5,19.9c10.4,10.4,17,19.3,12,32.9C673.5,461.3,682.3,459,694.2,471.5
		L694.2,471.5z M1043.7,469.5c10.3-7.5,19-11.8,28.9-2.1c-3.5-13.2,3.3-21.8,13.7-33.7c-19.6,7.9-23.1-6.4-31-14.8
		c-4.7,8.8-7.2,17.8-18.6,17.3c-3.9-0.2-5.2,5.3-2.3,6.2C1048.6,446.4,1045.8,457,1043.7,469.5L1043.7,469.5z M936.4,1002.6
		c9.8-8.3,19.4-10.7,30.9-3.2c-11.6-13.9-0.5-22.5,6.5-33c-17.9,9.5-22-5.9-30.2-15.5c3.3,18.9-4,25.8-22.8,22.1
		C930.3,981.7,942.4,987,936.4,1002.6L936.4,1002.6z M799,1004.2c2.7-9.1-2.3-15.7,3.9-20.6c4.3-3.5,10.5-6.3,9.5-15.4
		c-18.9,10.5-21.2-2.4-22-18.9c-7.8,11.1-11.7,21.8-26.6,19.8c15.5,8,8.4,19.5,6,32C780.9,994.7,790.3,990.8,799,1004.2L799,1004.2z
		 M849.9,982.1c15.2-38.7,10.5-75.8,12.2-112.1C844.8,904.6,846.4,941.4,849.9,982.1z M1010.4,942.9c-3.3-12-5-22.3,4.9-32.9
		c-11.7,6.3-16.8,1.8-20.1-7.5c-1.5-4.2-7.4-5.3-7.6-1c-0.6,12.2-9.8,13.3-16.8,19.2c-7,5.9,14,10.9,10.4,24.1
		C990.8,937.6,999.8,933.1,1010.4,942.9L1010.4,942.9z M727.9,911.9c7,8.1,11.2,14.5,5.6,23.3c-1.2,1.9-3.4,4.7-0.8,6.8
		c2.5,2,5-0.2,6.5-1.9c4.3-5.1,8.5-6.6,14-1.7c2.9,2.6,7.2,3.5,8.6-1.3c2.2-7.6,13.1-10.7,11.4-18.6c-1.2-5.2-6.5-2-10.7,0.7
		c-2.2,1.4-5.3-3.7-6.5-7.1c-1.5-4.1,1.6-9.1-2.8-13.3C745.1,903.3,742.6,918.5,727.9,911.9L727.9,911.9z M882.2,867
		c3.3,34.3,1.2,68.7,4.7,102.7C899.1,933.9,897.4,896.5,882.2,867z M754.9,395.7c-4.2-2.1-7.3-2.2-8.4,1.6c-0.8,2.8-0.8,5.9,1.4,8.7
		c2.9,3.7,6.6,5.8,10.5,3.3c5.3-3.4,9.4-6.1,14.7,0.2c1.4,1.6,8,1.7,8.3,0.8c5.7-13.1,14-4.3,21.4-3c2.6,0.4,5.4,0.5,6.8-2
		c1.8-3-0.9-4.4-2.8-6c-1.5-1.3-3-2.7-4.2-4.3c-7.9-10.2-21.7,8.6-29-5.8c-0.2-0.3-5,0.7-5.2,1.6
		C766.5,402.3,758.6,393.3,754.9,395.7L754.9,395.7z M993.3,399.1c-1.7-2.5-3.5-5.6-3.7-5.5c-9.9,5.3-17.5-3.8-26.4-3.9
		c-1,0-2.4,0.2-2.8,0.8c-1.2,2.2,4,5.9-1.2,7.1c-3.9,0.9-5.5-2.4-8.1-5.1c-4.3-4.7-8.1,0.3-11.2,3.3c-2.5,2.4-5.4,5.5-2.2,9.2
		c2.8,3.2,6,1.1,9.6,0.7c10.8-1.4,22.6,0.8,32.1,2.9C992.8,411.5,988,401.5,993.3,399.1L993.3,399.1z M850,382.7
		c-4.4,8.2-7.3,17.8-17.9,7.1c-3.5-3.5-11.1-0.7-14.6,4.5c-2.3,3.5-0.4,8.5,3,8.7c13.7,0.9,27.7,8.1,45-2.1
		C852.4,399.7,855.2,389.7,850,382.7L850,382.7z M908.6,877.8c3.7,17,7.2,34.1,11.1,51.1c0.5,2.2,1.8,5.2,5.2,4c2.9-1,2.8-4,2.8-6.4
		C928,908,917.1,893.5,908.6,877.8z M835.8,879.3c-12,12.7-17.3,27.3-19.9,42.9c-0.5,3.1-0.5,6.6,2.9,7.9c4.8,1.7,4.5-3.2,5.1-5.5
		C828.1,909.6,831.9,894.4,835.8,879.3L835.8,879.3z M792.6,905.3c12.6-12.8,20-28,22.1-45.6C808.5,875.6,792.3,886.4,792.6,905.3z
		 M928.8,858.4c2.5,23.2,11.4,39.9,25.6,46C947.1,887.5,938.9,873.4,928.8,858.4L928.8,858.4z M933.7,398.7c-0.6-5.5-1-10-8.5-10.3
		c-11-0.5-6.9,8.2-8.4,12.9c-2.1,6.3,3.9,6.1,7.4,6C929.5,407.1,934.2,405.1,933.7,398.7z M767.3,890c11.5-9,18.5-20.9,23.4-34.2
		C780.2,865.4,771.2,876,767.3,890z M976.9,893.5c-4.8-14.3-13.8-25.8-23.4-36.9C956.9,871.7,966.4,883,976.9,893.5z M553.4,640
		c7.8,5.8,15.4,4.8,22.8,5c2.7,0,6.7,0.9,6-4c-0.5-3.7-3.4-5.1-6.6-4.3C568.9,638.3,561.6,635.3,553.4,640L553.4,640z"/>
	<path d="M852.8,293.9c-13.2-10.2-24.7-7.8-38.2,2.2c7.6-16.5-1.4-25.6-13-34.6c16.5-0.5,24.5-10,30.1-24.6
		c7.9,12.2,12.9,25.5,34.6,19.5C851.9,268.7,845.5,278.9,852.8,293.9z"/>
	<path d="M722.8,313.9c3.6-16.5-0.9-27.5-15.4-35.4c14.8-2.8,27.6-5,27.3-24.5c12.3,9.4,13.9,30.3,35.9,21.5
		c-16.8,9.8-18.3,21.5-6.1,38.9C748.2,309.2,735.5,296.4,722.8,313.9L722.8,313.9z"/>
	<path d="M985.8,276.9c12.9,0,20.8-4.4,24.5-16c2.5-7.8,6.8-5.1,8.8,0.2c4,10.9,10.3,17.6,24.8,15.4c-12.7,10.3-20.1,21.1-11.2,38
		c-12.8-8.9-24.4-13.1-37.6-2C998.5,298.4,999.3,286.3,985.8,276.9L985.8,276.9z"/>
	<path d="M942.3,297.2c-14.5-8.4-27.1-9.7-37.7-3.8c1.9-11.4,5.1-22.5-6.4-30.3c-2.8-1.9-0.8-6.7,3-6.1c14.1,2.1,16-10.1,22.5-19
		c8.3,8,10.5,23.6,26.5,21c3.1-0.5,3.5,4.5,1.3,5.6C937.8,271.6,938.5,283.5,942.3,297.2L942.3,297.2z"/>
	<path d="M631.3,339.2c6.2-16.5-2.3-24-12.5-33c14.9-1,21.9-9.2,26.1-23.5c6.6,13.9,15.4,20.3,29.9,18.3
		c-11.9,10.5-13.9,21.5-5.7,35C656.5,329,645.3,328.8,631.3,339.2L631.3,339.2z"/>
	<path d="M1100.2,282.4c8.2,10.5,9.3,22.3,23.1,22.6c5,0.1,1.3,6.3-1.5,7.6c-10.8,4.9-10.6,13.7-8.2,25.2
		c-12.4-5-23.2-15.2-35.4-1.2c2.1-15.1,0.4-27-5.1-35.6C1085.2,300.3,1096.8,299,1100.2,282.4L1100.2,282.4z"/>
	<path d="M901.4,709.5c11.5,9.1,18.6,19.8,26.1,30.2c-1.5,1.2-2.2,2.4-2.9,2.3c-8.5-0.2-8-0.3-9.4-7.8c-0.6-3.2-4-5.9-5.3-9.1
		C907.8,720.1,901.9,717.4,901.4,709.5L901.4,709.5z"/>
	<path d="M842.1,707.8c-0.6,11.5-1,19.2-1.4,26.8c-0.2,3.5-1.8,6-5.6,5.7c-5.1-0.3-3.4-4.2-2.7-6.8
		C834.2,725.9,834.5,717.6,842.1,707.8L842.1,707.8z"/>
	<path class="st1" d="M872.3,1036.8c-6,4.4,10.4,14.9-3,16c-12.6,1-4.8-11.5-7-17.5c-1.5-4.1-5.6-12.8,2.2-13.6
		C873.9,1020.8,872.5,1029.8,872.3,1036.8L872.3,1036.8z"/>
	<g>
		<path class="st2" d="M726.8,790.4c-5.9,0.7-11.7,1.5-17.6,2.4c-0.3-2.2-0.6-4.4-1-6.7c5.9-0.8,11.8-1.6,17.7-2.4
			c1.2-0.2,2.2,0,2.9,0.6c0.7,0.5,1.2,1.3,1.3,2.3c0.1,1-0.1,1.9-0.7,2.5C728.9,789.9,728,790.3,726.8,790.4z M720.5,817.4
			c-2.5,0.3-5.1,0.7-7.6,1c-1.1-8-2.3-16-3.4-23.9c2.6-0.4,5.2-0.7,7.8-1.1C718.3,801.4,719.4,809.4,720.5,817.4L720.5,817.4z
			 M730.3,803.2c-3.2,0.4-6.5,0.8-9.7,1.2c-0.3-2.2-0.6-4.4-0.9-6.7c3.2-0.4,6.5-0.8,9.7-1.3C729.7,798.7,730,800.9,730.3,803.2
			L730.3,803.2z"/>
		<path class="st2" d="M746.8,807.7c0.3,2.3,0.5,4.6,0.8,6.9c-1.6,0.2-3,0.1-4.4-0.2c-1.3-0.3-2.4-0.8-3.4-1.5
			c-0.9-0.7-1.7-1.5-2.4-2.6c-0.7-1-1.2-2.2-1.6-3.4c-0.4-1.2-0.7-2.6-0.9-4c-0.3-2.5-0.6-5.1-0.9-7.6c-0.2-1.5-0.2-2.8-0.1-4.1
			c0.1-1.3,0.4-2.5,0.8-3.7c0.4-1.2,1-2.2,1.8-3.1c0.8-0.9,1.8-1.6,3-2.2s2.7-1,4.3-1.2c0.3,2.3,0.5,4.6,0.8,6.9
			c-1.2,0.1-2,0.7-2.4,1.8s-0.5,2.8-0.2,5.3c0.2,2.1,0.5,4.2,0.7,6.3c0.3,2.4,0.7,4.1,1.4,5.1C744.8,807.5,745.7,807.9,746.8,807.7
			L746.8,807.7z M749.5,814.5c-0.2-2.3-0.5-4.6-0.8-6.9c1.1-0.1,1.9-0.7,2.3-1.8c0.4-1.1,0.5-2.8,0.2-5.3c-0.2-2.1-0.5-4.2-0.7-6.3
			c-0.3-2.4-0.7-4.1-1.3-5.1c-0.6-1-1.5-1.4-2.7-1.3c-0.2-2.3-0.5-4.6-0.8-6.9c1.7-0.2,3.2-0.1,4.5,0.2c1.3,0.3,2.5,0.8,3.4,1.5
			s1.8,1.6,2.4,2.6c0.7,1,1.2,2.2,1.6,3.4c0.4,1.2,0.6,2.6,0.8,4c0.2,2.5,0.5,5.1,0.8,7.7c0.2,1.5,0.2,2.8,0,4.1
			c-0.1,1.3-0.4,2.5-0.8,3.7c-0.4,1.2-1,2.2-1.8,3.1s-1.7,1.6-3,2.2C752.5,813.9,751.1,814.3,749.5,814.5L749.5,814.5z"/>
		<path class="st2" d="M775.5,804.9c0.2,2.3,0.4,4.6,0.6,6.9c-1.6,0.1-3,0-4.3-0.3c-1.3-0.3-2.4-0.9-3.3-1.6
			c-0.9-0.7-1.7-1.6-2.4-2.7c-0.7-1.1-1.2-2.2-1.5-3.4c-0.4-1.2-0.6-2.6-0.8-4c-0.2-2.5-0.5-5.1-0.7-7.7c-0.1-1.5-0.2-2.8,0-4.1
			c0.1-1.3,0.4-2.5,0.9-3.7c0.5-1.2,1.1-2.2,1.9-3s1.8-1.6,3.1-2.2s2.7-0.9,4.3-1.1c0.2,2.3,0.4,4.6,0.6,6.9c-1.2,0.1-2,0.7-2.4,1.8
			s-0.5,2.8-0.3,5.3c0.2,2.1,0.4,4.2,0.6,6.3c0.2,2.4,0.6,4.1,1.2,5.1C773.5,804.6,774.4,805,775.5,804.9L775.5,804.9z M778,811.7
			c-0.2-2.3-0.4-4.6-0.6-6.9c1.2-0.1,1.9-0.7,2.4-1.8s0.6-2.8,0.4-5.3c-0.2-2.1-0.3-4.2-0.5-6.3c-0.2-2.4-0.6-4.1-1.2-5.1
			s-1.5-1.4-2.7-1.3c-0.2-2.3-0.4-4.6-0.6-6.9c1.7-0.1,3.2,0,4.5,0.3c1.3,0.3,2.5,0.9,3.4,1.6c0.9,0.7,1.7,1.6,2.4,2.7
			c0.7,1.1,1.1,2.2,1.5,3.5c0.3,1.2,0.5,2.6,0.7,4c0.2,2.5,0.4,5.1,0.6,7.7c0.1,1.5,0.1,2.8,0,4.1c-0.1,1.3-0.5,2.5-0.9,3.6
			c-0.5,1.2-1.1,2.2-1.9,3c-0.8,0.8-1.8,1.5-3,2.1C781.1,811.2,779.7,811.6,778,811.7L778,811.7z"/>
		<path class="st2" d="M808.2,783c-6.1,0.3-12.2,0.7-18.3,1.2c-0.2-2.2-0.3-4.5-0.5-6.7c6.1-0.4,12.3-0.8,18.4-1.2
			c1.2-0.1,2.2,0.2,2.9,0.8c0.7,0.6,1.1,1.4,1.2,2.4c0,1-0.2,1.8-0.9,2.5C810.3,782.6,809.4,783,808.2,783L808.2,783z M805.5,809.1
			c-2.5,0.2-5.1,0.3-7.6,0.5c-0.5-8.1-1.1-16.3-1.6-24.4c2.6-0.2,5.2-0.3,7.8-0.5C804.5,792.9,805,801,805.5,809.1z"/>
		<path class="st2" d="M837.5,786.3c-2.5,0.1-5,0.2-7.4,0.2c-0.1-1.6-0.5-2.7-1.4-3.4s-2.2-1-3.9-1c-3.4,0.1-6.8,0.3-10.2,0.5
			c-0.1-2.2-0.2-4.5-0.3-6.7c3.8-0.2,7.7-0.4,11.5-0.5c3.7-0.2,6.6,0.7,8.6,2.5S837.4,782.6,837.5,786.3L837.5,786.3z M823.5,808.2
			c-2.5,0.1-5.1,0.2-7.6,0.4c-0.4-8-0.8-16.1-1.2-24.2c2.6-0.1,5.2-0.2,7.8-0.4C822.8,792.1,823.2,800.2,823.5,808.2L823.5,808.2z
			 M839.4,797.5c0.1,3.2-0.7,5.7-2.5,7.5c-1.7,1.8-4.2,2.8-7.3,3c-1.4,0-2.9,0.1-4.3,0.2c-0.1-2.2-0.2-4.5-0.3-6.7
			c1.1,0,2.2-0.1,3.4-0.1c2.3-0.1,3.4-1.2,3.3-3.3c0-1-0.3-1.7-0.9-2.2c-0.5-0.5-1.3-0.7-2.2-0.6c-0.3,0-0.5,0-0.8,0
			c-1.2,0-2.1-0.2-2.8-0.8s-1-1.4-1.1-2.4c0-1,0.2-1.9,0.9-2.5c0.6-0.6,1.5-1,2.7-1c0.4,0,0.9,0,1.3,0c3.2-0.1,5.7,0.6,7.6,2.2
			C838.4,792.2,839.3,794.5,839.4,797.5L839.4,797.5z"/>
		<path class="st2" d="M852.3,794c1.5,0,2.9,0,4.4-0.1c0.5,2.2,1,4.5,1.5,6.7c-2.5,0-4.9,0.1-7.3,0.1c-0.5,2.2-1,4.4-1.4,6.7
			c-2.6,0-5.2,0.1-7.8,0.2c1.8-8.1,3.7-16.2,5.6-24.3c2.5,0,4.9-0.1,7.4-0.1C853.9,786.7,853.1,790.4,852.3,794L852.3,794z
			 M861.4,774.6c2.8,10.8,5.6,21.7,8.2,32.6c-2.6,0-5.2,0-7.8,0c-2-8.6-4.1-17.2-6.3-25.8c-1.8,0-3.6,0.1-5.5,0.1
			c-1.2,0-2.2-0.3-2.9-0.8c-0.7-0.6-1-1.4-1-2.4c0-1,0.3-1.9,1-2.5c0.7-0.6,1.6-1,2.8-1C853.8,774.7,857.6,774.6,861.4,774.6
			L861.4,774.6z"/>
		<path class="st2" d="M880.7,798.7c-2.6,0-5.1,0-7.7,0c0-8.1,0-16.1,0-24.2c2.6,0,5.2,0,7.9,0C880.8,782.6,880.7,790.7,880.7,798.7
			z M889.2,807.3c-5.4-0.1-10.8-0.1-16.3-0.1c0-2.2,0-4.5,0-6.7c5.5,0,10.9,0,16.4,0.1c1.2,0,2.1,0.3,2.7,1c0.6,0.6,1,1.5,0.9,2.5
			c0,1-0.4,1.8-1,2.4C891.3,807,890.4,807.3,889.2,807.3L889.2,807.3z"/>
		<path class="st2" d="M904.3,799.1c-2.6-0.1-5.1-0.1-7.7-0.2c0.2-8.1,0.3-16.1,0.5-24.2c2.6,0,5.2,0.1,7.9,0.2
			C904.7,783,904.5,791.1,904.3,799.1z M912.7,807.8c-5.4-0.2-10.8-0.3-16.3-0.5c0-2.2,0.1-4.5,0.1-6.7c5.5,0.1,10.9,0.3,16.4,0.5
			c1.2,0,2.1,0.4,2.7,1c0.6,0.6,0.9,1.5,0.9,2.5s-0.4,1.8-1.1,2.4C914.8,807.6,913.9,807.9,912.7,807.8L912.7,807.8z"/>
		<path class="st2" d="M942,802.9c-0.1,2.3-0.3,4.6-0.4,7c-2-0.1-3.8-0.6-5.3-1.3s-2.8-1.8-3.7-3s-1.6-2.7-2-4.2
			c-0.4-1.6-0.6-3.3-0.5-5.1c0.1-2.6,0.3-5.1,0.4-7.7c0.1-1.8,0.4-3.5,1-5c0.6-1.5,1.4-2.9,2.5-4s2.4-2,4.1-2.6
			c1.7-0.6,3.5-0.8,5.6-0.7c-0.1,2.3-0.3,4.6-0.4,7c-1.4-0.1-2.5,0.4-3.3,1.4c-0.9,1-1.4,2.7-1.5,5.1c-0.1,2.1-0.2,4.2-0.4,6.3
			c-0.1,2.3,0.2,4.1,0.9,5.2C939.6,802.2,940.7,802.8,942,802.9L942,802.9z M955,782.5c-1.9,1.1-3.9,2.2-5.8,3.4
			c-0.7-1.7-2-2.6-4.1-2.8c0.1-2.3,0.3-4.6,0.4-7c2.6,0.2,4.7,0.8,6.3,1.9S954.5,780.7,955,782.5z M943.5,809.9
			c0.1-2.3,0.3-4.6,0.4-7c1.1,0.1,2-0.1,2.8-0.4s1.3-0.9,1.7-1.7c1.7,1.6,3.3,3.2,5,4.7C951.3,808.8,948,810.2,943.5,809.9
			L943.5,809.9z"/>
		<path class="st2" d="M964.6,802.4c-2.6-0.2-5.1-0.4-7.7-0.6c0.6-8,1.2-16.1,1.8-24.1c2.6,0.2,5.2,0.4,7.8,0.6
			C965.9,786.3,965.3,794.4,964.6,802.4L964.6,802.4z M972.5,811.5c-5.4-0.5-10.8-0.9-16.2-1.3c0.2-2.2,0.3-4.5,0.5-6.7
			c5.4,0.4,10.9,0.8,16.3,1.3c1.2,0.1,2.1,0.5,2.7,1.2c0.6,0.7,0.8,1.5,0.8,2.5c-0.1,1-0.5,1.8-1.2,2.3
			C974.6,811.4,973.7,811.6,972.5,811.5L972.5,811.5z"/>
		<path class="st2" d="M991.1,807c-0.2,2.3-0.5,4.6-0.7,6.9c-1.7-0.2-3.2-0.6-4.4-1.2c-1.3-0.6-2.3-1.4-3.1-2.3s-1.4-2-1.9-3.2
			c-0.5-1.2-0.8-2.5-0.9-3.7s-0.1-2.7,0-4.2c0.6-6.6,1.2-13.2,1.8-19.7c2.6,0.2,5.2,0.5,7.8,0.8c-0.7,6.5-1.3,12.9-2,19.4
			c-0.2,2.5-0.1,4.2,0.5,5.3C988.9,806.2,989.8,806.8,991.1,807L991.1,807z M992.3,814c0.2-2.3,0.5-4.6,0.7-6.9
			c1.2,0.1,2.3-0.3,3.1-1.2c0.8-1,1.3-2.7,1.6-5.1c0.7-6.5,1.4-12.9,2.1-19.4c2.6,0.3,5.2,0.6,7.8,0.9c-0.8,6.6-1.5,13.1-2.3,19.7
			c-0.2,1.8-0.6,3.5-1.2,5s-1.4,2.8-2.4,4c-1,1.2-2.3,2-3.9,2.6C996.2,814.1,994.3,814.3,992.3,814L992.3,814z"/>
		<path class="st2" d="M1034.1,797.1c-2.5-0.3-4.9-0.7-7.4-1c0.2-1.6-0.1-2.8-0.8-3.6c-0.7-0.8-2-1.4-3.7-1.6
			c-3.4-0.4-6.8-0.9-10.1-1.3c0.3-2.2,0.5-4.5,0.8-6.7c3.8,0.5,7.6,0.9,11.4,1.4c3.7,0.5,6.4,1.8,8,3.9
			C1034.1,790.4,1034.7,793.4,1034.1,797.1L1034.1,797.1z M1016.6,816.3c-2.5-0.3-5.1-0.6-7.6-0.9c1-8,1.9-16,2.9-24
			c2.6,0.3,5.2,0.6,7.8,1C1018.7,800.3,1017.7,808.3,1016.6,816.3L1016.6,816.3z M1034.2,808.4c-0.4,3.2-1.7,5.5-3.7,7
			c-2,1.5-4.6,2.1-7.7,1.7c-1.4-0.2-2.8-0.4-4.3-0.6c0.3-2.2,0.6-4.5,0.9-6.7c1.1,0.1,2.2,0.3,3.3,0.4c2.3,0.3,3.6-0.6,3.8-2.7
			c0.1-1,0-1.8-0.5-2.3s-1.2-0.9-2.1-1c-0.3,0-0.5-0.1-0.8-0.1c-1.2-0.2-2-0.6-2.6-1.2s-0.8-1.5-0.7-2.5c0.1-1,0.6-1.8,1.3-2.3
			s1.7-0.7,2.9-0.5c0.4,0.1,0.8,0.1,1.3,0.2c3.2,0.4,5.6,1.6,7.1,3.5C1034,803.1,1034.6,805.5,1034.2,808.4L1034.2,808.4z"/>
	</g>
	<g>
		<g>
			<path d="M719.9,573.1c-3.9,0.9-7.9,1.8-11.8,2.7c-3.6-14.9-7.2-29.8-10.7-44.7c6,6.4,11.8,12.9,17.5,19.4
				C716.6,558.1,718.2,565.6,719.9,573.1z M728.6,556.7c-1.3,0.3-2.3,0.2-3.3-0.1c-0.9-0.3-1.8-1-2.7-2.1
				c-8.6-10.2-17.5-20.2-26.6-30.1c4.6-1.1,9.2-2.2,13.8-3.2c7.7,8.6,15.2,17.2,22.5,26c0.6,0.8,1.1,1.9,1.3,3.1
				c0.3,1.6,0,2.9-1,4.1C731.6,555.6,730.2,556.3,728.6,556.7z M744.9,514.3c-3.7,10.2-7.3,20.5-10.6,30.8
				c-2.9-3.6-5.9-7.2-8.9-10.7c1.7-5.8,3.4-11.7,5.2-17.5C735.4,516,740.1,515.2,744.9,514.3z M753.9,566.5c-4,0.7-7.9,1.4-11.9,2.1
				c-1.4-7.7-2.9-15.3-4.3-23c2.7-8.3,5.5-16.6,8.4-24.9C748.7,536,751.3,551.2,753.9,566.5z"/>
			<path d="M795.2,525.9c-4.1,0.4-8.3,0.9-12.4,1.4c-0.3-2.5-1.2-4.3-2.8-5.3c-1.5-1-3.8-1.3-6.6-0.9c-5.7,0.8-11.4,1.6-17,2.5
				c-0.6-3.6-1.1-7.2-1.7-10.8c6.5-1,12.9-1.9,19.4-2.8c6.3-0.8,11.3,0.1,14.9,2.8C792.5,515.4,794.6,519.8,795.2,525.9z
				 M775.2,563.2c-4.1,0.6-8.2,1.2-12.3,1.8c-2-12.9-4.1-25.8-6.1-38.7c4.3-0.7,8.7-1.3,13-1.9C771.6,537.3,773.4,550.2,775.2,563.2
				z M799.8,543.6c0.5,5.1-0.5,9.3-3.1,12.5c-2.6,3.2-6.4,5.1-11.5,5.7c-2.3,0.3-4.6,0.6-7,0.9c-0.5-3.6-1-7.2-1.5-10.8
				c1.8-0.2,3.7-0.5,5.5-0.7c3.7-0.5,5.4-2.4,5-5.9c-0.2-1.6-0.8-2.7-1.7-3.4c-1-0.7-2.2-0.9-3.7-0.7c-0.4,0.1-0.9,0.1-1.3,0.2
				c-2,0.2-3.5,0-4.7-0.9c-1.2-0.8-1.9-2.1-2.1-3.7c-0.2-1.7,0.1-3,1.1-4.2c1-1.1,2.4-1.8,4.4-2.1c0.7-0.1,1.4-0.2,2.1-0.3
				c5.3-0.7,9.7,0.2,12.9,2.6C797.4,535.3,799.3,538.8,799.8,543.6z"/>
			<path d="M820.7,536.7c2.4-0.2,4.9-0.3,7.3-0.5c1,3.6,2,7.1,3,10.7c-4,0.2-8,0.5-12.1,0.8c-0.6,3.6-1.2,7.3-1.7,10.9
				c-4.2,0.3-8.5,0.7-12.7,1.1c2.1-13.3,4.3-26.6,6.8-39.9c4.1-0.3,8.3-0.6,12.5-0.9C822.7,524.8,821.6,530.7,820.7,536.7z
				 M834.5,504.5c5.5,17.4,10.7,34.8,15.5,52.3c-4.2,0.1-8.4,0.3-12.6,0.5c-3.9-13.8-7.9-27.6-12.2-41.4c-3.1,0.2-6.1,0.4-9.2,0.6
				c-2.1,0.2-3.7-0.2-4.9-1.1c-1.2-0.9-1.9-2.1-2-3.8c-0.1-1.7,0.3-3,1.4-4.1c1.1-1.1,2.6-1.7,4.7-1.9
				C821.6,505.2,828,504.8,834.5,504.5z"/>
			<path d="M878,534.8c-0.6,0-1.2,0-1.8,0c-2,0-3.5-0.5-4.6-1.5c-1.1-1-1.6-2.3-1.6-4c0-1.6,0.5-3,1.6-4c1.1-1,2.6-1.5,4.6-1.5
				c0.3,0,0.7,0,1,0c3.3,0,5-1.5,5.1-4.5c0-3.2-2-4.9-6.2-4.9c-7.2,0-14.5,0-21.7,0.2c-0.1-3.6-0.2-7.3-0.3-10.9
				c7.9-0.2,15.8-0.2,23.7-0.2c5.6,0,10,1.5,13.1,4.2c3.1,2.8,4.5,6.7,4.4,11.8c-0.2,5.1-1.8,9-4.8,11.5
				C887.6,533.7,883.4,534.9,878,534.8z M867.9,556.5c-4.1,0-8.3,0.1-12.4,0.2c-0.3-13.1-0.6-26.1-0.9-39.2
				c4.4-0.1,8.7-0.2,13.1-0.2C867.7,530.4,867.8,543.4,867.9,556.5z M895.6,556.9c-4.5-0.2-9.1-0.3-13.6-0.3c-2.9-6.5-6-13-9.1-19.4
				c4.5,0,8.9,0.1,13.4,0.1C889.5,543.8,892.6,550.3,895.6,556.9z"/>
			<path d="M916.9,536.3c2.4,0.2,4.9,0.3,7.3,0.5c0.5,3.7,1.1,7.3,1.6,11c-4-0.3-8-0.6-12.1-0.8c-1.1,3.5-2.1,7.1-3.2,10.6
				c-4.2-0.2-8.5-0.4-12.7-0.6c3.8-12.9,7.8-25.8,12-38.7c4.2,0.2,8.3,0.5,12.5,0.7C920.5,524.8,918.7,530.5,916.9,536.3z
				 M934.8,506.2c3.1,18,5.9,35.9,8.4,53.9c-4.2-0.4-8.4-0.8-12.6-1.2c-2-14.2-4.2-28.4-6.6-42.6c-3.1-0.2-6.1-0.4-9.2-0.6
				c-2.1-0.1-3.6-0.7-4.7-1.7c-1.1-1-1.6-2.4-1.5-4c0.1-1.7,0.7-3,1.9-3.9c1.2-0.9,2.8-1.3,4.9-1.2
				C922,505.2,928.4,505.7,934.8,506.2z"/>
			<path d="M974.1,542.1c-0.6-0.1-1.2-0.2-1.8-0.3c-2-0.3-3.4-1-4.3-2.1c-0.9-1.1-1.3-2.5-1.1-4.2c0.2-1.6,0.9-2.9,2.1-3.7
				c1.2-0.8,2.8-1.1,4.8-0.8c0.3,0,0.7,0.1,1,0.1c3.3,0.5,5.2-0.8,5.6-3.8c0.5-3.2-1.4-5.1-5.5-5.7c-7.2-1-14.4-1.9-21.6-2.7
				c0.4-3.6,0.8-7.2,1.2-10.8c7.9,0.9,15.7,1.9,23.6,3c5.6,0.8,9.7,2.8,12.5,5.9c2.7,3.1,3.6,7.2,2.8,12.2c-0.8,5.1-3,8.6-6.3,10.8
				C983.7,542.2,979.4,542.8,974.1,542.1z M961.1,562.2c-4.1-0.5-8.2-1-12.4-1.5c1.4-13,2.9-26,4.3-38.9c4.4,0.5,8.7,1,13.1,1.6
				C964.4,536.3,962.8,549.2,961.1,562.2z M988.6,566.3c-4.5-0.8-9-1.5-13.5-2.1c-2.1-6.8-4.2-13.7-6.4-20.5
				c4.4,0.6,8.8,1.2,13.3,1.9C984.3,552.5,986.5,559.4,988.6,566.3z"/>
			<path d="M1012.5,548.7c2.4,0.5,4.8,1,7.2,1.5c0,3.7,0.1,7.4,0.1,11.1c-4-0.8-7.9-1.6-11.9-2.4c-1.5,3.4-3,6.7-4.5,10.1
				c-4.2-0.8-8.4-1.6-12.6-2.3c5.5-12.3,11.2-24.6,17.1-36.7c4.1,0.8,8.2,1.6,12.3,2.4C1017.6,537.8,1015,543.2,1012.5,548.7z
				 M1034.4,521.3c0.7,18.2,1.2,36.4,1.2,54.6c-4.1-1-8.3-1.9-12.4-2.9c-0.1-14.4-0.4-28.7-0.9-43.1c-3-0.6-6-1.2-9.1-1.8
				c-2.1-0.4-3.5-1.2-4.5-2.3c-0.9-1.2-1.2-2.6-0.9-4.2c0.3-1.6,1.1-2.8,2.4-3.6c1.3-0.8,3-0.9,5.1-0.5
				C1021.7,518.6,1028,519.9,1034.4,521.3z"/>
		</g>
	</g>
</g>
</svg>
