<?xml version="1.0" encoding="utf-8"?>
<!-- Generator: Adobe Illustrator 28.0.0, SVG Export Plug-In . SVG Version: 6.00 Build 0)  -->
<svg version="1.1" id="Layer_1" xmlns="http://www.w3.org/2000/svg" xmlns:xlink="http://www.w3.org/1999/xlink" x="0px" y="0px"
	 viewBox="0 0 1741.6 1389.9" style="enable-background:new 0 0 1741.6 1389.9;" xml:space="preserve">
<style type="text/css">
	.st0{fill:#0D303A;}
	.st1{fill:#F15A29;}
	.st2{fill:#F15A29;stroke:#0D303A;stroke-width:2;stroke-miterlimit:10;}
	.st3{fill:#FFFFFF;}
</style>
<g>
	<path class="st0" d="M1164.5,604c-14.4-5.1-16.7-14.5-16.7-28.2c0.4-71.3-1.6-142.6,0.4-213.8c0.7-26.1-10.4-38.8-31.5-47.4
		c-6.6-2.7-13.4-5-20.3-6.9c-82.1-22-165.4-39.5-245.5-68.7c-5.7-2.1-10.7-1.6-16.3,0.3c-81.7,27.2-164.8,49.3-248.5,69.5
		c-15.5,3.8-30.3,9.1-43.1,19.3c-8.1,6.5-12.3,13.2-12.2,24.5c0.6,75.9,0,151.8,0.7,227.7c0.1,12.2-3.9,18.5-14.6,23.1
		c-10.6,4.6-20.5,11.1-30.7,16.7c0.3,1.4,0.7,2.8,1,4.2h707.3C1183.3,614.1,1174.4,607.5,1164.5,604z M581.1,334.3
		c71-17.8,142.2-35,211.5-58.1c36.8-12.3,68.8-9.5,104.9,1.9c65.7,20.8,133.1,36.4,199.8,54c7.4,2,14.5,4,20.7,15.2
		c-25.5-5.9-47.6-10.5-69.5-16.2c-66.3-17.2-132.7-34.3-198.2-54.7c-6-1.9-11.2-2.8-17.7-0.6c-73.7,25-149,44.2-224.5,62.8
		c-15.1,3.7-30,9.4-47,8.6C564.8,336.7,573.7,336.2,581.1,334.3L581.1,334.3z M625.4,607c-33.2,1.1-33.3,1.5-33.3-31
		c-0.1-50.6,0.4-101.3-0.2-151.9c-0.1-10.7,2.8-15.3,13.6-17.3c32.9-6.1,32.8-6.5,32.8,27.1c0,23,0,46,0,69
		c0,30.2-0.3,60.4,0.2,90.5C638.7,603.5,635.4,606.7,625.4,607L625.4,607z M769.1,607.3c-41.8,0.8-41.8,1.1-41.8-40.8
		c0-58.5,0.2-116.9-0.1-175.4c0-9.8,2.2-15,13-16.2c10.1-1.1,20.2-3.8,29.9-6.9c9.9-3.2,12.6-0.1,12.5,9.7
		c-0.4,36.4-0.2,72.8-0.2,109.2h0.5c0,35.4-0.4,70.8,0.2,106.2C783.3,603.9,779.7,607,769.1,607.3z M872.2,449.9
		c-3.1,21.5-14.2,40.5-16.4,62.2c-2.7,26.6-4.4,53.3-1.1,79.8c1.8,14.1-3.7,16-15.4,16.1c-15.5,0.1-6.9-10.6-7.6-16.3
		c-1.1-8.6-0.3-17.4-0.3-26.1c1.3-30.4-1.3-60.3-11.5-89.2c-3-8.6-4-17.9-6.8-26.7c-4.2-13.4-1.2-23.5,12.8-28
		c8.8-2.8,5.7-8.9,5.5-14.6c-0.3-8.3-1.3-17.3,11.7-16.3c11.9,0.9,10.9,10.8,9.3,17.1c-2,7.9-0.2,10.8,6.7,13.5
		C872.3,426.5,874.1,436.3,872.2,449.9L872.2,449.9z M850.9,366.8c0.2,7.6,1.6,14.2-10.9,14c-12.8-0.2-6.8-8.4-8.2-13.4
		c-0.7-2.4-0.1-5.1-0.1-9c3.1-5.7-7.8-19.9,10.6-19.5c5.8,0.1,8.4,2.2,8.3,8C850.6,353.6,850.8,360.2,850.9,366.8L850.9,366.8z
		 M943.3,607.2c-39.6,0-39.6,0.5-39.6-39.2v-81.5h0c0-35.4,0.4-70.8-0.2-106.1c-0.2-11.9,4-13.1,14.3-11.1
		c40.5,7.9,40.6,7.6,40.6,48.1c0,57.9-0.2,115.9,0.3,173.8C958.8,602.9,955.8,607.2,943.3,607.2L943.3,607.2z M1071.4,607.2
		c-30-0.2-30,0.4-30.1-30c0-24.6,0-49.2,0-73.9h0.2c0-30.3,0.3-60.5-0.2-90.8c-0.1-8.7,1.7-11.1,11.1-9.8c35.4,4.7,35.4,4.3,35.3,40
		c-0.1,49.2-0.5,98.5,0.1,147.7C1088,603.2,1084.1,607.3,1071.4,607.2L1071.4,607.2z M1116.3,605.6c-9.8,0.2-6.9-8.5-6.9-13.9
		c-0.1-65.6-0.1-131.3,0.3-196.9c0.1-8.9-1.5-13.2-11.6-15.2c-76.8-15.5-152.7-34.6-227-59.2c-19-6.3-35.9-7.3-55.9-0.7
		c-75.8,25.1-153.3,44.4-231.2,62c-11.3,2.5-14.4,7.1-14.2,18.4c0.7,62.5,0.5,125.1,0.6,187.6c0,4.6-0.1,9.2-0.5,13.8
		c-0.4,4.6-3.8,5.6-7.7,5.5c-3.7,0-5.6-2.2-5.9-5.7c-0.3-3-0.4-6.1-0.4-9.2c0.3-68.2,0.9-136.4,0.7-204.6c0-12.1,2.9-17.4,15.8-20.1
		c87.2-18.2,173-41.9,258-68.8c9.1-2.9,17.1-0.7,25.5,1.8c74.8,23,150.6,42.5,226.8,60.5c8.4,2,17.1,4.9,25.5,4.8
		c13.3-0.2,14.5,6.8,14.4,17.3c-0.4,34.3-0.1,68.7-0.1,103h0.3c0,35.4,0.1,70.8-0.2,106.1C1122.4,597.2,1124.8,605.4,1116.3,605.6
		L1116.3,605.6z"/>
	<path class="st1" d="M1118,347.3c-25.5-5.9-47.6-10.5-69.5-16.2c-66.3-17.2-132.7-34.3-198.2-54.7c-6-1.9-11.2-2.8-17.7-0.6
		c-73.7,25-149,44.2-224.5,62.8c-15.1,3.7-30,9.4-47,8.6c3.6-10.5,12.5-11.1,20-12.9c71-17.8,142.2-35,211.5-58.1
		c36.8-12.3,68.8-9.5,104.9,1.9c65.7,20.8,133.1,36.4,199.8,54C1104.8,334,1111.8,336,1118,347.3z"/>
	<path class="st1" d="M1116.3,605.6c-9.8,0.2-6.9-8.5-6.9-13.9c-0.1-65.6-0.1-131.3,0.3-196.9c0.1-8.9-1.5-13.2-11.6-15.2
		c-76.8-15.5-152.7-34.6-227-59.2c-19-6.3-35.9-7.3-55.9-0.7c-75.8,25.1-153.3,44.4-231.2,62c-11.3,2.5-14.4,7.1-14.2,18.4
		c0.7,62.5,0.5,125.1,0.6,187.6c0,4.6-0.1,9.2-0.5,13.8c-0.4,4.6-3.8,5.6-7.7,5.5c-3.7,0-5.6-2.2-5.9-5.7c-0.3-3-0.4-6.1-0.4-9.2
		c0.3-68.2,0.9-136.4,0.7-204.6c0-12.1,2.9-17.4,15.8-20.1c87.2-18.2,173-41.9,258-68.8c9.1-2.9,17.1-0.7,25.5,1.8
		c74.8,23,150.6,42.5,226.8,60.5c8.4,2,17.1,4.9,25.5,4.8c13.3-0.2,14.5,6.8,14.4,17.3c-0.4,34.3-0.1,68.7-0.1,103h0.3
		c0,35.4,0.1,70.8-0.2,106.1C1122.4,597.2,1124.8,605.4,1116.3,605.6L1116.3,605.6z"/>
	<path class="st0" d="M1201.7,811.1H478.1c9.1,15.2,22.2,20.8,37.4,25.1c-7.9,10.6-15,20.1-25.1,33.7c29.2,0,53.7,0.5,78.1-0.2
		c12.3-0.4,19.6,2.4,23.2,15.6c4.8,17.8,13.5,34.3,22.7,50.4c50.5,88.6,128.8,144.2,219.9,184.6c7.6,3.4,13.8,0.9,20.4-2
		c29.1-13,57.1-28,83.4-46c69.5-47.4,125.1-106.1,151-188.2c3.7-11.8,9.2-14.8,20.6-14.5c25.8,0.7,51.7,0.2,80.1,0.2
		c-7-15.3-19.7-21-23.5-33.3C1179.7,830.9,1191.9,824.1,1201.7,811.1L1201.7,811.1z M555.9,846.5c-4.4,0.3-6.9-1.5-6.4-6.2
		c0.4-4.3,1.7-8,6.4-8.8c5-0.2,6.9,2.5,7,6.6C562.8,842.8,561.1,846.2,555.9,846.5z M963.6,843.3c3.6,0,6.6,1.6,8.9,4.9
		s4,8,4.8,14.1l-7.8,12.5c-1.1-5.5-3.1-8.3-6-8.3L963.6,843.3L963.6,843.3z M963.6,932.9c1.6,0,2.9-0.6,3.9-1.9c1-1.3,1.7-3.3,2.3-6
		l7.6,14.6c-2.6,11-7.2,16.5-13.8,16.5L963.6,932.9L963.6,932.9z M943.2,886.9c0-6,0.4-11.7,1.1-16.9c0.7-5.2,1.8-9.8,3.2-13.8
		c1.4-4,3.2-7.2,5.5-9.5c2.3-2.3,4.9-3.4,7.8-3.4v23.2c-1.9,0-3.5,1.8-4.6,5.4c-1.1,3.6-1.7,9.3-1.7,17.2v21.1
		c0,7.8,0.6,13.5,1.7,17.2c1.1,3.6,2.7,5.4,4.6,5.4v23.2c-2.9,0-5.5-1.2-7.8-3.4s-4.1-5.5-5.5-9.5c-1.4-4-2.5-8.6-3.2-13.8
		c-0.7-5.2-1.1-10.8-1.1-16.9V886.9L943.2,886.9z M915.2,903.6h15.6v14h-15.6V903.6z M864.6,846.4h35.8c2.4,0,4.3,1.5,5.7,4.5
		c1.3,3,2,7,2,12s-0.7,9-2,12c-1.3,2.9-3.2,4.4-5.7,4.4h-35.8V846.4L864.6,846.4z M904.1,910.1V943h-19.9v-32.8H904.1z M864.6,887.7
		h15.8v118h-15.8V887.7L864.6,887.7z M836.7,903.6h15.6v14h-15.6V903.6z M788.1,850.9c1.2-3,2.9-4.5,5-4.5h20.1l14.4,159.3h-14.1
		l-10.7-126.5h-9.7c-2.2,0-3.9-1.5-5-4.4c-1.2-2.9-1.8-6.9-1.8-12S786.9,853.9,788.1,850.9L788.1,850.9z M788,887.7h13.2l-4.6,53
		h7.9l2.6,32.7h-13.2l-2.8,32.4h-14.2L788,887.7L788,887.7z M759,903.6h15.6v14H759V903.6z M850.1,1092c-4.3,2.1-9,2.9-13.4,0.7
		c-17.8-8.9-36.2-16.6-52.3-28.8c13.1,0.2,24.8,5.7,35.7,11.4c14.4,7.5,27.2,8.2,41.9,0.8c14.5-7.3,30.3-12.2,45.5-18.2
		C890.8,1073,870.3,1082.2,850.1,1092L850.1,1092z M1060.1,844.3c-10.6,36.7-27.6,70.3-48.9,102c-38.6,57.2-93.7,90.3-157.7,111.1
		c-3.8,1.2-7.9,1.7-12.8,2.8c-24.8-6.8-48.8-17.2-72-29C691.2,992,646.7,926,620.8,845.5c-1.4-4.3-6-11.3,2.8-13.7
		c8.6-2.3,9.5,4.6,11.5,10.6c32.3,99,95.8,167.5,195.7,200.8c8.9,3,16.8,1.5,25.3-1.3c96-31.9,154.7-100,187.9-193
		c1-2.9,2.2-5.8,2.9-8.8c1.3-5.7,4.9-7.5,10.2-6.6C1065.2,835,1061.1,840.8,1060.1,844.3L1060.1,844.3z M1122.7,846.8
		c-4.3,0-7.7-3.5-7.7-7.7s3.5-7.7,7.7-7.7s7.7,3.5,7.7,7.7S1127,846.8,1122.7,846.8z"/>
	<path class="st1" d="M1130.5,839.1c0,4.3-3.5,7.7-7.7,7.7s-7.7-3.5-7.7-7.7s3.5-7.7,7.7-7.7S1130.5,834.8,1130.5,839.1z"/>
	<path class="st1" d="M562.8,838.2c0.1,4.6-1.7,8-6.9,8.3c-4.4,0.3-6.9-1.5-6.4-6.2c0.4-4.3,1.7-8,6.4-8.8
		C560.8,831.4,562.7,834.1,562.8,838.2z"/>
	<path class="st1" d="M907.5,1058c-16.7,15-37.2,24.3-57.5,34c-4.3,2.1-9,2.9-13.4,0.7c-17.8-8.9-36.2-16.6-52.3-28.8
		c13.1,0.2,24.8,5.7,35.7,11.4c14.4,7.5,27.2,8.2,41.9,0.8C876.5,1068.8,892.3,1063.9,907.5,1058L907.5,1058z"/>
	<path class="st1" d="M1060.1,844.3c-10.6,36.7-27.6,70.3-48.9,102c-38.6,57.2-93.7,90.3-157.7,111.1c-3.8,1.2-7.9,1.7-12.8,2.8
		c-24.8-6.8-48.8-17.2-72-29C691.2,992,646.7,926,620.8,845.5c-1.4-4.3-6-11.3,2.8-13.7c8.6-2.3,9.5,4.6,11.5,10.6
		c32.3,99,95.8,167.5,195.7,200.8c8.9,3,16.8,1.5,25.3-1.3c96-31.9,154.7-100,187.9-193c1-2.9,2.2-5.8,2.9-8.8
		c1.3-5.7,4.9-7.5,10.2-6.6C1065.2,835,1061.1,840.8,1060.1,844.3L1060.1,844.3z"/>
	<g>
		<path class="st2" d="M537.2,669.4l13.9,62.2l6.5-26l9.9,34.4l-8.1,27.9H536l-23.4-98.5H537.2z M570.1,669.4c3.3,0,5.8,0.8,7.6,2.5
			c1.8,1.7,3.2,4.4,4.3,8.3l22.8,87.8h-23.3l-22.8-81.6c-0.5-1.6-0.7-3.3-0.7-5.4c0-3.4,1.1-6.2,3.3-8.3
			C563.3,670.5,566.3,669.4,570.1,669.4z M596.1,707.1l8.6-37.7h23.5l-20,83L596.1,707.1z"/>
		<path class="st2" d="M658.4,727.7h13.1l4.3,20.2h-22l-4.7,20h-23.6l18.5-73h21.9L658.4,727.7z M685.9,669.4l23.8,98.5h-23.4
			l-17.7-78.2h-16.1c-3.6,0-6.4-0.9-8.4-2.7c-2-1.8-2.9-4.3-2.9-7.4c0-3.1,1-5.6,3-7.4c2-1.8,4.8-2.8,8.3-2.8H685.9z"/>
		<path class="st2" d="M743,767.9h-23v-98.5h23V767.9z M794,767.9h-25.6l-19.2-38c-1-2.3-1.6-4.7-1.6-7.2c0-3.2,1.1-5.6,3.4-7.3
			c2.3-1.7,5-2.5,8.2-2.5c2.3,0,4.3,0.6,5.9,1.7c1.6,1.1,3,2.9,4.2,5.3L794,767.9z M771.3,709.9h-23.5l20.9-40.5h24.5L771.3,709.9z"
			/>
		<path class="st2" d="M825.8,767.9h-23v-98.5h23V767.9z"/>
		<path class="st2" d="M836.8,751.9l16.6-12.4c1.5,3.4,3.8,5.9,7,7.4c3.2,1.5,6.3,2.3,9.5,2.3v20.6
			C852.9,769.7,841.8,763.8,836.8,751.9z M875.7,707.2c5.9,1.7,10.7,3.4,14.4,5c3.7,1.7,6.9,3.7,9.7,6.2c2.8,2.5,4.8,5.4,5.9,8.7
			c1.2,3.4,1.8,7.5,1.8,12.3c0,10-2.7,17.5-8.1,22.6c-5.4,5.1-13.3,7.6-23.7,7.6v-20.6c5.9-0.4,8.8-3.5,8.8-9.3c0-2.8-0.9-5-2.8-6.8
			c-1.8-1.7-5.5-3.4-11-5c-11.2-3.2-19.1-7.1-23.5-11.7c-4.4-4.7-6.6-10.9-6.6-18.7c0-5,0.8-9.4,2.3-13.2c1.6-3.9,3.7-7,6.5-9.4
			c2.8-2.4,6.1-4.2,9.8-5.5c3.7-1.2,7.9-1.9,12.4-1.9v20.6c-2.3,0.2-4.2,1.1-5.7,2.6c-1.5,1.5-2.2,3.6-2.2,6.3
			c0,2.7,0.8,4.8,2.4,6.1C867.8,704.5,871,705.9,875.7,707.2z M907.9,684.7l-16.6,12.5c-1.7-6-6.3-9-13.9-9v-20.6
			c7.9,0,14.3,1.3,19.2,4C901.4,674.3,905.2,678.7,907.9,684.7z"/>
		<path class="st2" d="M952.8,748.7v21c-4.8,0-9.1-0.7-12.9-2.1c-3.8-1.4-7-3.2-9.5-5.6c-2.5-2.4-4.6-5.3-6.3-8.6
			c-1.7-3.4-2.8-7-3.6-10.8s-1.1-7.9-1.1-12.3v-23.2c0-4.4,0.4-8.5,1.1-12.3c0.7-3.8,1.9-7.4,3.6-10.8c1.7-3.4,3.7-6.2,6.3-8.6
			c2.5-2.4,5.7-4.3,9.5-5.6c3.8-1.4,8.1-2.1,12.9-2.1v21c-3.4,0-5.9,1.6-7.5,4.7c-1.6,3.1-2.3,8.4-2.3,15.7v19.1
			c0,7.4,0.8,12.6,2.3,15.7C946.8,747.1,949.3,748.7,952.8,748.7z M958.6,769.7v-21c3.4,0,6-1.6,7.5-4.7c1.6-3.1,2.4-8.4,2.4-15.7
			v-19.1c0-7.4-0.8-12.6-2.4-15.7c-1.6-3.1-4.1-4.7-7.5-4.7v-21c4.9,0,9.2,0.7,13,2.1c3.8,1.4,7,3.2,9.5,5.6
			c2.5,2.4,4.6,5.3,6.3,8.6c1.7,3.4,2.9,7,3.6,10.8c0.7,3.8,1.1,7.9,1.1,12.3v23.2c0,4.4-0.4,8.5-1.1,12.3
			c-0.7,3.8-1.9,7.4-3.6,10.8c-1.7,3.4-3.8,6.2-6.3,8.6c-2.5,2.4-5.7,4.3-9.5,5.6C967.8,769,963.4,769.7,958.6,769.7z"/>
		<path class="st2" d="M1089.8,689.7h-52.1v-20.3h52.1c3.5,0,6.3,0.9,8.2,2.8c2,1.8,2.9,4.3,2.9,7.4c0,3.1-1,5.6-2.9,7.4
			C1096.1,688.8,1093.3,689.7,1089.8,689.7z M1060.6,767.9h-23v-73h23V767.9z M1095.2,729.1h-29v-20.3h29V729.1z"/>
		<path class="st2" d="M1145.8,748.7v21c-6,0-11.4-1-16.2-3.1c-4.8-2.1-8.6-4.9-11.6-8.6c-2.9-3.6-5.2-7.8-6.7-12.5
			c-1.5-4.7-2.3-9.8-2.3-15.2v-23.2c0-5.5,0.8-10.6,2.3-15.2c1.5-4.7,3.8-8.9,6.7-12.5c2.9-3.6,6.8-6.5,11.6-8.6
			c4.8-2.1,10.2-3.1,16.2-3.1v21c-4,0-7.2,1.6-9.6,4.9c-2.4,3.3-3.6,8.5-3.6,15.5v19.1c0,7.1,1.2,12.2,3.6,15.5
			C1138.6,747.1,1141.8,748.7,1145.8,748.7z M1180.3,684.9l-16.3,11.3c-2.4-5-6.5-7.5-12.5-7.5v-21c7.5,0,13.7,1.5,18.6,4.4
			C1175.2,675.1,1178.5,679.3,1180.3,684.9z M1151.6,769.7v-21c3.4,0,6.1-0.6,8.2-1.7c2.1-1.2,3.6-3,4.8-5.4l15.9,13.2
			C1175,764.7,1165.3,769.7,1151.6,769.7z"/>
	</g>
	<g>
		<path class="st3" d="M710.9,846.8l6.9,72.9l3.2-30.4l4.9,40.3l-4,32.8h-11.6l-11.6-115.5H710.9z M727.2,846.8c1.6,0,2.9,1,3.8,2.9
			c0.9,1.9,1.6,5.2,2.1,9.7l11.3,102.9h-11.6l-11.3-95.6c-0.2-1.8-0.4-3.9-0.4-6.3c0-4,0.5-7.2,1.6-9.8
			C723.9,848.1,725.3,846.8,727.2,846.8z M740.1,891l4.2-44.2h11.6l-9.9,97.4L740.1,891z"/>
	</g>
</g>
</svg>
