<?xml version="1.0" encoding="utf-8"?>
<!-- Generator: Adobe Illustrator 28.0.0, SVG Export Plug-In . SVG Version: 6.00 Build 0)  -->
<svg version="1.1" id="Layer_1" xmlns="http://www.w3.org/2000/svg" xmlns:xlink="http://www.w3.org/1999/xlink" x="0px" y="0px"
	 viewBox="0 0 1741.6 1389.9" style="enable-background:new 0 0 1741.6 1389.9;" xml:space="preserve">
<style type="text/css">
	.st0{fill:none;stroke:#000000;stroke-width:40;stroke-miterlimit:10;}
</style>
<g>
	<circle class="st0" cx="896.4" cy="724.9" r="469.9"/>
	<g>
		<path d="M1059.7,876.2c5.9,2.8,8.9,7,8.9,12.4c0,17-15.6,39.4-46.7,67.2c-52.8,47.1-112.7,70.7-179.9,70.7
			c-54.3,0-97.6-19.6-129.9-58.9c-32.3-39.2-48.5-92-48.5-158.1c0-94.5,30.2-173.6,90.7-237.4c60.5-63.8,135.5-95.8,225.1-95.8
			c45.6,0,92.8,8.6,141.7,25.9l-25.9,56.8l-7.3,16.6c-6.2,13.1-13.8,19.7-22.8,19.7c-1.8,0-4.5-0.4-8.1-1.2
			c3.6-7.9,5.4-14.5,5.4-19.6c0-17.2-11.5-32.2-34.6-45c-23.1-12.8-49.9-19.2-80.6-19.2c-62.9,0-114,24.8-153.3,74.5
			C754.6,634.2,735,698.8,735,778.2c0,61.5,13.8,110.5,41.4,147c27.6,36.5,64.4,54.8,110.5,54.8c33.2,0,66.4-10,99.5-29.9
			C1019.5,930.1,1043.9,905.5,1059.7,876.2z"/>
	</g>
</g>
</svg>
