<?xml version="1.0" encoding="utf-8"?>
<!-- Generator: Adobe Illustrator 28.0.0, SVG Export Plug-In . SVG Version: 6.00 Build 0)  -->
<svg version="1.1" id="Layer_1" xmlns="http://www.w3.org/2000/svg" xmlns:xlink="http://www.w3.org/1999/xlink" x="0px" y="0px"
	 viewBox="0 0 1741.6 1389.9" style="enable-background:new 0 0 1741.6 1389.9;" xml:space="preserve">
<style type="text/css">
	.st0{fill:#2B3289;}
	.st1{fill:#FFFFFF;}
	.st2{fill:#B3F400;}
</style>
<path class="st0" d="M1118.7,643.3c19.4,0,40.7-0.5,61.9,0.2c9.7,0.4,15.9-2.4,19.3-11.4c0.4-1.1,1.4-2,1.8-3.1
	c5.9-19.9,19.4-25.3,39-22.6c12.5,1.7,25.4,0.3,39.7,0.3c-2.8,11.8-5.5,22.7-8.4,34.8c53.1,0,105.1,0,159,0
	c-7,46.9-13.8,92.6-20.8,139.1c-17.4,0-34.2,0-52.4,0c1.5,3.2,2.3,5.2,3.4,7c12.7,20.7,25.6,41.2,38,62.1c2,3.4,3.1,8.4,2.5,12.3
	c-6.3,41.8-12.9,83.6-19.9,125.3c-1.4,8.4-0.3,14,8.1,17.8c2.3,1,4.9,5.6,4.4,8c-6.1,30.4-12.7,60.8-19.2,91.1
	c-0.2,1.1-0.8,2.1-1.2,3.2c-271.5,0-542.7,0-814.6,0c1.4-17.6,2.7-34.7,4.1-51.7c1.3-15,3.3-30,4.1-45.1c0.4-7.8,3.5-10.5,10.9-9.4
	c2.2,0.3,4.5-0.4,8.3-0.8c-3.8-7.1-6.3-13.9-10.6-19.2c-16-19.9-15.9-41.4-11.4-65.5c16.5-87.8,31.3-175.9,46.4-263.9
	c1.3-7.5,4.9-8.5,11.3-8.5c84.1,0.1,168.3,0,252.4,0c1.5,0,3,0.2,4.4,0c9.7-1.9,12.6,3,13.8,11.9c6.1,46.5,44.9,85.5,91.5,92.7
	c50.5,7.8,99.6-16.5,119.6-60.4C1110.3,673.8,1113.6,659,1118.7,643.3z M889.5,951.6c0-23,0-44.8,0-66.7c0-66,0-132,0-198
	c0-14.8-3.4-18.2-18.3-18.2c-14.8,0-29.6,0.3-44.4-0.1c-8.6-0.2-12.9,3.8-15.3,11.7c-27.1,87.2-54.3,174.4-81.4,261.6
	c-0.9,3-1.7,6-2.7,10c14.3,0,27.2,0.2,40.2-0.2c2.5-0.1,5.3-2.3,7.4-4.2c10.3-8.9,21.2-17.3,30.3-27.2c10.2-11,22-10.2,35.8-8.4
	c0,13.4,0,26.5,0,39.7C857.6,951.6,872.9,951.6,889.5,951.6z M1272.9,910.4c2-11.9,3.7-22.7,5.5-33.4c1.7-9.7-1.6-14.2-11.2-14.4
	c-8.3-0.2-16.6-0.2-24.9,0c-10.3,0.2-14.9,4.2-16.7,14.6c-3.9,22.4-7.7,44.9-11.4,67.3c-2.1,12.5,0.6,15.9,12.9,15.9
	c36.4,0,72.8,0,109.3-0.1c15.2,0,16.7-1.5,19.4-16.8c5.1-27.9,10.6-55.7,15-83.8c0.8-5.3-1.2-12.6-4.6-16.9
	c-14.8-18.8-29.5-37.9-46.3-54.9c-17-17.2-24.6-35.3-15.8-58.7c0.4-1.1-0.1-2.6,0.5-3.5c0.9-1.3,2.4-3,3.7-3
	c11.7-0.2,23.4-0.1,35.9-0.1c-1.9,10.9-3.6,20.4-5.2,30c-1,6.3,1.5,9.7,8.1,9.6c10.7,0,21.3,0.1,32,0c7.4,0,11.1-3.9,12.2-11.3
	c3.3-22.2,7-44.4,10.5-66.6c1.6-10.1-0.2-12.2-10.4-12.3c-38.5,0-77,0.1-115.5,0c-9,0-13.5,4.1-15.1,12.7
	c-5.1,28.8-10.3,57.6-15.8,86.4c-1.4,7.6,0.2,13.5,5.3,19.5c21,24.5,41.7,49.2,62.2,74.1c2.6,3.1,4.8,7.9,4.5,11.6
	c-0.8,9.7-2.9,19.3-5,28.8c-0.4,1.9-2.9,4.7-4.6,4.8C1296.4,910.7,1285.2,910.4,1272.9,910.4z M624.7,952.5c5.6,0,11.3-0.2,16.9,0.1
	c6.5,0.3,9.6-2.1,10.5-8.9c1.9-13.4,4.1-26.9,7.3-40.1c1.2-5,4.2-10.5,8-13.8c28.4-25,57.2-49.5,86.1-74c5.3-4.5,8.3-9.3,9.4-16.2
	c6.4-39.4,13.2-78.7,19.9-118c1.8-10.7,0.2-12.7-10.6-12.7c-37.9,0-75.8,0.2-113.6-0.1c-8.4-0.1-11.9,2.5-13.4,11.1
	c-11.9,70.2-24.4,140.3-36.7,210.5c-2.9,16.6-6,33.2-8.9,49.8c-1.8,10.5-0.3,12.2,10,12.4C614.6,952.6,619.7,952.5,624.7,952.5z
	 M940.1,751.2c-0.5,1.8-1.4,4.2-1.9,6.7c-12,60.6-24,121.2-35.9,181.8c-1.8,9,1.2,12.3,11,12.3c31.4,0.1,62.8,0,94.1,0
	c17,0,46.6-19.7,53.1-35.3c0.8-1.9,1.2-3.9,1.7-6c10.6-51.8,21.2-103.7,31.7-155.5c2-9.8,3.8-19.6,5.6-29.4
	c-17.7,15.3-36.1,27.3-57.6,34.2c-2,0.6-4,3.5-4.5,5.7c-2.3,10.1-4.1,20.3-6.1,30.4c-6.8,33.6-13.6,67.2-20.7,100.7
	c-0.6,2.6-3.8,6.6-5.9,6.7c-12.3,0.6-24.7,0.3-38.3,0.3c9.3-46.5,18.5-92,27.4-136.1C974.7,761.9,957.7,756.6,940.1,751.2z
	 M1141.5,903.8c-0.1-2-0.3-3.2-0.2-4.3c7.8-48.5,15.5-96.9,23.3-145.4c3.8-23.9,7.9-47.9,11.4-71.9c1.5-10.6-1.4-13.3-12.1-13.4
	c-10.1-0.1-20.2,0.3-30.2-0.1c-8.7-0.4-12,3.8-13.3,11.8c-10.2,62.4-20.7,124.8-31.1,187.2c-3.8,23.1-7.9,46.1-11.4,69.2
	c-1.9,12.5,0.5,15,12.8,15c22.5,0,45-0.1,67.5,0.1c7.4,0.1,11-2.9,11.3-10.3c0.3-10.4,0.5-20.7,1.4-31c0.5-5.9-2.1-7.1-7.2-7
	C1156.4,904,1149.1,903.8,1141.5,903.8z M1191.4,719.9c13.1-1.3,22.7-2.5,32.4-3.1c5.8-0.4,7.8-3.1,8.9-8.6
	c4.5-20.8,9.4-41.5,14.4-62.1c2.1-8.5,4.9-16.7,7.5-25.2c-20.4-2.4-23.9-0.5-31.5,16.5c-1.4,3.2-3,6.4-4.3,9.7
	C1209.9,670.5,1201.2,693.9,1191.4,719.9z M773.2,1096.6c15.6,2,16.1,1.6,18.3-11.5c3-17.8,6-35.6,8.9-53.4c1-6.3,1.9-12.7,2.8-18.8
	c-10.5-4.1-16.3-1.1-17.2,8.1c-3.1-2.4-6.1-4.7-9.1-7.1c-7.8-6.3-17.3-2.9-19,6.9c-2.9,16.6-5.7,33.3-8.5,49.9
	c-1.4,8.6-2.7,17.2-4.1,25.8c15.2,1.9,16,1.3,18-11.8c1.4-8.8,2.7-17.5,4.2-26.3c1.6-9.3,3.5-18.6,5.3-28.7
	c9.4,6.8,9.1,14.8,7.6,23.3C778,1067.5,775.7,1081.8,773.2,1096.6z M1273.8,1096.5c14.7,2.3,15.2,2.1,17.5-10.5
	c3.4-18.4,6.6-36.9,10.1-56.6c6.2,6,10,10.7,8.3,19.1c-3.2,15.8-5.3,31.8-7.9,47.7c13.8,3,15.8,1.9,17.8-10
	c3.3-19.5,6.4-39,9.6-58.6c0.8-5.1,1.4-10.2,2.1-15.1c-10.2-3.5-15.9-0.7-17.2,10.4c-3.2-3.4-5.2-6.9-8.1-8.2
	c-4.3-1.8-9.3-2.9-14-2.6c-1.9,0.1-4.8,4.2-5.2,6.9C1282.2,1044.7,1278.1,1070.3,1273.8,1096.5z M850.7,1096.2
	c14.2,3.5,15.9,2.5,18.1-10.7c1.9-11.1,3.6-22.2,5.4-33.2c2.2-13.3,4.4-26.5,6.6-40.1c-8.8-0.9-17.1-2.9-18.5,11
	c-3-2.1-3.9-5.9-6.1-6.9c-4.7-2.2-10.2-4.3-15.1-3.8c-2.4,0.3-4.6,6.4-6,10.2c-1.3,3.5-1.3,7.5-1.9,11.3
	c-3.5,20.8-6.9,41.7-10.4,62.5c14.9,2.4,15.4,2,17.8-11.4c1.8-10.2,3.5-20.4,5.3-30.6c1.4-8,2.9-15.9,4.5-24.5
	c9.2,8.7,9.7,10.2,8,20C855.8,1065.4,853.2,1080.8,850.7,1096.2z M928.2,1046.8c-5-0.3-9.4-1.5-13-0.3c-2.5,0.8-6,6.9-5.5,7.4
	c5.7,6.2,2.2,12.9,1.5,19.2c-1.2,10.1-2.6,10.7-13.8,7.1c2.3-15.7,4.2-31.5,7.3-47.2c0.5-2.6,6.2-4.2,10.5-6.9
	c1.2,5.2,1.8,7.6,2.8,12.1c4.5-1.8,10.9-2.5,11.8-5.1c2.4-6.6,2.4-14.1,3.4-22.4c-13.1,0-24.9-0.3-36.7,0.3c-2,0.1-4.9,3.6-5.4,5.9
	c-2.1,9.8-3.4,19.8-4.9,29.7c-2.5,16.6-5,33.2-7.6,50.3c14.7,0,28.4,0,42.6,0C923.6,1080.2,925.8,1064,928.2,1046.8z M1222.5,1097.6
	c10.5,0,19,0.4,27.5-0.1c7.7-0.5,13.8-4.9,15.3-12.5c4.4-22,8-44.1,12-66.2c1-5.6-1.4-7.5-6.8-7.3c-5.9,0.2-11.8,0-17.7,0
	c-9.9,0-16.7,5.3-18.5,15.1c-3.1,17.1-6.1,34.3-9,51.4C1224.3,1084.1,1223.6,1090.1,1222.5,1097.6z M1345.5,1082.5
	c-0.5-3.1-0.6-3.7-0.7-4.3c-0.5-4.1,2.9-10-5.2-10.6c-7-0.5-10.5,2.2-11.1,9.3c-0.4,4.7-1.6,9.3-2.3,14c-0.7,4.3,0.6,6.7,5.6,6.6
	c9.8-0.2,19.5,0.5,29.2-0.3c2.7-0.2,6.7-3.6,7.5-6.2c7-24.3,6.4-25.9-10.1-45.1c-1.2-1.3-3-2.5-3.3-4.1c-0.9-4.3-2.2-9-1.2-13.1
	c0.4-1.6,6.2-1.9,10.2-3c0,5.1,0,8.5,0,11.7c13.2,2.6,14.5,1.7,16.2-10.3c0.5-3.2,0.9-6.4,1.6-9.6c1-5.1-1.1-7-6.1-6.9
	c-9.5,0.2-18.9-0.2-28.4,0.3c-2.4,0.1-6.5,2.1-6.8,3.8c-2.9,14.8-10.6,30.4,5.3,43.1c3.4,2.7,6.4,6.5,8.1,10.4
	c1.5,3.3,1.8,7.9,0.7,11.2C1354,1081.1,1349.1,1081.4,1345.5,1082.5z M1149.3,1011.1c-13.7,0-26-0.2-38.3,0.3
	c-1.6,0.1-3.8,3.3-4.4,5.5c-6.6,25.7-6.5,25.7,10.3,45.9c0.4,0.5,0.7,0.9,1.2,1.3c5,4.8,6.4,10.3,3.3,17c-3.2,0-6.4,0-9.7,0
	c0-4.6,0-8.3,0-12c-12.8-3-14.4-2.1-16.4,9.9c-0.6,3.8-0.9,7.7-1.8,11.4c-1.2,5.1,0.7,7.2,5.8,7.2c9.8-0.1,19.6,0.3,29.3-0.3
	c2.3-0.1,5.8-2.8,6.4-5c7.5-25.1,7-26.7-10-46.6c-1.3-1.6-3.7-2.9-4-4.6c-0.7-4.1-1.5-8.8-0.1-12.4c0.6-1.7,6.1-1.6,7.1-1.8
	c2.9,5.4,4.1,10.8,6.5,11.4c3.3,0.8,10-1.2,10.8-3.5C1147.7,1027.6,1148,1019.8,1149.3,1011.1z M1052.3,1010.8
	c-9.8,0-18.1,0.1-26.3,0c-14.9-0.1-17-1.3-18,14.3c-0.2,3.2-1.1,6.4-2,9.5c-1.9,6.2-0.9,11.3,3.8,16.2c4.9,5.1,9.8,10.5,13.4,16.5
	c1.9,3.2,2.3,8.4,1.2,12c-0.5,1.8-6,2-10.1,3.2c0.2-3.8,0.7-5.6,0.3-7.3c-0.6-2.5-1.9-7.1-2.6-7.1c-4.1,0.3-10.8,0.8-11.5,3
	c-2.8,8-3.6,16.8-5.3,26.4c13.5,0,24.8,0.4,35.9-0.3c2.6-0.2,6.4-4,7-6.7c6.1-25,5.9-25-10.4-45c-0.4-0.5-0.7-1-1.2-1.3
	c-5.7-5.1-6.3-10.8-2.1-17.7c2.8,0.2,5.6,0.3,8.9,0.5c0,2.1-0.5,3.8,0.1,4.9c1.3,2.4,3.2,6.3,4.7,6.3c3.5-0.2,9.2-1.6,10-3.9
	C1050.5,1027.3,1050.9,1019.6,1052.3,1010.8z M1164.8,1082.5c0.9-14.3,0.1-15.2-8.3-14.8c-6.7,0.4-6.9,5.2-7.8,9.9
	c-4.2,23.8-4.8,19.8,15.5,20c23.3,0.2,23.1,0,27.6-23.2c1.4-7,0.6-12.5-4.6-17.7c-4.8-4.8-9.4-10-12.7-15.8c-1.9-3.3-2-8.6-0.8-12.3
	c0.5-1.6,6.3-1.6,10-2.4c-0.7,12,1.4,14.5,9.9,12.2c2.4-0.7,5.3-4.5,5.7-7.2c1-6.4,0.7-13.1,0.7-19.6c0-0.3-2.7-0.8-4.1-0.8
	c-9.8-0.1-19.5-0.2-29.3,0.1c-2,0.1-5.5,1.5-5.8,2.8c-2.2,9.5-4.7,19.1-5,28.7c-0.1,4,4.8,8.4,7.8,12.3c3.2,4.3,7.6,7.8,9.9,12.4
	c1.8,3.5,2.4,8.5,1.3,12.3C1174.2,1081.2,1168.6,1081.5,1164.8,1082.5z M701.7,1096.5c14.2,2.4,14.5,2.2,14.5-10.6
	c0-20.4,0.1-40.9-0.2-61.3c-0.1-5.2,3.1-12.6-6.5-13.7c-13.2-1.6-15.4-0.5-18.7,9.9c-6.1,19.8-12.3,39.6-18.4,59.3
	c-1.7,5.5-3.3,11-4.7,15.6c15.5,9,19.8-12.9,32.8-10.2C701,1089.8,701.4,1093.2,701.7,1096.5z M662.7,1097.3c0-3.7-0.2-6.6,0-9.5
	c1-13.9-4.5-29.2,8.5-40.7c1-0.9,0.9-3.3,0.9-5.1c0.1-7.4,0-14.8,0.1-22.2c0.1-6.1-2.7-8.5-8.6-8.3c-6.2,0.2-12.4,0.5-18.6-0.1
	c-7.5-0.6-10.6,2.6-11.6,9.8c-2.7,20.2-5.8,40.3-8.7,60.5c-0.7,5-1.3,10.1-1.9,15.3c5.5,0,9.5,0,13.7,0c2.8-9.2,1.2-20.2,13.5-25.1
	c0,8.9,0,17,0,25.3C654.4,1097.3,657.9,1097.3,662.7,1097.3z M1065.3,1084.9c1-7.2,1.8-12.8,2.6-18.5c5.7-0.4,10.4-0.7,15.4-1
	c0-5.5,0-10.3,0-15.5c-4.5-0.4-8.5-0.8-13.5-1.3c1.2-6.6,1.1-13.3,4-18.3c1.4-2.4,8.9-0.5,13.1-2.1c2.4-0.9,4.5-4.4,5.4-7.1
	c2.6-7.8,0-11.6-8.8-10.6c-5,0.6-10.1,0.5-15,0.1c-7-0.6-9.2,2.7-9.9,9.1c-2,18.2-4.7,36.3-6.9,54.5c-0.9,7.5-1.5,15-2.2,22.8
	c12,0,22.8,0,33.7,0c0-4.2,0-7.8,0-12.2C1077.2,1084.9,1072,1084.9,1065.3,1084.9z M629.9,1011.5c-13.6,0-26.2-0.2-38.8,0.2
	c-1.8,0.1-4.2,2.8-5.1,4.8c-3.9,9.8,3.3,10.2,11.3,10.5c-4.1,23.7-8,46.8-11.9,69.7c15.8,3.3,16.2,2.9,18.6-11.1
	c2.9-17.5,5.9-34.9,9.2-52.3c0.5-2.5,3.5-6.6,5.2-6.5C629,1027.6,629.4,1020.8,629.9,1011.5z M751.8,1012.2
	c-15.1-3.1-16.2-2.3-18.5,10.8c-3.8,21.9-7.6,43.7-11.4,65.6c-0.7,3.8-3.3,8.9,3.8,9.2c5.2,0.2,11.7,2.4,12.7-6.6
	c0.7-6.5,2.1-12.8,3.2-19.2C745,1052.3,748.4,1032.5,751.8,1012.2z M1205.9,1098c5.9,1,8.2-2,9.2-7.7c3.8-23.3,8.1-46.5,11.9-69.8
	c0.6-3.5,3.1-8.9-3.9-9.5c-5.5-0.5-11-1.7-12.3,7c-3.7,23.9-8.1,47.7-12.5,71.5C1196.9,1096.4,1199,1099,1205.9,1098z M797.4,1096.4
	c14.9,3.6,16.4,2.6,18.7-10.2c1.9-11,3.9-22.1,5.7-33.1c2.2-13.6,4.3-27.2,6.4-40.6c-14.2-3.7-16.3-2.4-18.1,10.5
	c-0.5,3.2-0.9,6.4-1.5,9.6C804.9,1053.7,801.2,1074.9,797.4,1096.4z"/>
<path class="st0" d="M128.2,595.9c5.1,0.8,10.3,2.1,15.4,2.2c13.6,0.2,27.2,0.1,40.7-0.6c4.2-0.2,8.7-2.2,12.3-4.6
	c14.6-9.6,28.5-20.2,43.4-29.3c16.8-10.3,34.5-19.2,51.5-29.3c4.8-2.8,8.6-7.4,12.7-11.3c1.9-1.8,3-4.5,5.1-5.9
	c20.5-14,40.3-29.1,61.8-41.3c19.7-11.2,30.2-28.4,34-48.4c4.2-22.2,2.8-45.3,5.2-67.9c0.8-8,4-16.9,8.9-23.2
	c9.4-12,27-13.4,40.3-5.6c13.7,8,25.9,16.8,27.6,34.4c0.3,2.7,2.3,5.3,3.5,7.9c-9.5,2.4-15.4,18.3-13.1,29.6
	c-4.6,10.6-8,18.6-12.6,29.2c8.9-2.4,15.1-3.7,21.1-5.8c10.6-3.5,20.7-2.7,29.6,3.7c16.3,11.7,32.2,24,48.4,35.8
	c4.7,3.4,9.8,6.3,15.1,8.6c18.7,8,37.4,16.2,56.5,23.3c19.1,7,38.6,13.1,58.1,19c9.7,2.9,14.1,11.4,9.2,20.3c-2.9,5.4-10,6.2-14,1.6
	c-15.4-17.9-35.5-23.8-58.3-24.1c-10.6-0.1-21.3-1.6-31.6-3.9c-7.9-1.8-15.3-5.8-22.9-9.2c-4-1.8-7.5-4.9-11.7-6.2
	c-13.2-4.1-26.5-7.7-41.6-12c11.4,20.6,19.6,41.8,42.1,51.6c6.2,2.7,10.8,5.7,11.8,13.6c0.9,7.1,7.2,10.2,14.2,11.3
	c34.1,5.3,68.3,6.1,102.7,3.9c10-0.6,20.1-0.1,30.6-0.1c1.8,18.8,17.6,20.9,31.3,23.9c14.9,3.2,30.3,4.8,45.5,5.4
	c26.8,1,51.5,10.1,76.8,17.2c4.8,1.4,9.6,2.7,15.4,4.4c-0.9,6.1-1.7,12.2-2.7,19.5c-35.9-2.6-72.4,6.5-106.5-11.1
	c-3-1.5-6.9-1.7-10.3-1.7c-10.7,0-21.4-0.2-31.9,1c-5.4,0.6-10.3,4.1-15.6,6c-2.3,0.8-4.9,1.5-7.3,1.2c-16.9-2.7-33.6-2.4-50,2.9
	c-3.6,1.2-7.5,1.3-11.3,1.4c-17.7,0.1-35.4,0.1-54.3,0.1c-3,18.2-5.8,35.9-8.8,53.6c-4.2,24.8-8.4,49.6-13.1,74.3
	c-0.6,2.9-3.9,6.4-6.7,7.4c-1.7,0.6-6.2-2.6-7.3-5c-12.2-26.6-23.7-53.5-36-80c-7.3-15.8-15.7-31.1-24-46.4c-1.3-2.5-4.9-5.8-7-5.5
	c-8.4,1.2-10.4-5-14.7-9.8c-13.7-15.4-27.8-30.2-42.7-44c-16.5-15.3-34-29.4-51.1-44c-11-9.4-21.7-9.7-34.2-2.6
	c-13.8,7.9-28.2,14.8-42.3,22.1c-3.7,1.9-7.7,3.4-10.9,6c-27.4,22.1-59.6,31.9-93.4,38.3c-5.4,1-11.2,2.6-15.6,5.6
	c-13.2,9.3-26.8,9.3-41.3,4.4c-8.9-3-17.9-5.8-26.9-8.7C127.6,598.1,127.9,597,128.2,595.9z"/>
<path class="st0" d="M1000.5,673.4c-13.5,3.9-22.5-3.1-30.5-17.7c-6.9-12.6-7-21.1-0.5-34.1c9.3-18.7,20.8-26.9,41.8-23.8
	c8.3,1.2,14.3,1.9,18,10.4c4,8.9,9.8,16.9,14.1,25.6c1.3,2.6,0.9,6.6,0,9.5c-1.1,3.6-3.7,6.7-5.5,10.1
	C1026.7,673.4,1026.7,673.4,1000.5,673.4z"/>
<path class="st0" d="M966.1,569.2c2.3,6,5.4,12.8,7.5,19.8c0.8,2.7,0.3,6.4-1,9c-3.6,7.1-9.2,13.4-11.7,20.8
	c-5.1,15.1-16.6,18.6-30.2,19.1c-2.6,0.1-6.3-1.6-7.7-3.7c-5.1-7.6-9.5-15.7-13.8-23.7c-1-1.9-0.8-4.4-0.9-6.7
	c0-1.1,0.7-2.3,1.3-3.2c6.5-10.5,10.8-24.8,20.3-30.3C938.9,565.1,953.2,569.2,966.1,569.2z"/>
<path class="st0" d="M1062.3,568.2c16.5-5.5,22.5,8.6,30,20.7c6.9,11.2,9.4,22.1-0.5,33c-0.2,0.2-0.2,0.5-0.4,0.8
	c-9.8,17.1-9.8,17.3-29.1,12.8c-3.5-0.8-7.3-3.5-9.4-6.5c-5-7.3-8.1-16.1-13.8-22.7c-11.3-13-2.8-24.2,1.8-35.8
	c0.5-1.2,3.2-2.1,4.9-2.2C1050.6,568,1055.4,568.2,1062.3,568.2z"/>
<path class="st0" d="M1005.4,738c-3.4,0-4.9,0-6.4,0c-11.3-0.1-19.6-3.4-25.3-14.8c-10.1-20.1-11-19.7,4.6-36.1
	c1.8-1.9,4.9-3.4,7.4-3.5c11.8-0.3,23.7-0.9,35.4,0.3c4.3,0.4,9,4.7,12.2,8.3c11,12.4,10.8,12.6,2.5,26.6c-0.3,0.5-0.7,1-0.9,1.5
	C1029.8,735.8,1017.8,739,1005.4,738z"/>
<path class="st0" d="M685.2,554.9c-29.1-1.8-58.3-3.6-87.4-5.4c-7-0.4-10.7-3.2-12.5-10.9c-1.1-4.6-6.8-9.2-11.5-11.7
	c-11.1-6-21.5-12.1-28-27c8.4,3.2,15.5,4.5,21,8.3c13.7,9.5,28.9,13.3,44.9,15.1c13.5,1.5,27.1,2.8,40.6,4
	c13.1,1.1,19.4,12.4,28.9,18.9c2,1.4,3.2,4,4.8,6.1C685.7,553.2,685.5,554.1,685.2,554.9z"/>
<path class="st0" d="M904.3,620c15,16,18.8,34.5,18,54c-0.1,3.5-3.5,6.8-6.5,9.8C904,663.7,900.4,643,904.3,620z"/>
<path class="st0" d="M1102.9,620.3c4.3,22.7-0.1,43-10.4,64.9c-3-3.6-6.6-6-6.9-8.7C1083.4,655.9,1087.6,637,1102.9,620.3z"/>
<path class="st0" d="M917.8,689.7c4.6-0.7,7.8-2.3,10.3-1.5c17.3,5.9,33.1,22.7,40.7,43.3C947.2,723.6,931.1,710.4,917.8,689.7z"/>
<path class="st0" d="M1089.5,689.5c-13.1,20.7-29.3,33.8-50.6,41.7c6-21.8,21.8-33.5,39.9-42.8
	C1081.1,687.3,1084.9,689,1089.5,689.5z"/>
<path class="st0" d="M1008.2,536.3c22.3,1.3,41.5,8.7,59.3,22.8C1040.6,564,1006.8,550.9,1008.2,536.3z"/>
<path class="st0" d="M940.2,559.1c17.2-14.4,36.4-21,60.8-23.1c-2.3,4.5-3,8.6-5.4,10.2C979.1,556.7,961.9,564.5,940.2,559.1z"/>
<path class="st0" d="M778.4,632.8c-12.7,0-25.5,0-38.2,0c0-0.2,0-0.4,0-0.6c12.7,0,25.5,0,38.2,0
	C778.4,632.4,778.4,632.6,778.4,632.8z"/>
<path class="st1" d="M889.5,951.6c-16.7,0-32,0-48.4,0c0-13.2,0-26.3,0-39.7c-13.8-1.7-25.6-2.6-35.8,8.4
	c-9.2,9.9-20.1,18.3-30.3,27.2c-2.1,1.9-4.9,4.1-7.4,4.2c-13,0.4-25.9,0.2-40.2,0.2c1.1-4,1.8-7,2.7-10
	c27.1-87.2,54.3-174.4,81.4-261.6c2.4-7.8,6.8-11.9,15.3-11.7c14.8,0.3,29.6,0,44.4,0.1c15,0,18.3,3.4,18.3,18.2c0,66,0,132,0,198
	C889.5,906.8,889.5,928.6,889.5,951.6z M840.6,737c-0.3-0.1-0.5-0.2-0.8-0.3c-7.5,41-15,82-22.5,123.2c8.5,0,15.7,0,23.3,0
	C840.6,818.4,840.6,777.7,840.6,737z"/>
<path class="st1" d="M1272.9,910.4c12.3,0,23.5,0.2,34.7-0.2c1.6-0.1,4.2-2.9,4.6-4.8c2.1-9.5,4.2-19.1,5-28.8
	c0.3-3.8-1.9-8.5-4.5-11.6c-20.5-24.9-41.2-49.6-62.2-74.1c-5.1-6-6.7-11.9-5.3-19.5c5.4-28.8,10.7-57.6,15.8-86.4
	c1.5-8.6,6-12.8,15.1-12.7c38.5,0.2,77,0,115.5,0c10.2,0,12,2.1,10.4,12.3c-3.4,22.2-7.1,44.4-10.5,66.6
	c-1.1,7.4-4.8,11.2-12.2,11.3c-10.7,0.1-21.3-0.1-32,0c-6.6,0-9.1-3.4-8.1-9.6c1.6-9.6,3.3-19.1,5.2-30c-12.5,0-24.2-0.1-35.9,0.1
	c-1.3,0-2.8,1.7-3.7,3c-0.6,0.8-0.1,2.4-0.5,3.5c-8.8,23.4-1.2,41.5,15.8,58.7c16.8,17,31.5,36.1,46.3,54.9
	c3.4,4.3,5.4,11.5,4.6,16.9c-4.4,28-9.9,55.9-15,83.8c-2.8,15.3-4.3,16.7-19.4,16.8c-36.4,0.1-72.8,0.1-109.3,0.1
	c-12.3,0-15-3.4-12.9-15.9c3.7-22.4,7.5-44.9,11.4-67.3c1.8-10.4,6.4-14.4,16.7-14.6c8.3-0.2,16.6-0.2,24.9,0
	c9.6,0.2,12.9,4.7,11.2,14.4C1276.6,887.8,1274.9,898.5,1272.9,910.4z"/>
<path class="st1" d="M624.7,952.5c-5,0-10.1,0.1-15.1,0c-10.3-0.2-11.8-1.9-10-12.4c2.9-16.6,6-33.2,8.9-49.8
	c12.3-70.1,24.7-140.3,36.7-210.5c1.5-8.6,5-11.2,13.4-11.1c37.9,0.3,75.8,0.1,113.6,0.1c10.8,0,12.4,2,10.6,12.7
	c-6.7,39.3-13.5,78.6-19.9,118c-1.1,6.9-4.1,11.8-9.4,16.2c-28.9,24.4-57.7,49-86.1,74c-3.8,3.4-6.8,8.8-8,13.8
	c-3.1,13.2-5.4,26.6-7.3,40.1c-0.9,6.8-4.1,9.2-10.5,8.9C636,952.3,630.3,952.5,624.7,952.5z M726.4,718.2
	c-10.2,0-19.3,0.3-28.3-0.1c-6.1-0.3-8.1,2.3-9,8c-3.1,20.1-6.8,40.1-10.2,60.2c-2.3,13.7-4.3,27.4-6.8,43
	c7.1-6.1,12.1-11.3,17.9-15.2c16.6-11.3,26.7-25.7,28.1-46.7C719.1,751.3,723.4,735.5,726.4,718.2z"/>
<path class="st1" d="M940.1,751.2c17.6,5.4,34.7,10.7,53.7,16.5c-8.9,44.1-18,89.6-27.4,136.1c13.6,0,25.9,0.3,38.3-0.3
	c2.1-0.1,5.4-4.1,5.9-6.7c7.1-33.5,13.9-67.1,20.7-100.7c2.1-10.1,3.8-20.3,6.1-30.4c0.5-2.2,2.6-5,4.5-5.7
	c21.5-6.9,39.9-18.9,57.6-34.2c-1.9,9.8-3.7,19.6-5.6,29.4c-10.5,51.8-21.1,103.7-31.7,155.5c-0.4,2-0.9,4.1-1.7,6
	c-6.5,15.6-36.1,35.3-53.1,35.3c-31.4,0-62.8,0-94.1,0c-9.8,0-12.8-3.3-11-12.3c11.9-60.6,23.9-121.2,35.9-181.8
	C938.6,755.4,939.5,753,940.1,751.2z"/>
<path class="st1" d="M1141.5,903.8c7.6,0,14.9,0.2,22.3-0.1c5-0.1,7.6,1.1,7.2,7c-0.8,10.3-1.1,20.7-1.4,31
	c-0.2,7.4-3.9,10.4-11.3,10.3c-22.5-0.2-45-0.1-67.5-0.1c-12.2,0-14.7-2.5-12.8-15c3.5-23.1,7.6-46.1,11.4-69.2
	c10.4-62.4,20.9-124.8,31.1-187.2c1.3-8,4.6-12.2,13.3-11.8c10,0.4,20.1,0,30.2,0.1c10.7,0.1,13.6,2.8,12.1,13.4
	c-3.5,24-7.5,47.9-11.4,71.9c-7.8,48.5-15.6,96.9-23.3,145.4C1141.2,900.6,1141.4,901.8,1141.5,903.8z"/>
<path class="st1" d="M1191.4,719.9c9.8-26,18.5-49.4,27.4-72.8c1.2-3.3,2.8-6.5,4.3-9.7c7.6-17,11.1-18.9,31.5-16.5
	c-2.5,8.5-5.4,16.8-7.5,25.2c-5,20.6-9.9,41.3-14.4,62.1c-1.2,5.4-3.2,8.2-8.9,8.6C1214.1,717.4,1204.5,718.6,1191.4,719.9z"/>
<path class="st2" d="M773.2,1096.6c2.5-14.9,4.9-29.1,7.4-43.4c1.5-8.5,1.8-16.5-7.6-23.3c-1.9,10-3.7,19.3-5.3,28.7
	c-1.5,8.7-2.9,17.5-4.2,26.3c-2.1,13.1-2.8,13.7-18,11.8c1.4-8.6,2.7-17.2,4.1-25.8c2.8-16.6,5.6-33.3,8.5-49.9
	c1.7-9.8,11.1-13.2,19-6.9c3,2.4,6,4.7,9.1,7.1c0.9-9.2,6.6-12.2,17.2-8.1c-0.9,6.1-1.7,12.4-2.8,18.8c-2.9,17.8-5.9,35.6-8.9,53.4
	C789.3,1098.3,788.8,1098.6,773.2,1096.6z"/>
<path class="st2" d="M1273.8,1096.5c4.3-26.2,8.4-51.8,13-77.4c0.5-2.6,3.3-6.8,5.2-6.9c4.6-0.3,9.7,0.8,14,2.6
	c2.9,1.3,4.9,4.8,8.1,8.2c1.3-11.1,7-13.9,17.2-10.4c-0.7,4.9-1.3,10-2.1,15.1c-3.1,19.5-6.2,39.1-9.6,58.6c-2,11.9-4,13-17.8,10
	c2.6-15.9,4.7-31.9,7.9-47.7c1.7-8.4-2.1-13.1-8.3-19.1c-3.5,19.7-6.6,38.1-10.1,56.6C1289,1098.7,1288.5,1098.8,1273.8,1096.5z"/>
<path class="st2" d="M850.7,1096.2c2.6-15.4,5.1-30.8,7.7-46.2c1.7-9.8,1.2-11.3-8-20c-1.6,8.6-3.1,16.6-4.5,24.5
	c-1.8,10.2-3.5,20.4-5.3,30.6c-2.4,13.4-2.9,13.8-17.8,11.4c3.5-20.8,6.9-41.7,10.4-62.5c0.6-3.8,0.6-7.8,1.9-11.3
	c1.4-3.8,3.6-9.9,6-10.2c4.9-0.5,10.4,1.6,15.1,3.8c2.2,1,3.1,4.8,6.1,6.9c1.4-14,9.7-11.9,18.5-11c-2.3,13.6-4.5,26.9-6.6,40.1
	c-1.8,11.1-3.6,22.2-5.4,33.2C866.5,1098.7,864.9,1099.7,850.7,1096.2z"/>
<path class="st2" d="M928.2,1046.8c-2.4,17.2-4.6,33.5-7,50.3c-14.2,0-27.9,0-42.6,0c2.6-17.2,5-33.8,7.6-50.3
	c1.5-9.9,2.9-19.9,4.9-29.7c0.5-2.3,3.5-5.8,5.4-5.9c11.7-0.6,23.5-0.3,36.7-0.3c-1.1,8.2-1.1,15.7-3.4,22.4
	c-0.9,2.6-7.2,3.2-11.8,5.1c-1-4.5-1.6-6.9-2.8-12.1c-4.4,2.7-10,4.3-10.5,6.9c-3.1,15.6-5,31.5-7.3,47.2
	c11.2,3.6,12.6,2.9,13.8-7.1c0.7-6.3,4.3-13-1.5-19.2c-0.5-0.5,3-6.5,5.5-7.4C918.8,1045.2,923.2,1046.5,928.2,1046.8z"/>
<path class="st2" d="M1222.5,1097.6c1.1-7.5,1.9-13.5,2.9-19.5c2.9-17.2,5.9-34.3,9-51.4c1.8-9.8,8.5-15.1,18.5-15.1
	c5.9,0,11.8,0.2,17.7,0c5.3-0.2,7.8,1.7,6.8,7.3c-4,22.1-7.6,44.2-12,66.2c-1.5,7.6-7.6,12-15.3,12.5
	C1241.5,1098,1232.9,1097.6,1222.5,1097.6z M1240.3,1081.8c8.2,2,11.7,0.1,12.4-7.6c0.8-9.1,3.1-18,4.7-27c1.1-6.5,2.1-13,3.1-19.5
	c-0.8-0.7-1.6-1.4-2.4-2.1c-2.9,1.8-8,3.2-8.5,5.5C1246,1047.8,1243.4,1064.6,1240.3,1081.8z"/>
<path class="st2" d="M1345.5,1082.5c3.6-1.1,8.5-1.4,9.1-3.1c1.1-3.3,0.8-7.9-0.7-11.2c-1.7-3.9-4.8-7.7-8.1-10.4
	c-16-12.7-8.2-28.3-5.3-43.1c0.3-1.7,4.4-3.6,6.8-3.8c9.4-0.4,18.9-0.1,28.4-0.3c5-0.1,7.1,1.8,6.1,6.9c-0.7,3.2-1.1,6.4-1.6,9.6
	c-1.7,12-3,12.9-16.2,10.3c0-3.3,0-6.6,0-11.7c-4,1.1-9.8,1.4-10.2,3c-0.9,4.1,0.3,8.8,1.2,13.1c0.3,1.5,2.2,2.7,3.3,4.1
	c16.6,19.1,17.1,20.8,10.1,45.1c-0.8,2.7-4.8,6-7.5,6.2c-9.7,0.7-19.5,0.1-29.2,0.3c-5,0.1-6.3-2.3-5.6-6.6c0.8-4.7,2-9.3,2.3-14
	c0.6-7.1,4.1-9.8,11.1-9.3c8.1,0.6,4.7,6.5,5.2,10.6C1344.9,1078.8,1345,1079.4,1345.5,1082.5z"/>
<path class="st2" d="M1149.3,1011.1c-1.3,8.7-1.6,16.5-4.1,23.6c-0.8,2.3-7.5,4.3-10.8,3.5c-2.4-0.6-3.6-6-6.5-11.4
	c-0.9,0.2-6.4,0.1-7.1,1.8c-1.4,3.7-0.6,8.3,0.1,12.4c0.3,1.7,2.6,3.1,4,4.6c17.1,20,17.5,21.5,10,46.6c-0.7,2.2-4.1,4.9-6.4,5
	c-9.7,0.6-19.5,0.2-29.3,0.3c-5.1,0-6.9-2.1-5.8-7.2c0.9-3.7,1.2-7.6,1.8-11.4c2-12,3.6-13,16.4-9.9c0,3.6,0,7.4,0,12
	c3.3,0,6.6,0,9.7,0c3.1-6.7,1.8-12.2-3.3-17c-0.4-0.4-0.8-0.9-1.2-1.3c-16.8-20.2-16.9-20.3-10.3-45.9c0.5-2.1,2.8-5.4,4.4-5.5
	C1123.3,1010.9,1135.6,1011.1,1149.3,1011.1z"/>
<path class="st2" d="M1052.3,1010.8c-1.4,8.8-1.8,16.5-4.1,23.6c-0.7,2.3-6.4,3.7-10,3.9c-1.5,0.1-3.4-3.9-4.7-6.3
	c-0.6-1.1-0.1-2.8-0.1-4.9c-3.3-0.2-6.1-0.4-8.9-0.5c-4.2,6.9-3.6,12.6,2.1,17.7c0.4,0.4,0.8,0.9,1.2,1.3c16.3,20,16.5,20,10.4,45
	c-0.7,2.7-4.5,6.5-7,6.7c-11.2,0.7-22.4,0.3-35.9,0.3c1.7-9.6,2.5-18.4,5.3-26.4c0.7-2.2,7.5-2.7,11.5-3c0.7-0.1,2,4.5,2.6,7.1
	c0.4,1.6-0.1,3.5-0.3,7.3c4.1-1.2,9.5-1.5,10.1-3.2c1.1-3.7,0.7-8.8-1.2-12c-3.6-6-8.5-11.4-13.4-16.5c-4.7-4.8-5.6-10-3.8-16.2
	c0.9-3.1,1.9-6.3,2-9.5c0.9-15.6,3.1-14.5,18-14.3C1034.2,1010.8,1042.5,1010.8,1052.3,1010.8z"/>
<path class="st2" d="M1164.8,1082.5c3.8-1.1,9.4-1.4,9.9-3.1c1.1-3.7,0.5-8.7-1.3-12.3c-2.4-4.6-6.7-8.2-9.9-12.4
	c-3-3.9-7.9-8.3-7.8-12.3c0.3-9.6,2.8-19.2,5-28.7c0.3-1.4,3.8-2.8,5.8-2.8c9.8-0.3,19.5-0.1,29.3-0.1c1.4,0,4.1,0.5,4.1,0.8
	c0,6.6,0.3,13.2-0.7,19.6c-0.4,2.7-3.2,6.5-5.7,7.2c-8.5,2.3-10.6-0.2-9.9-12.2c-3.8,0.8-9.5,0.8-10,2.4c-1.2,3.7-1.1,9,0.8,12.3
	c3.3,5.8,8,11,12.7,15.8c5.2,5.2,5.9,10.8,4.6,17.7c-4.6,23.2-4.4,23.4-27.6,23.2c-20.3-0.2-19.7,3.9-15.5-20c0.8-4.7,1-9.5,7.8-9.9
	C1164.9,1067.3,1165.7,1068.3,1164.8,1082.5z"/>
<path class="st2" d="M701.7,1096.5c-0.3-3.3-0.7-6.7-1.1-10.9c-13-2.8-17.4,19.2-32.8,10.2c1.4-4.7,3-10.2,4.7-15.6
	c6.1-19.8,12.2-39.6,18.4-59.3c3.2-10.4,5.5-11.5,18.7-9.9c9.6,1.2,6.5,8.5,6.5,13.7c0.3,20.4,0.2,40.9,0.2,61.3
	C716.2,1098.7,715.9,1098.9,701.7,1096.5z M699.8,1040.1c-1.5,9.4-3.1,18.8-4.9,29.7C701.6,1065.9,702.5,1058.4,699.8,1040.1z"/>
<path class="st2" d="M662.7,1097.3c-4.8,0-8.3,0-12.7,0c0-8.3,0-16.4,0-25.3c-12.3,4.9-10.7,15.9-13.5,25.1c-4.1,0-8.1,0-13.7,0
	c0.6-5.2,1.2-10.3,1.9-15.3c2.9-20.2,6-40.3,8.7-60.5c1-7.2,4-10.5,11.6-9.8c6.2,0.5,12.4,0.3,18.6,0.1c5.9-0.2,8.8,2.3,8.6,8.3
	c-0.2,7.4,0,14.8-0.1,22.2c0,1.7,0.1,4.2-0.9,5.1c-13,11.5-7.4,26.8-8.5,40.7C662.5,1090.7,662.7,1093.6,662.7,1097.3z M656.2,1025
	c-3.7,2.5-7.9,3.8-8.5,6c-2.1,8.2-3,16.7-4.5,26.1C655,1049.7,659.3,1040.4,656.2,1025z"/>
<path class="st2" d="M1065.3,1084.9c6.7,0,11.9,0,17.8,0c0,4.3,0,7.9,0,12.2c-11,0-21.8,0-33.7,0c0.8-7.8,1.3-15.3,2.2-22.8
	c2.2-18.2,4.9-36.3,6.9-54.5c0.7-6.4,2.9-9.8,9.9-9.1c5,0.5,10.1,0.5,15-0.1c8.8-1,11.4,2.8,8.8,10.6c-0.9,2.8-3,6.3-5.4,7.1
	c-4.2,1.5-11.7-0.3-13.1,2.1c-2.9,4.9-2.8,11.6-4,18.3c5,0.5,9,0.8,13.5,1.3c0,5.2,0,10,0,15.5c-5,0.3-9.6,0.6-15.4,1
	C1067.1,1072,1066.3,1077.7,1065.3,1084.9z"/>
<path class="st2" d="M629.9,1011.5c-0.4,9.3-0.9,16.1-11.5,15.4c-1.6-0.1-4.7,4-5.2,6.5c-3.4,17.4-6.3,34.9-9.2,52.3
	c-2.4,14-2.8,14.4-18.6,11.1c3.9-22.9,7.9-45.9,11.9-69.7c-8-0.3-15.2-0.7-11.3-10.5c0.8-2,3.3-4.7,5.1-4.8
	C603.6,1011.3,616.3,1011.5,629.9,1011.5z"/>
<path class="st2" d="M751.8,1012.2c-3.5,20.3-6.8,40-10.2,59.8c-1.1,6.4-2.5,12.8-3.2,19.2c-0.9,8.9-7.5,6.8-12.7,6.6
	c-7-0.3-4.4-5.4-3.8-9.2c3.8-21.9,7.6-43.7,11.4-65.6C735.6,1009.9,736.7,1009.2,751.8,1012.2z"/>
<path class="st2" d="M1205.9,1098c-6.9,1-9-1.6-7.7-8.6c4.5-23.8,8.8-47.6,12.5-71.5c1.3-8.7,6.8-7.4,12.3-7c7,0.6,4.5,5.9,3.9,9.5
	c-3.8,23.3-8.1,46.5-11.9,69.8C1214.1,1096.1,1211.8,1099,1205.9,1098z"/>
<path class="st2" d="M797.4,1096.4c3.8-21.6,7.5-42.7,11.1-63.9c0.6-3.2,1-6.4,1.5-9.6c1.9-12.9,3.9-14.2,18.1-10.5
	c-2.1,13.4-4.2,27-6.4,40.6c-1.8,11.1-3.7,22.1-5.7,33.1C813.9,1099.1,812.3,1100,797.4,1096.4z"/>
<path class="st0" d="M840.6,737c0,40.7,0,81.4,0,122.9c-7.6,0-14.8,0-23.3,0c7.5-41.2,15-82.2,22.5-123.2
	C840.1,736.8,840.3,736.9,840.6,737z"/>
<path class="st0" d="M726.4,718.2c-3.1,17.4-7.3,33.2-8.3,49.2c-1.3,21-11.5,35.4-28.1,46.7c-5.8,4-10.8,9.1-17.9,15.2
	c2.5-15.6,4.5-29.3,6.8-43c3.4-20.1,7.1-40.1,10.2-60.2c0.9-5.7,2.9-8.3,9-8C707.1,718.5,716.2,718.2,726.4,718.2z"/>
<path class="st0" d="M1240.3,1081.8c3-17.2,5.7-34,9.3-50.6c0.5-2.3,5.6-3.7,8.5-5.5c0.8,0.7,1.6,1.4,2.4,2.1c-1,6.5-2,13-3.1,19.5
	c-1.6,9-3.8,17.9-4.7,27C1252,1081.9,1248.5,1083.7,1240.3,1081.8z"/>
<path class="st0" d="M699.8,1040.1c2.7,18.2,1.8,25.8-4.9,29.7C696.7,1059,698.3,1049.6,699.8,1040.1z"/>
<path class="st0" d="M656.2,1025c3,15.4-1.3,24.7-13,32.1c1.5-9.4,2.4-17.9,4.5-26.1C648.3,1028.7,652.6,1027.4,656.2,1025z"/>
</svg>
